<?xml version="1.0" encoding="utf-8"?>
<svg height="420mm" viewBox="0 0 297 420" width="297mm" xmlns="http://www.w3.org/2000/svg" xmlns:ifc="http://www.ifcopenshell.org/ns" xmlns:xlink="http://www.w3.org/1999/xlink">
 <defs>
  <marker id="arrowend" markerHeight="7" markerWidth="10" orient="auto" refX="10" refY="3.5">
   <polygon points="0 0, 10 3.5, 0 7"/>
  </marker>
  <marker id="arrowstart" markerHeight="7" markerWidth="10" orient="auto" refX="0" refY="3.5">
   <polygon points="10 0, 0 3.5, 10 7"/>
  </marker>
 </defs>
 <style type="text/css">
  .cut path {
            stroke: #222222;
            fill: #444444;
            fill-rule: evenodd;
        }
        .projection path {
            stroke: #222222;
            fill: none;
            stroke-opacity: 0.6;
        }
        .IfcDoor path,
        .Symbol path {
            fill: none;
        }
        .Symbol path {
            stroke-width: 0.5px;
        }
        .IfcSpace path {
            fill-opacity: .2;
        }
        .Dimension path {
            marker-end: url(#arrowend);
            marker-start: url(#arrowstart);
        }
        text {
            font-size: 2;
        }
        path {
            stroke-width: 0.3;
        }
 </style>
 <g class="IfcBuildingStorey" id="storey-7b7032cc-b822-417b-9aea-6429f95d6693" ifc:guid="1xS3BCk291UvhgP2dvNMQJ" ifc:matrix3="[[10.000000,0.000000,104.500000],[0.000000,10.000000,121.000000],[0.000000,0.000000,1.000000]]" ifc:name="Level 2" ifc:plane="[[1.000000,0.000000,0.000000,0.000000],[0.000000,1.000000,0.000000,0.000000],[0.000000,0.000000,1.000000,4.300000],[0.000000,0.000000,0.000000,1.000000]]">
  <g class="IfcSpace" id="product-0b74b3fa-1a92-405e-9ac9-d59067be1d6c-body" ifc:guid="0BTBFw6f90Nfh9rP1dlXri" ifc:name="A201">
   <path d="M188.33,201.75 L188.33,183.5 L168.68,183.5 L168.68,236.5 L178.186,236.5 L178.186,201.75 L188.33,201.75"/>
  </g>
  <g class="IfcSpace" id="product-0b74b3fa-1a92-405e-9ac9-d59067be1d68-body" ifc:guid="0BTBFw6f90Nfh9rP1dlXre" ifc:name="A204">
   <path d="M167.44,199.454 L152.2,199.454 L152.2,230.5 L167.44,230.5 L167.44,199.454"/>
  </g>
  <g class="IfcSpace" id="product-0b74b3fa-1a92-405e-9ac9-d59067be1d65-body" ifc:guid="0BTBFw6f90Nfh9rP1dlXrb" ifc:name="A203">
   <path d="M151.25,294.83 L188.33,294.83 L188.33,237.74 L167.44,237.74 L167.44,232.34 L151.25,232.34 L151.25,294.83"/>
  </g>
  <g class="IfcSpace" id="product-0b74b3fa-1a92-405e-9ac9-d59067be1d66-body" ifc:guid="0BTBFw6f90Nfh9rP1dlXrc" ifc:name="A202">
   <path d="M151.25,187.66 L167.44,187.66 L167.44,182.26 L188.33,182.26 L188.33,125.17 L151.25,125.17 L151.25,187.66"/>
  </g>
  <g class="IfcSpace" id="product-0b74b3fa-1a92-405e-9ac9-d59067bfe0d0-body" ifc:guid="0BTBFw6f90Nfh9rP1dl_3G" ifc:name="B201">
   <path d="M108.67,236.5 L108.67,218.25 L118.814,218.25 L118.814,183.5 L128.32,183.5 L128.32,236.5 L108.67,236.5"/>
  </g>
  <g class="IfcSpace" id="product-0b74b3fa-1a92-405e-9ac9-d59067bfe0cc-body" ifc:guid="0BTBFw6f90Nfh9rP1dl_3C" ifc:name="B204">
   <path d="M129.56,220.701 L144.8,220.701 L144.8,189.5 L129.56,189.5 L129.56,220.701"/>
  </g>
  <g class="IfcSpace" id="product-0b74b3fa-1a92-405e-9ac9-d59067bfe0c9-body" ifc:guid="0BTBFw6f90Nfh9rP1dl_39" ifc:name="B203">
   <path d="M145.75,125.17 L108.67,125.17 L108.67,182.26 L129.56,182.26 L129.56,187.66 L145.75,187.66 L145.75,125.17"/>
  </g>
  <g class="IfcSpace" id="product-0b74b3fa-1a92-405e-9ac9-d59067bfe0ca-body" ifc:guid="0BTBFw6f90Nfh9rP1dl_3A" ifc:name="B202">
   <path d="M145.75,232.34 L129.56,232.34 L129.56,237.74 L108.67,237.74 L108.67,294.83 L145.75,294.83 L145.75,232.34"/>
  </g>
  <g class="IfcSpace" id="product-aa6e13ea-b5bc-4245-93bf-8b23558433df-body" ifc:guid="2gRXFgjRn2HPE$YoDLX3FV" ifc:name="A205">
   <path d="M167.44,188.9 L152.2,188.9 L152.2,198.214 L167.44,198.214 L167.44,188.9"/>
  </g>
  <g class="IfcSpace" id="product-aa6e13ea-b5bc-4245-93bf-8b23558433cc-body" ifc:guid="2gRXFgjRn2HPE$YoDLX3FC" ifc:name="B205">
   <path d="M129.56,231.1 L144.8,231.1 L144.8,221.941 L129.56,221.941 L129.56,231.1"/>
  </g>
  <g class="IfcSpace" id="product-40c2d70d-8d3b-49a9-9702-6756a4ee40fd-body" ifc:guid="10mjSDZJj9gPS2PrQaxa3z" ifc:name="A105">
   <path d="M188.33,201.75 L178.186,201.75 L178.186,236.66 L188.33,236.66 L188.33,201.75"/>
  </g>
  <g class="IfcSpace" id="product-40c2d70d-8d3b-49a9-9702-6756a4ee4132-body" ifc:guid="10mjSDZJj9gPS2PrQaxa4o" ifc:name="B105">
   <path d="M108.67,218.25 L118.814,218.25 L118.814,183.34 L108.67,183.34 L108.67,218.25"/>
  </g>
  <g class="cut IfcWall" id="product-9808fd7f-dc48-478e-9217-628e833d4938-body" ifc:guid="2O2Fr$t4X7Zf8NOew3FKau" ifc:name="Basic Wall:Party Wall - CMU Residential Unit Dimising Wall:143239">
   <path d="M145.75,125.17 L145.75,189.5 L146.32,189.5 L146.32,231.1 L145.75,231.1 L145.75,294.83 L151.25,294.83 L151.25,230.5 L150.68,230.5 L150.68,188.9 L151.25,188.9 L151.25,125.17 L145.75,125.17"/>
  </g>
  <g class="cut IfcWallStandardCase" id="product-9808fd7f-dc48-478e-9217-628e833d568d-body" ifc:guid="2O2Fr$t4X7Zf8NOew3FLQD" ifc:name="Basic Wall:Exterior - Brick on Block:143410">
   <path d="M188.33,125.17 L192.5,121 L145.75,121 L145.75,125.17 L188.33,125.17 M116.86,125.17 L117.75,125.17 L117.75,121 L116.86,121 L116.86,125.17 M108.67,121 L104.5,121 L108.67,125.17 L108.67,121"/>
  </g>
  <g class="cut IfcWallStandardCase" id="product-9808fd7f-dc48-478e-9217-628e833d56c9-body" ifc:guid="2O2Fr$t4X7Zf8NOew3FLR9" ifc:name="Basic Wall:Exterior - Brick on Block:143478">
   <path d="M188.33,294.83 L192.5,299 L192.5,246.24 L188.33,246.24 L188.33,294.83 M188.33,153.17 L188.33,154.17 L192.5,154.17 L192.5,153.17 L188.33,153.17 M188.33,162.36 L188.33,238.74 L192.5,238.74 L192.5,162.36 L188.33,162.36 M192.5,125.17 L192.5,121 L188.33,125.17 L192.5,125.17"/>
  </g>
  <g class="cut IfcWallStandardCase" id="product-9808fd7f-dc48-478e-9217-628e833d5611-body" ifc:guid="2O2Fr$t4X7Zf8NOew3FLOH" ifc:name="Basic Wall:Exterior - Brick on Block:143534">
   <path d="M108.67,294.83 L104.5,299 L151.25,299 L151.25,294.83 L108.67,294.83 M180.14,294.83 L179.25,294.83 L179.25,299 L180.14,299 L180.14,294.83 M188.33,299 L192.5,299 L188.33,294.83 L188.33,299"/>
  </g>
  <g class="cut IfcWallStandardCase" id="product-9808fd7f-dc48-478e-9217-628e833d5659-body" ifc:guid="2O2Fr$t4X7Zf8NOew3FLPP" ifc:name="Basic Wall:Exterior - Brick on Block:143590">
   <path d="M108.67,125.17 L104.5,121 L104.5,173.76 L108.67,173.76 L108.67,125.17 M108.67,266.83 L108.67,265.83 L104.5,265.83 L104.5,266.83 L108.67,266.83 M108.67,257.64 L108.67,181.26 L104.5,181.26 L104.5,257.64 L108.67,257.64 M104.5,294.83 L104.5,299 L108.67,294.83 L104.5,294.83"/>
  </g>
  <g class="cut IfcWallStandardCase" id="product-9808fd7f-dc48-478e-9217-628e833d574f-body" ifc:guid="2O2Fr$t4X7Zf8NOew3FLTF" ifc:name="Basic Wall:Interior - Partition (92mm Stud):143856">
   <path d="M108.67,182.26 L108.67,183.5 L119.333,183.5 L119.333,182.26 L108.67,182.26 M129.56,182.26 L129.56,183.5 L127.973,183.5 L127.973,182.26 L129.56,182.26"/>
  </g>
  <g class="cut IfcWallStandardCase" id="product-9808fd7f-dc48-478e-9217-628e833d548e-body" ifc:guid="2O2Fr$t4X7Zf8NOew3FLIE" ifc:name="Basic Wall:Interior - Partition (92mm Stud):143921">
   <path d="M129.56,211.061 L128.32,211.061 L128.32,183.5 L129.56,183.5 L129.56,211.061 M128.32,219.701 L129.56,219.701 L129.56,237.74 L128.32,237.74 L128.32,219.701"/>
  </g>
  <g class="cut IfcWallStandardCase" id="product-9808fd7f-dc48-478e-9217-628e833d54e7-body" ifc:guid="2O2Fr$t4X7Zf8NOew3FLJd" ifc:name="Basic Wall:Interior - Partition (92mm Stud):143960">
   <path d="M127.32,237.74 L127.32,236.5 L128.32,236.5 L128.32,237.74 L127.32,237.74 M118.68,236.5 L118.68,237.74 L108.67,237.74 L108.67,236.5 L118.68,236.5"/>
  </g>
  <g class="cut IfcWallStandardCase" id="product-9808fd7f-dc48-478e-9217-628e833d55b5-body" ifc:guid="2O2Fr$t4X7Zf8NOew3FLMr" ifc:name="Basic Wall:Interior - Plumbing (152mm Stud):144138">
   <path d="M145.75,187.66 L129.56,187.66 L129.56,189.5 L145.75,189.5 L145.75,187.66"/>
  </g>
  <g class="cut IfcWallStandardCase" id="product-9808fd7f-dc48-478e-9217-628e833d5512-body" ifc:guid="2O2Fr$t4X7Zf8NOew3FLKI" ifc:name="Basic Wall:Interior - Partition (92mm Stud):144301">
   <path d="M129.56,232.34 L145.75,232.34 L145.75,231.1 L129.56,231.1 L129.56,232.34"/>
  </g>
  <g class="cut IfcWallStandardCase" id="product-9808fd7f-dc48-478e-9217-628e833d5239-body" ifc:guid="2O2Fr$t4X7Zf8NOew3FL8v" ifc:name="Basic Wall:Interior - Partition (92mm Stud):144518">
   <path d="M188.33,237.74 L188.33,236.5 L177.713,236.5 L177.713,237.74 L188.33,237.74 M167.44,237.74 L167.44,236.5 L169.073,236.5 L169.073,237.74 L167.44,237.74"/>
  </g>
  <g class="cut IfcWallStandardCase" id="product-9808fd7f-dc48-478e-9217-628e833d5275-body" ifc:guid="2O2Fr$t4X7Zf8NOew3FL9r" ifc:name="Basic Wall:Interior - Partition (92mm Stud):144586">
   <path d="M167.44,209.094 L168.68,209.094 L168.68,236.5 L167.44,236.5 L167.44,209.094 M168.68,200.454 L167.44,200.454 L167.44,182.26 L168.68,182.26 L168.68,200.454"/>
  </g>
  <g class="cut IfcWallStandardCase" id="product-9808fd7f-dc48-478e-9217-628e833d5246-body" ifc:guid="2O2Fr$t4X7Zf8NOew3FL96" ifc:name="Basic Wall:Interior - Partition (92mm Stud):144633">
   <path d="M169.28,182.26 L169.28,183.5 L168.68,183.5 L168.68,182.26 L169.28,182.26 M177.92,183.5 L177.92,182.26 L188.33,182.26 L188.33,183.5 L177.92,183.5"/>
  </g>
  <g class="cut IfcWallStandardCase" id="product-9808fd7f-dc48-478e-9217-628e833d5393-body" ifc:guid="2O2Fr$t4X7Zf8NOew3FLEJ" ifc:name="Basic Wall:Interior - Partition (92mm Stud):144684">
   <path d="M167.44,187.66 L151.25,187.66 L151.25,188.9 L167.44,188.9 L167.44,187.66"/>
  </g>
  <g class="cut IfcWallStandardCase" id="product-9808fd7f-dc48-478e-9217-628e833d5330-body" ifc:guid="2O2Fr$t4X7Zf8NOew3FLCm" ifc:name="Basic Wall:Interior - Plumbing (152mm Stud):144783">
   <path d="M151.25,232.34 L167.44,232.34 L167.44,230.5 L151.25,230.5 L151.25,232.34"/>
  </g>
  <g class="cut IfcWindow" id="product-6f010293-ddb7-4fe4-8ffd-c144d844491c-body" ifc:guid="1l0GAJtRTFv8$zmKJOH4aS" ifc:name="M_Fixed:750mm x 2200mm:750mm x 2200mm:181930">
   <path d="M192.15,239.37 L192.03,239.37 L192.03,245.61 L192.15,245.61 L192.15,239.37"/>
   <path d="M191.87,246.05 L192.31,246.05 L192.31,245.61 L191.87,245.61 L191.87,246.05 M192.31,238.93 L191.87,238.93 L191.87,239.37 L192.31,239.37 L192.31,238.93"/>
   <path d="M191.87,246.24 L192.5,246.24 L192.5,246.05 L191.87,246.05 L191.87,246.24 M192.5,238.74 L191.87,238.74 L191.87,238.93 L192.5,238.93 L192.5,238.74"/>
   <path d="M188.33,246.24 L191.87,246.24 L191.87,245.92 L188.33,245.92 L188.33,246.24 M191.87,238.74 L188.33,238.74 L188.33,239.06 L191.87,239.06 L191.87,238.74"/>
  </g>
  <g class="cut IfcWindow" id="product-6f010293-ddb7-4fe4-8ffd-c144d84448e3-body" ifc:guid="1l0GAJtRTFv8$zmKJOH4ZZ" ifc:name="M_Fixed:750mm x 2200mm:750mm x 2200mm:182101">
   <path d="M104.85,180.63 L104.97,180.63 L104.97,174.39 L104.85,174.39 L104.85,180.63"/>
   <path d="M105.13,173.95 L104.69,173.95 L104.69,174.39 L105.13,174.39 L105.13,173.95 M104.69,181.07 L105.13,181.07 L105.13,180.63 L104.69,180.63 L104.69,181.07"/>
   <path d="M105.13,173.76 L104.5,173.76 L104.5,173.95 L105.13,173.95 L105.13,173.76 M104.5,181.26 L105.13,181.26 L105.13,181.07 L104.5,181.07 L104.5,181.26"/>
   <path d="M108.67,173.76 L105.13,173.76 L105.13,174.08 L108.67,174.08 L108.67,173.76 M105.13,181.26 L108.67,181.26 L108.67,180.94 L105.13,180.94 L105.13,181.26"/>
  </g>
  <g class="cut IfcWindow" id="product-6b61ce71-1a7a-473c-8f87-4262e0bdc858-body" ifc:guid="1hOSvn6df7F8_7GcBWlSXO" ifc:name="M_Fixed:2800mm x 2410mm:2800mm x 2410mm:147686">
   <path d="M118.38,121.35 L118.38,121.47 L145.12,121.47 L145.12,121.35 L118.38,121.35"/>
   <path d="M145.56,121.63 L145.56,121.19 L145.12,121.19 L145.12,121.63 L145.56,121.63 M117.94,121.19 L117.94,121.63 L118.38,121.63 L118.38,121.19 L117.94,121.19"/>
   <path d="M145.75,121.63 L145.75,121 L145.56,121 L145.56,121.63 L145.75,121.63 M117.75,121 L117.75,121.63 L117.94,121.63 L117.94,121 L117.75,121"/>
   <path d="M145.75,125.17 L145.75,121.63 L145.43,121.63 L145.43,125.17 L145.75,125.17 M117.75,121.63 L117.75,125.17 L118.07,125.17 L118.07,121.63 L117.75,121.63"/>
  </g>
  <g class="cut IfcWindow" id="product-6b61ce71-1a7a-473c-8f87-4262e0bdcfa0-body" ifc:guid="1hOSvn6df7F8_7GcBWlS_W" ifc:name="M_Fixed:2800mm x 2410mm:2800mm x 2410mm:149278">
   <path d="M178.62,298.65 L178.62,298.53 L151.88,298.53 L151.88,298.65 L178.62,298.65"/>
   <path d="M151.44,298.37 L151.44,298.81 L151.88,298.81 L151.88,298.37 L151.44,298.37 M179.06,298.81 L179.06,298.37 L178.62,298.37 L178.62,298.81 L179.06,298.81"/>
   <path d="M151.25,298.37 L151.25,299 L151.44,299 L151.44,298.37 L151.25,298.37 M179.25,299 L179.25,298.37 L179.06,298.37 L179.06,299 L179.25,299"/>
   <path d="M151.25,294.83 L151.25,298.37 L151.57,298.37 L151.57,294.83 L151.25,294.83 M179.25,298.37 L179.25,294.83 L178.93,294.83 L178.93,298.37 L179.25,298.37"/>
  </g>
  <g class="cut IfcWindow" id="product-6f010293-ddb7-4fe4-8ffd-c144d8444fe8-body" ifc:guid="1l0GAJtRTFv8$zmKJOH4$e" ifc:name="M_Fixed:2800mm x 2410mm:2800mm x 2410mm:180318">
   <path d="M104.85,294.2 L104.97,294.2 L104.97,267.46 L104.85,267.46 L104.85,294.2"/>
   <path d="M105.13,267.02 L104.69,267.02 L104.69,267.46 L105.13,267.46 L105.13,267.02 M104.69,294.64 L105.13,294.64 L105.13,294.2 L104.69,294.2 L104.69,294.64"/>
   <path d="M105.13,266.83 L104.5,266.83 L104.5,267.02 L105.13,267.02 L105.13,266.83 M104.5,294.83 L105.13,294.83 L105.13,294.64 L104.5,294.64 L104.5,294.83"/>
   <path d="M108.67,266.83 L105.13,266.83 L105.13,267.15 L108.67,267.15 L108.67,266.83 M105.13,294.83 L108.67,294.83 L108.67,294.51 L105.13,294.51 L105.13,294.83"/>
  </g>
  <g class="cut IfcWindow" id="product-6f010293-ddb7-4fe4-8ffd-c144d8444cde-body" ifc:guid="1l0GAJtRTFv8$zmKJOH4pU" ifc:name="M_Fixed:2800mm x 2410mm:2800mm x 2410mm:181096">
   <path d="M192.15,125.8 L192.03,125.8 L192.03,152.54 L192.15,152.54 L192.15,125.8"/>
   <path d="M191.87,152.98 L192.31,152.98 L192.31,152.54 L191.87,152.54 L191.87,152.98 M192.31,125.36 L191.87,125.36 L191.87,125.8 L192.31,125.8 L192.31,125.36"/>
   <path d="M191.87,153.17 L192.5,153.17 L192.5,152.98 L191.87,152.98 L191.87,153.17 M192.5,125.17 L191.87,125.17 L191.87,125.36 L192.5,125.36 L192.5,125.17"/>
   <path d="M188.33,153.17 L191.87,153.17 L191.87,152.85 L188.33,152.85 L188.33,153.17 M191.87,125.17 L188.33,125.17 L188.33,125.49 L191.87,125.49 L191.87,125.17"/>
  </g>
  <g class="cut IfcWindow" id="product-6b61ce71-1a7a-473c-8f87-4262e0bdccc1-body" ifc:guid="1hOSvn6df7F8_7GcBWlSp1" ifc:name="M_Casement:819mm x 759mm:819mm x 759mm:148607">
   <path d="M116.225,121.476 L116.225,121.349 L109.305,121.349 L109.305,121.476 L116.225,121.476"/>
   <path d="M116.67,121.635 L116.67,121.19 L116.225,121.19 L116.225,121.635 L116.67,121.635 M108.861,121.19 L108.861,121.635 L109.305,121.635 L109.305,121.19 L108.861,121.19"/>
   <path d="M116.86,125.17 L116.86,121.635 L116.543,121.635 L116.543,125.17 L116.86,125.17 M108.67,121.635 L108.67,125.17 L108.988,125.17 L108.988,121.635 L108.67,121.635"/>
   <path d="M116.86,121.635 L116.86,121 L116.67,121 L116.67,121.635 L116.86,121.635 M108.67,121 L108.67,121.635 L108.861,121.635 L108.861,121 L108.67,121"/>
  </g>
  <g class="cut IfcWindow" id="product-6b61ce71-1a7a-473c-8f87-4262e0bdc056-body" ifc:guid="1hOSvn6df7F8_7GcBWlS1M" ifc:name="M_Casement:819mm x 759mm:819mm x 759mm:149736">
   <path d="M180.775,298.524 L180.775,298.651 L187.695,298.651 L187.695,298.524 L180.775,298.524"/>
   <path d="M180.33,298.366 L180.33,298.81 L180.775,298.81 L180.775,298.366 L180.33,298.366 M188.139,298.81 L188.139,298.366 L187.695,298.366 L187.695,298.81 L188.139,298.81"/>
   <path d="M180.14,294.83 L180.14,298.366 L180.457,298.366 L180.457,294.83 L180.14,294.83 M188.33,298.366 L188.33,294.83 L188.012,294.83 L188.012,298.366 L188.33,298.366"/>
   <path d="M180.14,298.366 L180.14,299 L180.33,299 L180.33,298.366 L180.14,298.366 M188.33,299 L188.33,298.366 L188.139,298.366 L188.139,299 L188.33,299"/>
  </g>
  <g class="cut IfcWindow" id="product-6f010293-ddb7-4fe4-8ffd-c144d8444cb4-body" ifc:guid="1l0GAJtRTFv8$zmKJOH4oq" ifc:name="M_Casement:819mm x 759mm:819mm x 759mm:180994">
   <path d="M104.976,258.275 L104.849,258.275 L104.849,265.195 L104.976,265.195 L104.976,258.275"/>
   <path d="M105.135,257.83 L104.69,257.83 L104.69,258.275 L105.135,258.275 L105.135,257.83 M104.69,265.639 L105.135,265.639 L105.135,265.195 L104.69,265.195 L104.69,265.639"/>
   <path d="M108.67,257.64 L105.135,257.64 L105.135,257.957 L108.67,257.957 L108.67,257.64 M105.135,265.83 L108.67,265.83 L108.67,265.512 L105.135,265.512 L105.135,265.83"/>
   <path d="M105.135,257.64 L104.5,257.64 L104.5,257.83 L105.135,257.83 L105.135,257.64 M104.5,265.83 L105.135,265.83 L105.135,265.639 L104.5,265.639 L104.5,265.83"/>
  </g>
  <g class="cut IfcWindow" id="product-6f010293-ddb7-4fe4-8ffd-c144d8444a9a-body" ifc:guid="1l0GAJtRTFv8$zmKJOH4gQ" ifc:name="M_Casement:819mm x 759mm:819mm x 759mm:181548">
   <path d="M192.024,161.725 L192.151,161.725 L192.151,154.805 L192.024,154.805 L192.024,161.725"/>
   <path d="M191.865,162.17 L192.31,162.17 L192.31,161.725 L191.865,161.725 L191.865,162.17 M192.31,154.361 L191.865,154.361 L191.865,154.805 L192.31,154.805 L192.31,154.361"/>
   <path d="M188.33,162.36 L191.865,162.36 L191.865,162.043 L188.33,162.043 L188.33,162.36 M191.865,154.17 L188.33,154.17 L188.33,154.488 L191.865,154.488 L191.865,154.17"/>
   <path d="M191.865,162.36 L192.5,162.36 L192.5,162.17 L191.865,162.17 L191.865,162.36 M192.5,154.17 L191.865,154.17 L191.865,154.361 L192.5,154.361 L192.5,154.17"/>
  </g>
  <g class="cut IfcDoor" id="product-6b61ce71-1a7a-473c-8f87-4262e0bdc3d4-body" ifc:guid="1hOSvn6df7F8_7GcBWlSFK" ifc:name="M_Single-Flush:0864 x 2032mm:0864 x 2032mm:150378">
   <path d="M128.733,182.26 L128.733,182.01 L127.973,182.01 L127.973,182.26 L128.733,182.26 M119.333,182.26 L119.333,182.01 L118.573,182.01 L118.573,182.26 L119.333,182.26"/>
   <path d="M128.733,183.75 L128.733,183.5 L127.973,183.5 L127.973,183.75 L128.733,183.75 M119.333,183.75 L119.333,183.5 L118.573,183.5 L118.573,183.75 L119.333,183.75"/>
   <path d="M127.973,182.77 L127.973,182.26 L119.333,182.26 L119.333,182.77 L127.973,182.77"/>
  </g>
  <g class="cut IfcDoor" id="product-6b61ce71-1a7a-473c-8f87-4262e0bdc370-body" ifc:guid="1hOSvn6df7F8_7GcBWlSDm" ifc:name="M_Single-Flush:0864 x 2032mm:0864 x 2032mm:150478">
   <path d="M168.313,237.74 L168.313,237.99 L169.073,237.99 L169.073,237.74 L168.313,237.74 M177.713,237.74 L177.713,237.99 L178.473,237.99 L178.473,237.74 L177.713,237.74"/>
   <path d="M168.313,236.25 L168.313,236.5 L169.073,236.5 L169.073,236.25 L168.313,236.25 M177.713,236.25 L177.713,236.5 L178.473,236.5 L178.473,236.25 L177.713,236.25"/>
   <path d="M169.073,237.23 L169.073,237.74 L177.713,237.74 L177.713,237.23 L169.073,237.23"/>
  </g>
  <g class="cut IfcDoor" id="product-982f59b0-f2e1-485f-8ce1-c9f6117b96c4-body" ifc:guid="2OBrcmyk58NupXoVOHUvR4" ifc:name="M_Single-Flush:0864 x 2032mm:0864 x 2032mm:160065">
   <path d="M129.56,220.461 L129.81,220.461 L129.81,219.701 L129.56,219.701 L129.56,220.461 M129.56,211.061 L129.81,211.061 L129.81,210.301 L129.56,210.301 L129.56,211.061"/>
   <path d="M128.07,220.461 L128.32,220.461 L128.32,219.701 L128.07,219.701 L128.07,220.461 M128.07,211.061 L128.32,211.061 L128.32,210.301 L128.07,210.301 L128.07,211.061"/>
   <path d="M129.05,219.701 L129.56,219.701 L129.56,211.061 L129.05,211.061 L129.05,219.701"/>
  </g>
  <g class="cut IfcDoor" id="product-982f59b0-f2e1-485f-8ce1-c9f6117b9655-body" ifc:guid="2OBrcmyk58NupXoVOHUvPL" ifc:name="M_Single-Flush:0864 x 2032mm:0864 x 2032mm:160208">
   <path d="M167.44,199.694 L167.19,199.694 L167.19,200.454 L167.44,200.454 L167.44,199.694 M167.44,209.094 L167.19,209.094 L167.19,209.854 L167.44,209.854 L167.44,209.094"/>
   <path d="M168.93,199.694 L168.68,199.694 L168.68,200.454 L168.93,200.454 L168.93,199.694 M168.93,209.094 L168.68,209.094 L168.68,209.854 L168.93,209.854 L168.93,209.094"/>
   <path d="M167.95,200.454 L167.44,200.454 L167.44,209.094 L167.95,209.094 L167.95,200.454"/>
  </g>
  <g class="cut IfcFurnishingElement" id="product-3ab8ee1d-07ad-41b9-8f24-a55884e7ce3f-body" ifc:guid="0wkEuT1wr1kOyafLY4vyu$" ifc:name="M_Tall Cabinet-Single Door(2):800 mm:800 mm:157200">
   <path d="M129.64,237.35 L129.83,237.35 L129.83,232.34 L129.64,232.34 L129.64,237.35 M137.449,237.35 L137.64,237.35 L137.64,232.34 L137.449,232.34 L137.449,237.35"/>
   <path d="M137.261,237.794 L137.386,237.794 L137.386,237.54 L137.261,237.54 L137.261,237.794"/>
   <path d="M129.64,237.54 L137.64,237.54 L137.64,237.35 L129.64,237.35 L129.64,237.54"/>
   <path d="M129.83,232.531 L137.449,232.531 L137.449,232.34 L129.83,232.34 L129.83,232.531"/>
  </g>
  <g class="cut IfcFurnishingElement" id="product-3ab8ee1d-07ad-41b9-8f24-a55884e7cf88-body" ifc:guid="0wkEuT1wr1kOyafLY4vy_8" ifc:name="M_Tall Cabinet-Single Door(2):800 mm:800 mm:157607">
   <path d="M137.64,237.35 L137.831,237.35 L137.83,232.34 L137.64,232.34 L137.64,237.35 M145.45,237.35 L145.64,237.35 L145.64,232.34 L145.449,232.34 L145.45,237.35"/>
   <path d="M137.894,237.794 L138.019,237.794 L138.019,237.54 L137.894,237.54 L137.894,237.794"/>
   <path d="M137.64,237.54 L145.64,237.54 L145.64,237.35 L137.64,237.35 L137.64,237.54"/>
   <path d="M137.83,232.531 L145.449,232.531 L145.449,232.34 L137.83,232.34 L137.83,232.531"/>
  </g>
  <g class="cut IfcFurnishingElement" id="product-3ab8ee1d-07ad-41b9-8f24-a55884e7c0d1-body" ifc:guid="0wkEuT1wr1kOyafLY4vy3H" ifc:name="M_Tall Cabinet-Single Door(2):800 mm:800 mm:157950">
   <path d="M151.33,237.35 L151.52,237.35 L151.52,232.34 L151.33,232.34 L151.33,237.35 M159.139,237.35 L159.33,237.35 L159.33,232.34 L159.139,232.34 L159.139,237.35"/>
   <path d="M158.951,237.794 L159.076,237.794 L159.076,237.54 L158.951,237.54 L158.951,237.794"/>
   <path d="M151.33,237.54 L159.33,237.54 L159.33,237.35 L151.33,237.35 L151.33,237.54"/>
   <path d="M151.52,232.531 L159.139,232.531 L159.139,232.34 L151.52,232.34 L151.52,232.531"/>
  </g>
  <g class="cut IfcFurnishingElement" id="product-3ab8ee1d-07ad-41b9-8f24-a55884e7c0d0-body" ifc:guid="0wkEuT1wr1kOyafLY4vy3G" ifc:name="M_Tall Cabinet-Single Door(2):800 mm:800 mm:157951">
   <path d="M159.33,237.35 L159.52,237.35 L159.52,232.34 L159.33,232.34 L159.33,237.35 M167.139,237.35 L167.33,237.35 L167.33,232.34 L167.139,232.34 L167.139,237.35"/>
   <path d="M159.584,237.794 L159.709,237.794 L159.709,237.54 L159.584,237.54 L159.584,237.794"/>
   <path d="M159.33,237.54 L167.33,237.54 L167.33,237.35 L159.33,237.35 L159.33,237.54"/>
   <path d="M159.52,232.531 L167.139,232.531 L167.139,232.34 L159.52,232.34 L159.52,232.531"/>
  </g>
  <g class="cut IfcFurnishingElement" id="product-3ab8ee1d-07ad-41b9-8f24-a55884e7c130-body" ifc:guid="0wkEuT1wr1kOyafLY4vy4m" ifc:name="M_Tall Cabinet-Single Door(2):800 mm:800 mm:157983">
   <path d="M167.36,182.651 L167.17,182.651 L167.17,187.66 L167.36,187.66 L167.36,182.651 M159.551,182.651 L159.36,182.651 L159.36,187.66 L159.551,187.66 L159.551,182.651"/>
   <path d="M159.739,182.206 L159.614,182.206 L159.614,182.46 L159.739,182.46 L159.739,182.206"/>
   <path d="M167.36,182.46 L159.36,182.46 L159.36,182.651 L167.36,182.651 L167.36,182.46"/>
   <path d="M167.17,187.47 L159.551,187.47 L159.551,187.66 L167.17,187.66 L167.17,187.47"/>
  </g>
  <g class="cut IfcFurnishingElement" id="product-3ab8ee1d-07ad-41b9-8f24-a55884e7c10f-body" ifc:guid="0wkEuT1wr1kOyafLY4vy4F" ifc:name="M_Tall Cabinet-Single Door(2):800 mm:800 mm:157984">
   <path d="M159.36,182.651 L159.17,182.651 L159.17,187.66 L159.36,187.66 L159.36,182.651 M151.551,182.651 L151.36,182.651 L151.36,187.66 L151.551,187.66 L151.551,182.651"/>
   <path d="M159.106,182.206 L158.981,182.206 L158.981,182.46 L159.106,182.46 L159.106,182.206"/>
   <path d="M159.36,182.46 L151.36,182.46 L151.36,182.651 L159.36,182.651 L159.36,182.46"/>
   <path d="M159.17,187.47 L151.551,187.47 L151.551,187.66 L159.17,187.66 L159.17,187.47"/>
  </g>
  <g class="cut IfcFurnishingElement" id="product-3ab8ee1d-07ad-41b9-8f24-a55884e7c1af-body" ifc:guid="0wkEuT1wr1kOyafLY4vy6l" ifc:name="M_Tall Cabinet-Single Door(2):800 mm:800 mm:158080">
   <path d="M145.67,182.651 L145.48,182.651 L145.479,187.66 L145.67,187.66 L145.67,182.651 M137.861,182.651 L137.67,182.651 L137.67,187.66 L137.861,187.66 L137.861,182.651"/>
   <path d="M138.049,182.206 L137.924,182.206 L137.924,182.46 L138.049,182.46 L138.049,182.206"/>
   <path d="M145.67,182.46 L137.67,182.46 L137.67,182.651 L145.67,182.651 L145.67,182.46"/>
   <path d="M145.479,187.47 L137.861,187.47 L137.861,187.66 L145.479,187.66 L145.479,187.47"/>
  </g>
  <g class="cut IfcFurnishingElement" id="product-3ab8ee1d-07ad-41b9-8f24-a55884e7c1ae-body" ifc:guid="0wkEuT1wr1kOyafLY4vy6k" ifc:name="M_Tall Cabinet-Single Door(2):800 mm:800 mm:158081">
   <path d="M137.67,182.651 L137.479,182.651 L137.479,187.66 L137.67,187.66 L137.67,182.651 M129.86,182.651 L129.67,182.651 L129.67,187.66 L129.86,187.66 L129.86,182.651"/>
   <path d="M137.416,182.206 L137.291,182.206 L137.291,182.46 L137.416,182.46 L137.416,182.206"/>
   <path d="M137.67,182.46 L129.67,182.46 L129.67,182.651 L137.67,182.651 L137.67,182.46"/>
   <path d="M137.479,187.47 L129.86,187.47 L129.86,187.66 L137.479,187.66 L137.479,187.47"/>
  </g>
  <g class="cut IfcDoor" id="product-982f59b0-f2e1-485f-8ce1-c9f6117b8873-body" ifc:guid="2OBrcmyk58NupXoVOHUuXp" ifc:name="M_Single-Flush:0864 x 2032mm:0864 x 2032mm:159734">
   <path d="M128.08,237.99 L128.08,237.74 L127.32,237.74 L127.32,237.99 L128.08,237.99 M118.68,237.99 L118.68,237.74 L117.92,237.74 L117.92,237.99 L118.68,237.99"/>
   <path d="M128.08,236.5 L128.08,236.25 L127.32,236.25 L127.32,236.5 L128.08,236.5 M118.68,236.5 L118.68,236.25 L117.92,236.25 L117.92,236.5 L118.68,236.5"/>
   <path d="M127.32,237.23 L118.68,237.23 L118.68,237.74 L127.32,237.74 L127.32,237.23"/>
  </g>
  <g class="cut IfcDoor" id="product-982f59b0-f2e1-485f-8ce1-c9f6117b97df-body" ifc:guid="2OBrcmyk58NupXoVOHUvVV" ifc:name="M_Single-Flush:0864 x 2032mm:0864 x 2032mm:159834">
   <path d="M168.52,182.01 L168.52,182.26 L169.28,182.26 L169.28,182.01 L168.52,182.01 M177.92,182.01 L177.92,182.26 L178.68,182.26 L178.68,182.01 L177.92,182.01"/>
   <path d="M168.52,183.5 L168.52,183.75 L169.28,183.75 L169.28,183.5 L168.52,183.5 M177.92,183.5 L177.92,183.75 L178.68,183.75 L178.68,183.5 L177.92,183.5"/>
   <path d="M169.28,182.77 L177.92,182.77 L177.92,182.26 L169.28,182.26 L169.28,182.77"/>
  </g>
  <g class="cut IfcWallStandardCase" id="product-27ece05c-f06c-4dd2-9ccd-945e52597b0a-body" ifc:guid="0dxE1Sy6nDqfpDb5vIMNiA" ifc:name="Basic Wall:Interior - Furring (152 mm Stud):193247">
   <path d="M152.2,230.5 L152.2,188.9 L150.68,188.9 L150.68,230.5 L152.2,230.5"/>
  </g>
  <g class="cut IfcWallStandardCase" id="product-27ece05c-f06c-4dd2-9ccd-945e52597fa3-body" ifc:guid="0dxE1Sy6nDqfpDb5vIMN_Z" ifc:name="Basic Wall:Interior - Furring (152 mm Stud):194166">
   <path d="M144.8,189.5 L144.8,231.1 L146.32,231.1 L146.32,189.5 L144.8,189.5"/>
  </g>
  <g class="cut IfcWallStandardCase" id="product-64b7f7d3-8cfc-4277-ba33-8de2e6533e77-body" ifc:guid="1aj$VJZFn2TxepZUBcKpvt" ifc:name="Basic Wall:Interior - Partition (92mm Stud):203347">
   <path d="M137.38,221.941 L137.38,220.701 L144.8,220.701 L144.8,221.941 L137.38,221.941 M129.76,220.701 L129.76,221.941 L129.56,221.941 L129.56,220.701 L129.76,220.701"/>
  </g>
  <g class="cut IfcDoor" id="product-64b7f7d3-8cfc-4277-ba33-8de2e6533fec-body" ifc:guid="1aj$VJZFn2TxepZUBcKp$i" ifc:name="M_Single-Flush:0762 x 2032mm:0762 x 2032mm:203720">
   <path d="M129,221.941 L129,222.191 L129.76,222.191 L129.76,221.941 L129,221.941 M137.38,221.941 L137.38,222.191 L138.14,222.191 L138.14,221.941 L137.38,221.941"/>
   <path d="M129,220.451 L129,220.701 L129.76,220.701 L129.76,220.451 L129,220.451 M137.38,220.451 L137.38,220.701 L138.14,220.701 L138.14,220.451 L137.38,220.451"/>
   <path d="M129.76,221.431 L129.76,221.941 L137.38,221.941 L137.38,221.431 L129.76,221.431"/>
  </g>
  <g class="cut IfcDoor" id="product-64b7f7d3-8cfc-4277-ba33-8de2e6533926-body" ifc:guid="1aj$VJZFn2TxepZUBcKpac" ifc:name="M_Single-Flush:0762 x 2032mm:0762 x 2032mm:204034">
   <path d="M168.194,198.214 L168.194,197.964 L167.434,197.964 L167.434,198.214 L168.194,198.214 M159.814,198.214 L159.814,197.964 L159.054,197.964 L159.054,198.214 L159.814,198.214"/>
   <path d="M168.194,199.704 L168.194,199.454 L167.434,199.454 L167.434,199.704 L168.194,199.704 M159.814,199.704 L159.814,199.454 L159.054,199.454 L159.054,199.704 L159.814,199.704"/>
   <path d="M167.434,198.724 L167.434,198.214 L159.814,198.214 L159.814,198.724 L167.434,198.724"/>
  </g>
  <g class="cut IfcWallStandardCase" id="product-64b7f7d3-8cfc-4277-ba33-8de2e65338fa-body" ifc:guid="1aj$VJZFn2TxepZUBcKpZw" ifc:name="Basic Wall:Interior - Partition (92mm Stud):203998">
   <path d="M159.814,198.214 L159.814,199.454 L152.2,199.454 L152.2,198.214 L159.814,198.214 M167.434,199.454 L167.434,198.214 L167.44,198.214 L167.44,199.454 L167.434,199.454"/>
  </g>
  <g class="projection">
   <path d="M187.83,234.25 L178.686,234.25"/>
   <path d="M187.83,231.75 L178.686,231.75"/>
   <path d="M187.83,229.25 L178.686,229.25"/>
   <path d="M187.83,226.75 L178.686,226.75"/>
   <path d="M187.83,224.25 L178.686,224.25"/>
   <path d="M187.83,221.75 L178.686,221.75"/>
   <path d="M187.83,219.25 L178.686,219.25"/>
   <path d="M187.83,216.75 L178.686,216.75"/>
   <path d="M187.83,214.25 L178.686,214.25"/>
   <path d="M187.83,211.75 L178.686,211.75"/>
   <path d="M187.83,209.25 L178.686,209.25"/>
   <path d="M187.83,206.75 L178.686,206.75"/>
   <path d="M187.83,204.25 L178.686,204.25"/>
   <path d="M118.314,185.75 L109.17,185.75"/>
   <path d="M118.314,188.25 L109.17,188.25"/>
   <path d="M118.314,190.75 L109.17,190.75"/>
   <path d="M118.314,193.25 L109.17,193.25"/>
   <path d="M118.314,195.75 L109.17,195.75"/>
   <path d="M118.314,198.25 L109.17,198.25"/>
   <path d="M118.314,200.75 L109.17,200.75"/>
   <path d="M118.314,203.25 L109.17,203.25"/>
   <path d="M118.314,205.75 L109.17,205.75"/>
   <path d="M118.314,208.25 L109.17,208.25"/>
   <path d="M118.314,210.75 L109.17,210.75"/>
   <path d="M118.314,213.25 L109.17,213.25"/>
   <path d="M118.314,215.75 L109.17,215.75"/>
   <path d="M145.75,125.17 L145.75,294.83"/>
   <path d="M151.25,125.17 L151.25,294.83"/>
   <path d="M145.75,125.17 L151.25,125.17"/>
   <path d="M145.75,294.83 L151.25,294.83"/>
   <path d="M188.33,125.17 L192.5,121"/>
   <path d="M192.5,121 L104.5,121"/>
   <path d="M104.5,121 L108.67,125.17"/>
   <path d="M188.33,125.17 L108.67,125.17"/>
   <path d="M188.33,294.83 L192.5,299"/>
   <path d="M192.5,299 L192.5,121"/>
   <path d="M192.5,121 L188.33,125.17"/>
   <path d="M188.33,294.83 L188.33,125.17"/>
   <path d="M108.67,294.83 L104.5,299"/>
   <path d="M104.5,299 L192.5,299"/>
   <path d="M192.5,299 L188.33,294.83"/>
   <path d="M108.67,294.83 L188.33,294.83"/>
   <path d="M108.67,125.17 L104.5,121"/>
   <path d="M104.5,121 L104.5,299"/>
   <path d="M104.5,299 L108.67,294.83"/>
   <path d="M108.67,125.17 L108.67,294.83"/>
   <path d="M108.67,183.5 L108.67,182.26"/>
   <path d="M129.56,183.5 L129.56,182.26"/>
   <path d="M108.67,183.5 L129.56,183.5"/>
   <path d="M108.67,182.26 L129.56,182.26"/>
   <path d="M128.32,183.5 L129.56,183.5"/>
   <path d="M128.32,237.74 L129.56,237.74"/>
   <path d="M128.32,183.5 L128.32,237.74"/>
   <path d="M129.56,183.5 L129.56,237.74"/>
   <path d="M128.32,236.5 L128.32,237.74"/>
   <path d="M108.67,236.5 L108.67,237.74"/>
   <path d="M128.32,236.5 L108.67,236.5"/>
   <path d="M128.32,237.74 L108.67,237.74"/>
   <path d="M145.75,187.66 L129.56,187.66"/>
   <path d="M129.56,187.66 L129.56,189.5"/>
   <path d="M129.56,189.5 L145.75,189.5"/>
   <path d="M145.75,189.5 L145.75,187.66"/>
   <path d="M129.56,232.34 L145.75,232.34"/>
   <path d="M145.75,232.34 L145.75,231.1"/>
   <path d="M145.75,231.1 L129.56,231.1"/>
   <path d="M129.56,231.1 L129.56,232.34"/>
   <path d="M188.33,236.5 L188.33,237.74"/>
   <path d="M167.44,236.5 L167.44,237.74"/>
   <path d="M188.33,236.5 L167.44,236.5"/>
   <path d="M188.33,237.74 L167.44,237.74"/>
   <path d="M168.68,236.5 L167.44,236.5"/>
   <path d="M168.68,182.26 L167.44,182.26"/>
   <path d="M168.68,236.5 L168.68,182.26"/>
   <path d="M167.44,236.5 L167.44,182.26"/>
   <path d="M168.68,183.5 L168.68,182.26"/>
   <path d="M188.33,183.5 L188.33,182.26"/>
   <path d="M168.68,183.5 L188.33,183.5"/>
   <path d="M168.68,182.26 L188.33,182.26"/>
   <path d="M167.44,187.66 L151.25,187.66"/>
   <path d="M151.25,187.66 L151.25,188.9"/>
   <path d="M151.25,188.9 L167.44,188.9"/>
   <path d="M167.44,188.9 L167.44,187.66"/>
   <path d="M151.25,232.34 L167.44,232.34"/>
   <path d="M167.44,232.34 L167.44,230.5"/>
   <path d="M167.44,230.5 L151.25,230.5"/>
   <path d="M151.25,230.5 L151.25,232.34"/>
   <path d="M192.5,275.77 L192.75,275.77"/>
   <path d="M192.5,289.79 L192.75,289.79"/>
   <path d="M192.75,275.77 L192.75,289.79"/>
   <path d="M104.5,144.23 L104.25,144.23"/>
   <path d="M104.5,130.21 L104.25,130.21"/>
   <path d="M104.25,144.23 L104.25,130.21"/>
   <path d="M118.573,182.26 L118.573,182.01"/>
   <path d="M128.733,182.26 L128.733,182.01"/>
   <path d="M118.573,182.01 L128.733,182.01"/>
   <path d="M118.573,183.75 L118.573,183.5"/>
   <path d="M118.573,183.75 L128.32,183.75"/>
   <path d="M178.473,237.74 L178.473,237.99"/>
   <path d="M168.313,237.74 L168.313,237.99"/>
   <path d="M178.473,237.99 L168.313,237.99"/>
   <path d="M178.473,236.25 L178.473,236.5"/>
   <path d="M178.473,236.25 L168.68,236.25"/>
   <path d="M129.56,210.301 L129.81,210.301"/>
   <path d="M129.56,220.461 L129.81,220.461"/>
   <path d="M129.81,210.301 L129.81,220.461"/>
   <path d="M128.07,210.301 L128.32,210.301"/>
   <path d="M128.07,220.461 L128.32,220.461"/>
   <path d="M128.07,210.301 L128.07,220.461"/>
   <path d="M167.44,209.854 L167.19,209.854"/>
   <path d="M167.44,199.694 L167.19,199.694"/>
   <path d="M167.19,209.854 L167.19,199.694"/>
   <path d="M168.93,209.854 L168.68,209.854"/>
   <path d="M168.93,199.694 L168.68,199.694"/>
   <path d="M168.93,209.854 L168.93,199.694"/>
   <path d="M187.83,202.428 L187.88,202.428"/>
   <path d="M188.28,202.428 L188.33,202.428"/>
   <path d="M187.83,201.75 L187.83,202.428"/>
   <path d="M187.83,202.428 L187.83,236.5"/>
   <path d="M178.186,201.75 L178.236,201.75"/>
   <path d="M178.636,201.75 L178.686,201.75"/>
   <path d="M178.186,202.428 L178.236,202.428"/>
   <path d="M178.636,202.428 L178.686,202.428"/>
   <path d="M178.186,201.75 L178.186,202.428"/>
   <path d="M178.686,201.75 L178.686,202.428"/>
   <path d="M178.686,202.428 L178.686,236.5"/>
   <path d="M188.28,201.75 L188.273,201.75"/>
   <path d="M188.273,201.75 L188.221,201.75"/>
   <path d="M188.221,201.75 L188.132,201.75"/>
   <path d="M188.132,201.75 L188.028,201.75"/>
   <path d="M188.028,201.75 L187.939,201.75"/>
   <path d="M187.939,201.75 L187.887,201.75"/>
   <path d="M187.88,201.75 L187.887,201.75"/>
   <path d="M187.887,201.75 L187.939,201.75"/>
   <path d="M187.939,201.75 L188.028,201.75"/>
   <path d="M188.028,201.75 L188.132,201.75"/>
   <path d="M188.132,201.75 L188.221,201.75"/>
   <path d="M188.221,201.75 L188.273,201.75"/>
   <path d="M187.88,236.5 L187.88,201.75"/>
   <path d="M188.028,201.75 L188.08,201.75"/>
   <path d="M188.08,201.75 L188.08,236.5"/>
   <path d="M188.28,236.5 L188.28,201.75"/>
   <path d="M188.132,201.75 L188.08,201.75"/>
   <path d="M188.273,236.5 L188.273,201.75"/>
   <path d="M188.273,201.75 L188.253,201.75"/>
   <path d="M188.253,201.75 L188.253,236.5"/>
   <path d="M188.18,236.5 L188.18,201.75"/>
   <path d="M188.221,236.5 L188.221,201.75"/>
   <path d="M188.221,201.75 L188.18,201.75"/>
   <path d="M188.221,201.75 L188.253,201.75"/>
   <path d="M188.132,201.75 L188.18,201.75"/>
   <path d="M188.132,236.5 L188.132,201.75"/>
   <path d="M188.08,236.5 L188.08,201.75"/>
   <path d="M188.132,201.75 L188.08,201.75"/>
   <path d="M188.028,236.5 L188.028,201.75"/>
   <path d="M188.028,201.75 L188.08,201.75"/>
   <path d="M188.028,201.75 L187.98,201.75"/>
   <path d="M187.98,201.75 L187.98,236.5"/>
   <path d="M187.939,236.5 L187.939,201.75"/>
   <path d="M187.907,201.75 L187.907,236.5"/>
   <path d="M187.939,201.75 L187.907,201.75"/>
   <path d="M187.939,201.75 L187.98,201.75"/>
   <path d="M187.887,236.5 L187.887,201.75"/>
   <path d="M187.887,201.75 L187.907,201.75"/>
   <path d="M178.629,201.699 L178.636,201.682"/>
   <path d="M178.629,236.5 L178.629,201.699"/>
   <path d="M178.636,236.5 L178.636,201.682"/>
   <path d="M178.629,201.699 L178.609,201.716"/>
   <path d="M178.609,201.716 L178.609,236.5"/>
   <path d="M178.536,236.5 L178.536,201.741"/>
   <path d="M178.577,201.73 L178.536,201.741"/>
   <path d="M178.577,236.5 L178.577,201.73"/>
   <path d="M178.609,201.716 L178.577,201.73"/>
   <path d="M178.488,236.5 L178.488,201.748"/>
   <path d="M178.536,201.741 L178.488,201.748"/>
   <path d="M178.436,236.25 L178.436,201.75"/>
   <path d="M178.488,201.748 L178.436,201.75"/>
   <path d="M178.436,201.75 L178.384,201.748"/>
   <path d="M178.384,236.25 L178.384,201.748"/>
   <path d="M178.384,201.748 L178.336,201.741"/>
   <path d="M178.336,201.741 L178.336,236.25"/>
   <path d="M178.295,236.25 L178.295,201.73"/>
   <path d="M178.263,201.716 L178.263,236.25"/>
   <path d="M178.295,201.73 L178.263,201.716"/>
   <path d="M178.336,201.741 L178.295,201.73"/>
   <path d="M178.263,201.716 L178.243,201.699"/>
   <path d="M178.243,236.25 L178.243,201.699"/>
   <path d="M178.236,236.25 L178.236,201.682"/>
   <path d="M178.243,201.699 L178.236,201.682"/>
   <path d="M177.736,201.2 L178.636,201.2"/>
   <path d="M177.736,201.2 L177.743,201.207"/>
   <path d="M177.743,201.207 L178.629,201.207"/>
   <path d="M178.629,201.207 L178.636,201.2"/>
   <path d="M177.743,201.207 L177.763,201.227"/>
   <path d="M177.763,201.227 L178.609,201.227"/>
   <path d="M178.629,201.207 L178.609,201.227"/>
   <path d="M177.795,201.259 L178.577,201.259"/>
   <path d="M177.795,201.259 L177.836,201.3"/>
   <path d="M177.836,201.3 L178.536,201.3"/>
   <path d="M178.536,201.3 L178.577,201.259"/>
   <path d="M177.763,201.227 L177.795,201.259"/>
   <path d="M178.609,201.227 L178.577,201.259"/>
   <path d="M177.836,201.3 L177.884,201.348"/>
   <path d="M177.884,201.348 L178.488,201.348"/>
   <path d="M178.536,201.3 L178.488,201.348"/>
   <path d="M178.436,201.4 L177.936,201.4"/>
   <path d="M178.488,201.348 L178.436,201.4"/>
   <path d="M177.884,201.348 L177.936,201.4"/>
   <path d="M177.988,201.452 L178.384,201.452"/>
   <path d="M177.988,201.452 L178.036,201.5"/>
   <path d="M178.036,201.5 L178.336,201.5"/>
   <path d="M178.336,201.5 L178.384,201.452"/>
   <path d="M177.936,201.4 L177.988,201.452"/>
   <path d="M178.436,201.4 L178.384,201.452"/>
   <path d="M178.263,201.573 L178.109,201.573"/>
   <path d="M178.263,201.573 L178.243,201.593"/>
   <path d="M178.243,201.593 L178.129,201.593"/>
   <path d="M178.129,201.593 L178.109,201.573"/>
   <path d="M178.295,201.541 L178.077,201.541"/>
   <path d="M178.263,201.573 L178.295,201.541"/>
   <path d="M178.109,201.573 L178.077,201.541"/>
   <path d="M178.036,201.5 L178.077,201.541"/>
   <path d="M178.336,201.5 L178.295,201.541"/>
   <path d="M178.136,201.6 L178.236,201.6"/>
   <path d="M178.129,201.593 L178.136,201.6"/>
   <path d="M178.243,201.593 L178.236,201.6"/>
   <path d="M177.736,201.2 L177.736,236.25"/>
   <path d="M177.743,201.207 L177.743,236.25"/>
   <path d="M177.763,201.227 L177.763,236.25"/>
   <path d="M177.795,201.259 L177.795,236.25"/>
   <path d="M177.836,201.3 L177.836,236.25"/>
   <path d="M177.884,201.348 L177.884,236.25"/>
   <path d="M177.936,201.4 L177.936,236.25"/>
   <path d="M177.988,201.452 L177.988,236.25"/>
   <path d="M178.036,201.5 L178.036,236.25"/>
   <path d="M178.077,201.541 L178.077,236.25"/>
   <path d="M178.109,201.573 L178.109,236.25"/>
   <path d="M178.129,201.593 L178.129,236.25"/>
   <path d="M178.136,201.6 L178.136,236.25"/>
   <path d="M178.636,201.682 L178.636,201.2"/>
   <path d="M178.629,201.699 L178.629,201.207"/>
   <path d="M178.609,201.716 L178.609,201.227"/>
   <path d="M178.577,201.73 L178.577,201.259"/>
   <path d="M178.536,201.741 L178.536,201.3"/>
   <path d="M178.488,201.748 L178.488,201.348"/>
   <path d="M178.436,201.75 L178.436,201.4"/>
   <path d="M178.384,201.748 L178.384,201.452"/>
   <path d="M178.336,201.741 L178.336,201.5"/>
   <path d="M178.263,201.716 L178.263,201.573"/>
   <path d="M178.243,201.699 L178.243,201.593"/>
   <path d="M178.295,201.73 L178.295,201.541"/>
   <path d="M178.236,201.682 L178.236,201.6"/>
   <path d="M129.64,237.35 L137.64,237.35"/>
   <path d="M129.64,237.35 L129.64,232.34"/>
   <path d="M137.64,237.35 L137.64,232.34"/>
   <path d="M137.386,237.794 L137.261,237.794"/>
   <path d="M137.261,237.794 L137.261,237.54"/>
   <path d="M137.386,237.794 L137.386,237.54"/>
   <path d="M137.64,237.54 L129.64,237.54"/>
   <path d="M129.64,237.54 L129.64,237.35"/>
   <path d="M137.64,237.35 L129.64,237.35"/>
   <path d="M137.64,237.54 L137.64,237.35"/>
   <path d="M145.64,237.35 L145.64,232.34"/>
   <path d="M137.64,237.35 L145.64,237.35"/>
   <path d="M137.64,237.35 L137.64,232.34"/>
   <path d="M138.019,237.794 L138.019,237.54"/>
   <path d="M137.894,237.794 L138.019,237.794"/>
   <path d="M137.894,237.794 L137.894,237.54"/>
   <path d="M145.64,237.54 L145.64,237.35"/>
   <path d="M137.64,237.54 L145.64,237.54"/>
   <path d="M137.64,237.54 L137.64,237.35"/>
   <path d="M137.64,237.35 L145.64,237.35"/>
   <path d="M151.33,237.35 L159.33,237.35"/>
   <path d="M151.33,237.35 L151.33,232.34"/>
   <path d="M159.33,237.35 L159.33,232.34"/>
   <path d="M159.076,237.794 L158.951,237.794"/>
   <path d="M158.951,237.794 L158.951,237.54"/>
   <path d="M159.076,237.794 L159.076,237.54"/>
   <path d="M159.33,237.54 L151.33,237.54"/>
   <path d="M151.33,237.54 L151.33,237.35"/>
   <path d="M159.33,237.35 L151.33,237.35"/>
   <path d="M159.33,237.54 L159.33,237.35"/>
   <path d="M167.33,237.35 L167.33,232.34"/>
   <path d="M159.33,237.35 L167.33,237.35"/>
   <path d="M159.33,237.35 L159.33,232.34"/>
   <path d="M159.709,237.794 L159.709,237.54"/>
   <path d="M159.584,237.794 L159.709,237.794"/>
   <path d="M159.584,237.794 L159.584,237.54"/>
   <path d="M167.33,237.54 L167.33,237.35"/>
   <path d="M159.33,237.54 L167.33,237.54"/>
   <path d="M159.33,237.54 L159.33,237.35"/>
   <path d="M159.33,237.35 L167.33,237.35"/>
   <path d="M167.36,182.651 L159.36,182.651"/>
   <path d="M167.36,182.651 L167.36,187.66"/>
   <path d="M159.36,182.651 L159.36,187.66"/>
   <path d="M159.614,182.206 L159.739,182.206"/>
   <path d="M159.739,182.206 L159.739,182.46"/>
   <path d="M159.614,182.206 L159.614,182.46"/>
   <path d="M159.36,182.46 L167.36,182.46"/>
   <path d="M167.36,182.46 L167.36,182.651"/>
   <path d="M159.36,182.651 L167.36,182.651"/>
   <path d="M159.36,182.46 L159.36,182.651"/>
   <path d="M151.36,182.651 L151.36,187.66"/>
   <path d="M159.36,182.651 L151.36,182.651"/>
   <path d="M159.36,182.651 L159.36,187.66"/>
   <path d="M158.981,182.206 L158.981,182.46"/>
   <path d="M159.106,182.206 L158.981,182.206"/>
   <path d="M159.106,182.206 L159.106,182.46"/>
   <path d="M151.36,182.46 L151.36,182.651"/>
   <path d="M159.36,182.46 L151.36,182.46"/>
   <path d="M159.36,182.46 L159.36,182.651"/>
   <path d="M159.36,182.651 L151.36,182.651"/>
   <path d="M145.67,182.651 L137.67,182.651"/>
   <path d="M145.67,182.651 L145.67,187.66"/>
   <path d="M137.67,182.651 L137.67,187.66"/>
   <path d="M137.924,182.206 L138.049,182.206"/>
   <path d="M138.049,182.206 L138.049,182.46"/>
   <path d="M137.924,182.206 L137.924,182.46"/>
   <path d="M137.67,182.46 L145.67,182.46"/>
   <path d="M145.67,182.46 L145.67,182.651"/>
   <path d="M137.67,182.651 L145.67,182.651"/>
   <path d="M137.67,182.46 L137.67,182.651"/>
   <path d="M129.67,182.651 L129.67,187.66"/>
   <path d="M137.67,182.651 L129.67,182.651"/>
   <path d="M137.67,182.651 L137.67,187.66"/>
   <path d="M137.291,182.206 L137.291,182.46"/>
   <path d="M137.416,182.206 L137.291,182.206"/>
   <path d="M137.416,182.206 L137.416,182.46"/>
   <path d="M129.67,182.46 L129.67,182.651"/>
   <path d="M137.67,182.46 L129.67,182.46"/>
   <path d="M137.67,182.46 L137.67,182.651"/>
   <path d="M137.67,182.651 L129.67,182.651"/>
   <path d="M117.92,237.99 L117.92,237.74"/>
   <path d="M128.08,237.99 L128.08,237.74"/>
   <path d="M117.92,237.99 L128.08,237.99"/>
   <path d="M117.92,236.5 L117.92,236.25"/>
   <path d="M128.08,236.5 L128.08,236.25"/>
   <path d="M117.92,236.25 L128.08,236.25"/>
   <path d="M178.68,182.01 L178.68,182.26"/>
   <path d="M168.52,182.01 L168.52,182.26"/>
   <path d="M178.68,182.01 L168.52,182.01"/>
   <path d="M178.68,183.5 L178.68,183.75"/>
   <path d="M178.68,183.75 L168.68,183.75"/>
   <path d="M114.354,168.136 L110.286,168.136"/>
   <path d="M110.286,168.136 L110.286,172.204"/>
   <path d="M110.286,172.204 L114.354,172.204"/>
   <path d="M114.354,172.204 L114.354,168.136"/>
   <path d="M115.37,167.12 L109.27,167.12"/>
   <path d="M109.27,167.12 L109.27,173.22"/>
   <path d="M109.27,173.22 L115.37,173.22"/>
   <path d="M115.37,173.22 L115.37,167.12"/>
   <path d="M114.354,168.136 L114.354,172.204"/>
   <path d="M114.354,172.204 L110.286,172.204"/>
   <path d="M110.286,172.204 L110.286,168.136"/>
   <path d="M110.286,168.136 L114.354,168.136"/>
   <path d="M159.474,127.136 L155.406,127.136"/>
   <path d="M155.406,127.136 L155.406,131.204"/>
   <path d="M155.406,131.204 L159.474,131.204"/>
   <path d="M159.474,131.204 L159.474,127.136"/>
   <path d="M160.49,126.12 L154.39,126.12"/>
   <path d="M154.39,126.12 L154.39,132.22"/>
   <path d="M154.39,132.22 L160.49,132.22"/>
   <path d="M160.49,132.22 L160.49,126.12"/>
   <path d="M159.474,127.136 L159.474,131.204"/>
   <path d="M159.474,131.204 L155.406,131.204"/>
   <path d="M155.406,131.204 L155.406,127.136"/>
   <path d="M155.406,127.136 L159.474,127.136"/>
   <path d="M143.834,288.706 L139.766,288.706"/>
   <path d="M139.766,288.706 L139.766,292.774"/>
   <path d="M139.766,292.774 L143.834,292.774"/>
   <path d="M143.834,292.774 L143.834,288.706"/>
   <path d="M144.85,287.69 L138.75,287.69"/>
   <path d="M138.75,287.69 L138.75,293.79"/>
   <path d="M138.75,293.79 L144.85,293.79"/>
   <path d="M144.85,293.79 L144.85,287.69"/>
   <path d="M143.834,288.706 L143.834,292.774"/>
   <path d="M143.834,292.774 L139.766,292.774"/>
   <path d="M139.766,292.774 L139.766,288.706"/>
   <path d="M139.766,288.706 L143.834,288.706"/>
   <path d="M186.764,247.906 L182.696,247.906"/>
   <path d="M182.696,247.906 L182.696,251.974"/>
   <path d="M182.696,251.974 L186.764,251.974"/>
   <path d="M186.764,251.974 L186.764,247.906"/>
   <path d="M187.78,246.89 L181.68,246.89"/>
   <path d="M181.68,246.89 L181.68,252.99"/>
   <path d="M181.68,252.99 L187.78,252.99"/>
   <path d="M187.78,252.99 L187.78,246.89"/>
   <path d="M186.764,247.906 L186.764,251.974"/>
   <path d="M186.764,251.974 L182.696,251.974"/>
   <path d="M182.696,251.974 L182.696,247.906"/>
   <path d="M182.696,247.906 L186.764,247.906"/>
   <path d="M112.486,166.083 L112.452,166.083"/>
   <path d="M112.452,166.083 L112.359,166.083"/>
   <path d="M112.359,166.083 L112.232,166.083"/>
   <path d="M112.232,166.083 L109.692,166.083"/>
   <path d="M109.692,166.083 L109.565,166.083"/>
   <path d="M109.565,166.083 L109.472,166.083"/>
   <path d="M109.472,166.083 L109.438,166.083"/>
   <path d="M109.438,152.357 L109.472,152.357"/>
   <path d="M109.472,152.357 L109.565,152.357"/>
   <path d="M109.565,152.357 L109.692,152.357"/>
   <path d="M109.692,152.357 L112.232,152.357"/>
   <path d="M112.232,152.357 L112.359,152.357"/>
   <path d="M112.359,152.357 L112.452,152.357"/>
   <path d="M112.452,152.357 L112.486,152.357"/>
   <path d="M112.486,166.083 L112.486,152.357"/>
   <path d="M112.486,166.083 L112.486,152.357"/>
   <path d="M112.486,152.357 L112.452,152.357"/>
   <path d="M112.452,166.083 L112.486,166.083"/>
   <path d="M112.452,166.083 L112.452,152.357"/>
   <path d="M112.359,152.357 L112.232,152.357"/>
   <path d="M112.359,166.083 L112.359,152.357"/>
   <path d="M112.232,166.083 L112.359,166.083"/>
   <path d="M112.232,166.083 L112.232,152.357"/>
   <path d="M112.359,166.083 L112.452,166.083"/>
   <path d="M112.452,152.357 L112.359,152.357"/>
   <path d="M109.692,166.083 L109.692,152.357"/>
   <path d="M109.565,166.083 L109.565,152.357"/>
   <path d="M109.692,152.357 L109.565,152.357"/>
   <path d="M109.565,166.083 L109.692,166.083"/>
   <path d="M109.472,152.357 L109.438,152.357"/>
   <path d="M109.472,166.083 L109.472,152.357"/>
   <path d="M109.438,166.083 L109.472,166.083"/>
   <path d="M109.438,166.083 L109.438,152.357"/>
   <path d="M109.472,166.083 L109.565,166.083"/>
   <path d="M109.565,152.357 L109.472,152.357"/>
   <path d="M108.93,166.591 L108.964,166.718"/>
   <path d="M108.93,166.591 L108.93,151.849"/>
   <path d="M108.93,151.849 L108.964,151.722"/>
   <path d="M108.964,151.722 L109.057,151.629"/>
   <path d="M109.057,151.629 L109.184,151.595"/>
   <path d="M109.184,151.595 L128.746,151.595"/>
   <path d="M128.746,151.595 L128.873,151.629"/>
   <path d="M128.873,151.629 L128.966,151.722"/>
   <path d="M128.966,151.722 L129,151.849"/>
   <path d="M129,151.849 L129,166.591"/>
   <path d="M129,166.591 L128.966,166.718"/>
   <path d="M128.966,166.718 L128.873,166.811"/>
   <path d="M128.873,166.811 L128.746,166.845"/>
   <path d="M128.746,166.845 L109.184,166.845"/>
   <path d="M109.184,166.845 L109.057,166.811"/>
   <path d="M109.057,166.811 L108.964,166.718"/>
   <path d="M108.964,166.718 L108.93,166.591"/>
   <path d="M109.057,166.811 L108.964,166.718"/>
   <path d="M109.184,166.845 L109.057,166.811"/>
   <path d="M128.873,166.811 L128.746,166.845"/>
   <path d="M128.966,166.718 L128.873,166.811"/>
   <path d="M129,166.591 L128.966,166.718"/>
   <path d="M128.966,151.722 L129,151.849"/>
   <path d="M128.873,151.629 L128.966,151.722"/>
   <path d="M128.746,151.595 L128.873,151.629"/>
   <path d="M109.057,151.629 L109.184,151.595"/>
   <path d="M108.964,151.722 L109.057,151.629"/>
   <path d="M108.93,151.849 L108.964,151.722"/>
   <path d="M184.514,254.342 L184.548,254.342"/>
   <path d="M184.548,254.342 L184.641,254.342"/>
   <path d="M184.641,254.342 L184.768,254.342"/>
   <path d="M184.768,254.342 L187.308,254.342"/>
   <path d="M187.308,254.342 L187.435,254.342"/>
   <path d="M187.435,254.342 L187.528,254.342"/>
   <path d="M187.528,254.342 L187.562,254.342"/>
   <path d="M187.562,268.068 L187.528,268.068"/>
   <path d="M187.528,268.068 L187.435,268.068"/>
   <path d="M187.435,268.068 L187.308,268.068"/>
   <path d="M187.308,268.068 L184.768,268.068"/>
   <path d="M184.768,268.068 L184.641,268.068"/>
   <path d="M184.641,268.068 L184.548,268.068"/>
   <path d="M184.548,268.068 L184.514,268.068"/>
   <path d="M184.514,254.342 L184.514,268.068"/>
   <path d="M184.514,254.342 L184.514,268.068"/>
   <path d="M184.514,268.068 L184.548,268.068"/>
   <path d="M184.548,254.342 L184.514,254.342"/>
   <path d="M184.548,254.342 L184.548,268.068"/>
   <path d="M184.641,268.068 L184.768,268.068"/>
   <path d="M184.641,254.342 L184.641,268.068"/>
   <path d="M184.768,254.342 L184.641,254.342"/>
   <path d="M184.768,254.342 L184.768,268.068"/>
   <path d="M184.641,254.342 L184.548,254.342"/>
   <path d="M184.548,268.068 L184.641,268.068"/>
   <path d="M187.308,254.342 L187.308,268.068"/>
   <path d="M187.435,254.342 L187.435,268.068"/>
   <path d="M187.308,268.068 L187.435,268.068"/>
   <path d="M187.435,254.342 L187.308,254.342"/>
   <path d="M187.528,268.068 L187.562,268.068"/>
   <path d="M187.528,254.342 L187.528,268.068"/>
   <path d="M187.562,254.342 L187.528,254.342"/>
   <path d="M187.562,254.342 L187.562,268.068"/>
   <path d="M187.528,254.342 L187.435,254.342"/>
   <path d="M187.435,268.068 L187.528,268.068"/>
   <path d="M188.07,253.834 L188.036,253.707"/>
   <path d="M188.07,253.834 L188.07,268.576"/>
   <path d="M188.07,268.576 L188.036,268.703"/>
   <path d="M188.036,268.703 L187.943,268.796"/>
   <path d="M187.943,268.796 L187.816,268.83"/>
   <path d="M187.816,268.83 L168.254,268.83"/>
   <path d="M168.254,268.83 L168.127,268.796"/>
   <path d="M168.127,268.796 L168.034,268.703"/>
   <path d="M168.034,268.703 L168,268.576"/>
   <path d="M168,268.576 L168,253.834"/>
   <path d="M168,253.834 L168.034,253.707"/>
   <path d="M168.034,253.707 L168.127,253.614"/>
   <path d="M168.127,253.614 L168.254,253.58"/>
   <path d="M168.254,253.58 L187.816,253.58"/>
   <path d="M187.816,253.58 L187.943,253.614"/>
   <path d="M187.943,253.614 L188.036,253.707"/>
   <path d="M188.036,253.707 L188.07,253.834"/>
   <path d="M187.943,253.614 L188.036,253.707"/>
   <path d="M187.816,253.58 L187.943,253.614"/>
   <path d="M168.127,253.614 L168.254,253.58"/>
   <path d="M168.034,253.707 L168.127,253.614"/>
   <path d="M168,253.834 L168.034,253.707"/>
   <path d="M168.034,268.703 L168,268.576"/>
   <path d="M168.127,268.796 L168.034,268.703"/>
   <path d="M168.254,268.83 L168.127,268.796"/>
   <path d="M187.943,268.796 L187.816,268.83"/>
   <path d="M188.036,268.703 L187.943,268.796"/>
   <path d="M188.07,268.576 L188.036,268.703"/>
   <path d="M162.282,128.601 L162.282,128.567"/>
   <path d="M162.282,128.567 L162.282,128.474"/>
   <path d="M162.282,128.474 L162.282,128.347"/>
   <path d="M162.282,128.347 L162.282,125.807"/>
   <path d="M162.282,125.807 L162.282,125.68"/>
   <path d="M162.282,125.68 L162.282,125.587"/>
   <path d="M162.282,125.587 L162.282,125.553"/>
   <path d="M180.568,125.553 L180.568,125.587"/>
   <path d="M180.568,125.587 L180.568,125.68"/>
   <path d="M180.568,125.68 L180.568,125.807"/>
   <path d="M180.568,125.807 L180.568,128.347"/>
   <path d="M180.568,128.347 L180.568,128.474"/>
   <path d="M180.568,128.474 L180.568,128.567"/>
   <path d="M180.568,128.567 L180.568,128.601"/>
   <path d="M162.282,128.601 L180.568,128.601"/>
   <path d="M162.282,128.601 L180.568,128.601"/>
   <path d="M180.568,128.601 L180.568,128.567"/>
   <path d="M162.282,128.567 L162.282,128.601"/>
   <path d="M162.282,128.567 L180.568,128.567"/>
   <path d="M162.282,128.474 L162.282,128.567"/>
   <path d="M180.568,128.567 L180.568,128.474"/>
   <path d="M162.282,128.474 L180.568,128.474"/>
   <path d="M180.568,128.474 L180.568,128.347"/>
   <path d="M162.282,128.347 L162.282,128.474"/>
   <path d="M162.282,128.347 L180.568,128.347"/>
   <path d="M162.282,125.807 L180.568,125.807"/>
   <path d="M162.282,125.68 L180.568,125.68"/>
   <path d="M180.568,125.807 L180.568,125.68"/>
   <path d="M162.282,125.68 L162.282,125.807"/>
   <path d="M162.282,125.587 L162.282,125.68"/>
   <path d="M180.568,125.68 L180.568,125.587"/>
   <path d="M162.282,125.587 L180.568,125.587"/>
   <path d="M180.568,125.587 L180.568,125.553"/>
   <path d="M162.282,125.553 L162.282,125.587"/>
   <path d="M162.282,125.553 L180.568,125.553"/>
   <path d="M181.294,125.17 L181.296,125.172"/>
   <path d="M181.296,125.172 L181.33,125.299"/>
   <path d="M181.33,125.299 L181.33,145.111"/>
   <path d="M181.33,145.111 L181.296,145.238"/>
   <path d="M181.296,145.238 L181.203,145.331"/>
   <path d="M181.203,145.331 L181.076,145.365"/>
   <path d="M181.076,145.365 L161.774,145.365"/>
   <path d="M161.774,145.365 L161.647,145.331"/>
   <path d="M161.647,145.331 L161.554,145.238"/>
   <path d="M161.554,145.238 L161.52,145.111"/>
   <path d="M161.52,145.111 L161.52,125.299"/>
   <path d="M161.52,125.299 L161.554,125.172"/>
   <path d="M161.554,125.172 L161.556,125.17"/>
   <path d="M161.554,125.172 L161.556,125.17"/>
   <path d="M161.52,125.299 L161.554,125.172"/>
   <path d="M161.554,145.238 L161.52,145.111"/>
   <path d="M161.647,145.331 L161.554,145.238"/>
   <path d="M161.774,145.365 L161.647,145.331"/>
   <path d="M181.203,145.331 L181.076,145.365"/>
   <path d="M181.296,145.238 L181.203,145.331"/>
   <path d="M181.33,145.111 L181.296,145.238"/>
   <path d="M181.296,125.172 L181.33,125.299"/>
   <path d="M181.294,125.17 L181.296,125.172"/>
   <path d="M136.718,291.274 L136.718,291.308"/>
   <path d="M136.718,291.308 L136.718,291.401"/>
   <path d="M136.718,291.401 L136.718,291.528"/>
   <path d="M136.718,291.528 L136.718,294.068"/>
   <path d="M136.718,294.068 L136.718,294.195"/>
   <path d="M136.718,294.195 L136.718,294.288"/>
   <path d="M136.718,294.288 L136.718,294.322"/>
   <path d="M118.432,294.322 L118.432,294.288"/>
   <path d="M118.432,294.288 L118.432,294.195"/>
   <path d="M118.432,294.195 L118.432,294.068"/>
   <path d="M118.432,294.068 L118.432,291.528"/>
   <path d="M118.432,291.528 L118.432,291.401"/>
   <path d="M118.432,291.401 L118.432,291.308"/>
   <path d="M118.432,291.308 L118.432,291.274"/>
   <path d="M136.718,291.274 L118.432,291.274"/>
   <path d="M136.718,291.274 L118.432,291.274"/>
   <path d="M118.432,291.274 L118.432,291.308"/>
   <path d="M136.718,291.308 L136.718,291.274"/>
   <path d="M136.718,291.308 L118.432,291.308"/>
   <path d="M136.718,291.401 L136.718,291.308"/>
   <path d="M118.432,291.308 L118.432,291.401"/>
   <path d="M136.718,291.401 L118.432,291.401"/>
   <path d="M118.432,291.401 L118.432,291.528"/>
   <path d="M136.718,291.528 L136.718,291.401"/>
   <path d="M136.718,291.528 L118.432,291.528"/>
   <path d="M136.718,294.068 L118.432,294.068"/>
   <path d="M136.718,294.195 L118.432,294.195"/>
   <path d="M118.432,294.068 L118.432,294.195"/>
   <path d="M136.718,294.195 L136.718,294.068"/>
   <path d="M136.718,294.288 L136.718,294.195"/>
   <path d="M118.432,294.195 L118.432,294.288"/>
   <path d="M136.718,294.288 L118.432,294.288"/>
   <path d="M118.432,294.288 L118.432,294.322"/>
   <path d="M136.718,294.322 L136.718,294.288"/>
   <path d="M136.718,294.322 L118.432,294.322"/>
   <path d="M137.226,294.83 L137.353,294.796"/>
   <path d="M117.924,294.83 L117.797,294.796"/>
   <path d="M117.797,294.796 L117.704,294.703"/>
   <path d="M117.704,294.703 L117.67,294.576"/>
   <path d="M117.67,294.576 L117.67,274.764"/>
   <path d="M117.67,274.764 L117.704,274.637"/>
   <path d="M117.704,274.637 L117.797,274.544"/>
   <path d="M117.797,274.544 L117.924,274.51"/>
   <path d="M117.924,274.51 L137.226,274.51"/>
   <path d="M137.226,274.51 L137.353,274.544"/>
   <path d="M137.353,274.544 L137.446,274.637"/>
   <path d="M137.446,274.637 L137.48,274.764"/>
   <path d="M137.48,274.764 L137.48,294.576"/>
   <path d="M137.48,294.576 L137.446,294.703"/>
   <path d="M137.446,294.703 L137.353,294.796"/>
   <path d="M137.353,294.796 L137.226,294.83"/>
   <path d="M137.446,294.703 L137.353,294.796"/>
   <path d="M137.48,294.576 L137.446,294.703"/>
   <path d="M137.446,274.637 L137.48,274.764"/>
   <path d="M137.353,274.544 L137.446,274.637"/>
   <path d="M137.226,274.51 L137.353,274.544"/>
   <path d="M117.797,274.544 L117.924,274.51"/>
   <path d="M117.704,274.637 L117.797,274.544"/>
   <path d="M117.67,274.764 L117.704,274.637"/>
   <path d="M117.704,294.703 L117.67,294.576"/>
   <path d="M117.797,294.796 L117.704,294.703"/>
   <path d="M117.924,294.83 L117.797,294.796"/>
   <path d="M108.67,218.25 L108.72,218.25"/>
   <path d="M109.12,218.25 L118.364,218.25"/>
   <path d="M118.764,218.25 L118.814,218.25"/>
   <path d="M118.814,218.25 L118.814,183.75"/>
   <path d="M188.33,201.75 L188.28,201.75"/>
   <path d="M188.273,201.75 L187.887,201.75"/>
   <path d="M187.88,201.75 L178.636,201.75"/>
   <path d="M178.236,201.75 L178.186,201.75"/>
   <path d="M178.186,201.75 L178.186,236.25"/>
   <path d="M130.09,120.75 L130.09,121"/>
   <path d="M139.74,120.75 L139.74,121"/>
   <path d="M130.09,120.75 L139.74,120.75"/>
   <path d="M166.91,299.25 L166.91,299"/>
   <path d="M157.26,299.25 L157.26,299"/>
   <path d="M166.91,299.25 L157.26,299.25"/>
   <path d="M185.915,299 L185.915,301.415"/>
   <path d="M185.915,301.415 L194.915,301.415"/>
   <path d="M194.915,301.415 L194.915,118.585"/>
   <path d="M194.915,118.585 L188.5,118.585"/>
   <path d="M102.085,301.415 L108.5,301.415"/>
   <path d="M166.5,301.415 L185.915,301.415"/>
   <path d="M185.915,301.415 L185.915,299"/>
   <path d="M104.5,292.415 L102.085,292.415"/>
   <path d="M102.085,292.415 L102.085,301.415"/>
   <path d="M102.085,118.585 L102.085,292.415"/>
   <path d="M102.085,292.415 L104.5,292.415"/>
   <path d="M111.085,121 L111.085,118.585"/>
   <path d="M111.085,118.585 L102.085,118.585"/>
   <path d="M130.5,118.585 L111.085,118.585"/>
   <path d="M111.085,118.585 L111.085,121"/>
   <path d="M152.2,230.5 L152.2,199.454"/>
   <path d="M152.2,198.214 L152.2,188.9"/>
   <path d="M144.8,189.5 L144.8,220.701"/>
   <path d="M144.8,221.941 L144.8,231.1"/>
   <path d="M118.314,217.572 L118.364,217.572"/>
   <path d="M118.764,217.572 L118.814,217.572"/>
   <path d="M118.314,183.5 L118.314,217.572"/>
   <path d="M118.314,218.25 L118.364,218.25"/>
   <path d="M118.764,218.25 L118.814,218.25"/>
   <path d="M118.314,217.572 L118.314,218.25"/>
   <path d="M118.814,217.572 L118.814,218.25"/>
   <path d="M108.67,217.572 L108.72,217.572"/>
   <path d="M109.12,217.572 L109.17,217.572"/>
   <path d="M109.17,183.5 L109.17,217.572"/>
   <path d="M109.17,217.572 L109.17,218.25"/>
   <path d="M108.72,218.25 L108.727,218.25"/>
   <path d="M108.868,218.25 L108.972,218.25"/>
   <path d="M109.113,218.25 L109.12,218.25"/>
   <path d="M108.972,218.25 L108.868,218.25"/>
   <path d="M109.12,183.5 L109.12,218.25"/>
   <path d="M108.972,218.25 L108.92,218.25"/>
   <path d="M108.92,218.25 L108.92,183.5"/>
   <path d="M108.72,183.5 L108.72,218.25"/>
   <path d="M108.868,218.25 L108.92,218.25"/>
   <path d="M108.727,183.5 L108.727,218.25"/>
   <path d="M108.727,218.25 L108.747,218.25"/>
   <path d="M108.747,218.25 L108.747,183.5"/>
   <path d="M108.82,183.5 L108.82,218.25"/>
   <path d="M108.779,183.5 L108.779,218.25"/>
   <path d="M108.779,218.25 L108.82,218.25"/>
   <path d="M108.779,218.25 L108.747,218.25"/>
   <path d="M108.868,218.25 L108.82,218.25"/>
   <path d="M108.868,183.5 L108.868,218.25"/>
   <path d="M108.92,183.5 L108.92,218.25"/>
   <path d="M108.868,218.25 L108.92,218.25"/>
   <path d="M108.972,183.5 L108.972,218.25"/>
   <path d="M108.972,218.25 L108.92,218.25"/>
   <path d="M108.972,218.25 L109.02,218.25"/>
   <path d="M109.02,218.25 L109.02,183.5"/>
   <path d="M109.061,183.5 L109.061,218.25"/>
   <path d="M109.093,218.25 L109.093,183.5"/>
   <path d="M109.061,218.25 L109.093,218.25"/>
   <path d="M109.061,218.25 L109.02,218.25"/>
   <path d="M109.113,183.5 L109.113,218.25"/>
   <path d="M109.113,218.25 L109.093,218.25"/>
   <path d="M118.371,218.301 L118.364,218.318"/>
   <path d="M118.371,183.5 L118.371,218.301"/>
   <path d="M118.364,183.5 L118.364,218.318"/>
   <path d="M118.371,218.301 L118.391,218.284"/>
   <path d="M118.391,218.284 L118.391,183.5"/>
   <path d="M118.464,183.5 L118.464,218.259"/>
   <path d="M118.423,218.27 L118.464,218.259"/>
   <path d="M118.423,183.5 L118.423,218.27"/>
   <path d="M118.391,218.284 L118.423,218.27"/>
   <path d="M118.512,183.5 L118.512,218.252"/>
   <path d="M118.464,218.259 L118.512,218.252"/>
   <path d="M118.564,183.5 L118.564,218.25"/>
   <path d="M118.512,218.252 L118.564,218.25"/>
   <path d="M118.564,218.25 L118.616,218.252"/>
   <path d="M118.616,183.75 L118.616,218.252"/>
   <path d="M118.616,218.252 L118.664,218.259"/>
   <path d="M118.664,218.259 L118.664,183.75"/>
   <path d="M118.705,183.75 L118.705,218.27"/>
   <path d="M118.737,218.284 L118.737,183.75"/>
   <path d="M118.705,218.27 L118.737,218.284"/>
   <path d="M118.664,218.259 L118.705,218.27"/>
   <path d="M118.737,218.284 L118.757,218.301"/>
   <path d="M118.757,183.75 L118.757,218.301"/>
   <path d="M118.764,183.75 L118.764,218.318"/>
   <path d="M118.757,218.301 L118.764,218.318"/>
   <path d="M119.264,218.8 L118.364,218.8"/>
   <path d="M119.264,218.8 L119.257,218.793"/>
   <path d="M119.257,218.793 L118.371,218.793"/>
   <path d="M118.371,218.793 L118.364,218.8"/>
   <path d="M119.257,218.793 L119.237,218.773"/>
   <path d="M119.237,218.773 L118.391,218.773"/>
   <path d="M118.371,218.793 L118.391,218.773"/>
   <path d="M119.205,218.741 L118.423,218.741"/>
   <path d="M119.205,218.741 L119.164,218.7"/>
   <path d="M119.164,218.7 L118.464,218.7"/>
   <path d="M118.464,218.7 L118.423,218.741"/>
   <path d="M119.237,218.773 L119.205,218.741"/>
   <path d="M118.391,218.773 L118.423,218.741"/>
   <path d="M119.164,218.7 L119.116,218.652"/>
   <path d="M119.116,218.652 L118.512,218.652"/>
   <path d="M118.464,218.7 L118.512,218.652"/>
   <path d="M118.564,218.6 L119.064,218.6"/>
   <path d="M118.512,218.652 L118.564,218.6"/>
   <path d="M119.116,218.652 L119.064,218.6"/>
   <path d="M119.012,218.548 L118.616,218.548"/>
   <path d="M119.012,218.548 L118.964,218.5"/>
   <path d="M118.964,218.5 L118.664,218.5"/>
   <path d="M118.664,218.5 L118.616,218.548"/>
   <path d="M119.064,218.6 L119.012,218.548"/>
   <path d="M118.564,218.6 L118.616,218.548"/>
   <path d="M118.737,218.427 L118.891,218.427"/>
   <path d="M118.737,218.427 L118.757,218.407"/>
   <path d="M118.757,218.407 L118.871,218.407"/>
   <path d="M118.871,218.407 L118.891,218.427"/>
   <path d="M118.705,218.459 L118.923,218.459"/>
   <path d="M118.737,218.427 L118.705,218.459"/>
   <path d="M118.891,218.427 L118.923,218.459"/>
   <path d="M118.964,218.5 L118.923,218.459"/>
   <path d="M118.664,218.5 L118.705,218.459"/>
   <path d="M118.864,218.4 L118.764,218.4"/>
   <path d="M118.871,218.407 L118.864,218.4"/>
   <path d="M118.757,218.407 L118.764,218.4"/>
   <path d="M119.264,218.8 L119.264,183.75"/>
   <path d="M119.257,218.793 L119.257,183.75"/>
   <path d="M119.237,218.773 L119.237,183.75"/>
   <path d="M119.205,218.741 L119.205,183.75"/>
   <path d="M119.164,218.7 L119.164,183.75"/>
   <path d="M119.116,218.652 L119.116,183.75"/>
   <path d="M119.064,218.6 L119.064,183.75"/>
   <path d="M119.012,218.548 L119.012,183.75"/>
   <path d="M118.964,218.5 L118.964,183.75"/>
   <path d="M118.923,218.459 L118.923,183.75"/>
   <path d="M118.891,218.427 L118.891,183.75"/>
   <path d="M118.871,218.407 L118.871,183.75"/>
   <path d="M118.864,218.4 L118.864,183.75"/>
   <path d="M118.364,218.318 L118.364,218.8"/>
   <path d="M118.371,218.301 L118.371,218.793"/>
   <path d="M118.391,218.284 L118.391,218.773"/>
   <path d="M118.423,218.27 L118.423,218.741"/>
   <path d="M118.464,218.259 L118.464,218.7"/>
   <path d="M118.512,218.252 L118.512,218.652"/>
   <path d="M118.564,218.25 L118.564,218.6"/>
   <path d="M118.616,218.252 L118.616,218.548"/>
   <path d="M118.664,218.259 L118.664,218.5"/>
   <path d="M118.737,218.284 L118.737,218.427"/>
   <path d="M118.757,218.301 L118.757,218.407"/>
   <path d="M118.705,218.27 L118.705,218.459"/>
   <path d="M118.764,218.318 L118.764,218.4"/>
   <path d="M144.8,220.701 L144.8,221.941"/>
   <path d="M129.56,220.701 L129.56,221.941"/>
   <path d="M144.8,220.701 L129.56,220.701"/>
   <path d="M144.8,221.941 L129.56,221.941"/>
   <path d="M138.14,221.941 L138.14,222.191"/>
   <path d="M138.14,222.191 L129.56,222.191"/>
   <path d="M138.14,220.451 L138.14,220.701"/>
   <path d="M138.14,220.451 L129.56,220.451"/>
   <path d="M159.054,198.214 L159.054,197.964"/>
   <path d="M159.054,197.964 L167.44,197.964"/>
   <path d="M159.054,199.704 L159.054,199.454"/>
   <path d="M159.054,199.704 L167.44,199.704"/>
   <path d="M152.2,199.454 L152.2,198.214"/>
   <path d="M167.44,199.454 L167.44,198.214"/>
   <path d="M152.2,199.454 L167.44,199.454"/>
   <path d="M152.2,198.214 L167.44,198.214"/>
   <path d="M140.49,220.51 L140.49,214.391"/>
   <path d="M140.49,220.51 L144.609,220.51"/>
   <path d="M144.609,214.391 L144.609,220.51"/>
   <path d="M140.49,214.391 L144.609,214.391"/>
   <path d="M140.3,220.701 L140.3,214.201"/>
   <path d="M140.3,214.201 L144.8,214.201"/>
   <path d="M140.046,217.101 L140.046,216.974"/>
   <path d="M140.046,217.927 L140.046,217.8"/>
   <path d="M140.046,216.974 L140.173,216.974"/>
   <path d="M140.046,217.101 L140.173,217.101"/>
   <path d="M140.046,217.8 L140.173,217.8"/>
   <path d="M140.046,217.927 L140.173,217.927"/>
   <path d="M140.173,220.51 L140.173,214.391"/>
   <path d="M140.173,214.391 L140.3,214.391"/>
   <path d="M140.173,220.51 L140.3,220.51"/>
   <path d="M144.609,220.51 L144.609,214.391"/>
   <path d="M144.609,220.51 L140.49,220.51"/>
   <path d="M140.49,220.51 L140.49,214.391"/>
   <path d="M140.49,214.391 L144.609,214.391"/>
   <path d="M140.49,214.01 L140.49,207.891"/>
   <path d="M140.49,214.01 L144.609,214.01"/>
   <path d="M144.609,207.891 L144.609,214.01"/>
   <path d="M140.49,207.891 L144.609,207.891"/>
   <path d="M140.3,214.201 L140.3,207.701"/>
   <path d="M140.3,207.701 L144.8,207.701"/>
   <path d="M140.3,214.201 L144.8,214.201"/>
   <path d="M140.046,210.601 L140.046,210.474"/>
   <path d="M140.046,211.427 L140.046,211.3"/>
   <path d="M140.046,210.474 L140.173,210.474"/>
   <path d="M140.046,210.601 L140.173,210.601"/>
   <path d="M140.046,211.3 L140.173,211.3"/>
   <path d="M140.046,211.427 L140.173,211.427"/>
   <path d="M140.173,214.01 L140.173,207.891"/>
   <path d="M140.173,207.891 L140.3,207.891"/>
   <path d="M140.173,214.01 L140.3,214.01"/>
   <path d="M144.609,214.01 L144.609,207.891"/>
   <path d="M144.609,214.01 L140.49,214.01"/>
   <path d="M140.49,214.01 L140.49,207.891"/>
   <path d="M140.49,207.891 L144.609,207.891"/>
   <path d="M156.51,212.263 L156.51,206.144"/>
   <path d="M156.51,206.144 L152.391,206.144"/>
   <path d="M152.391,206.144 L152.391,212.263"/>
   <path d="M156.51,212.263 L152.391,212.263"/>
   <path d="M156.7,205.954 L156.7,212.454"/>
   <path d="M156.7,212.454 L152.2,212.454"/>
   <path d="M156.7,205.954 L152.2,205.954"/>
   <path d="M156.954,208.855 L156.954,208.728"/>
   <path d="M156.954,209.68 L156.954,209.553"/>
   <path d="M156.954,208.728 L156.827,208.728"/>
   <path d="M156.954,208.855 L156.827,208.855"/>
   <path d="M156.954,209.553 L156.827,209.553"/>
   <path d="M156.954,209.68 L156.827,209.68"/>
   <path d="M156.827,212.263 L156.827,206.144"/>
   <path d="M156.827,206.144 L156.7,206.144"/>
   <path d="M156.827,212.263 L156.7,212.263"/>
   <path d="M152.391,212.263 L156.51,212.263"/>
   <path d="M152.391,212.263 L152.391,206.144"/>
   <path d="M152.391,206.144 L156.51,206.144"/>
   <path d="M156.51,206.144 L156.51,212.263"/>
   <path d="M156.51,205.763 L156.51,199.644"/>
   <path d="M156.51,199.644 L152.391,199.644"/>
   <path d="M152.391,199.644 L152.391,205.763"/>
   <path d="M156.51,205.763 L152.391,205.763"/>
   <path d="M156.7,199.454 L156.7,205.954"/>
   <path d="M156.7,205.954 L152.2,205.954"/>
   <path d="M156.954,202.355 L156.954,202.228"/>
   <path d="M156.954,203.18 L156.954,203.053"/>
   <path d="M156.954,202.228 L156.827,202.228"/>
   <path d="M156.954,202.355 L156.827,202.355"/>
   <path d="M156.954,203.053 L156.827,203.053"/>
   <path d="M156.954,203.18 L156.827,203.18"/>
   <path d="M156.827,205.763 L156.827,199.644"/>
   <path d="M156.827,199.644 L156.7,199.644"/>
   <path d="M156.827,205.763 L156.7,205.763"/>
   <path d="M152.391,205.763 L156.51,205.763"/>
   <path d="M152.391,205.763 L152.391,199.644"/>
   <path d="M152.391,199.644 L156.51,199.644"/>
   <path d="M156.51,199.644 L156.51,205.763"/>
   <path d="M130.5,77.1727 L188.5,77.1727"/>
   <path d="M188.5,77.1727 L188.5,121"/>
   <path d="M130.5,120.75 L130.5,77.1727"/>
   <path d="M166.5,342.827 L108.5,342.827"/>
   <path d="M108.5,342.827 L108.5,299"/>
   <path d="M166.5,299.25 L166.5,342.827"/>
  </g>
 </g>
</svg>
