<?xml version="1.0" encoding="utf-8"?>
<svg height="420mm" viewBox="0 0 297 420" width="297mm" xmlns="http://www.w3.org/2000/svg" xmlns:ifc="http://www.ifcopenshell.org/ns" xmlns:xlink="http://www.w3.org/1999/xlink">
 <defs>
  <marker id="arrowend" markerHeight="7" markerWidth="10" orient="auto" refX="10" refY="3.5">
   <polygon points="0 0, 10 3.5, 0 7"/>
  </marker>
  <marker id="arrowstart" markerHeight="7" markerWidth="10" orient="auto" refX="0" refY="3.5">
   <polygon points="10 0, 0 3.5, 10 7"/>
  </marker>
 </defs>
 <style type="text/css">
  .cut path {
            stroke: #222222;
            fill: #444444;
            fill-rule: evenodd;
        }
        .projection path {
            stroke: #222222;
            fill: none;
            stroke-opacity: 0.6;
        }
        .IfcDoor path,
        .Symbol path {
            fill: none;
        }
        .Symbol path {
            stroke-width: 0.5px;
        }
        .IfcSpace path {
            fill-opacity: .2;
        }
        .Dimension path {
            marker-end: url(#arrowend);
            marker-start: url(#arrowstart);
        }
        text {
            font-size: 2;
        }
        path {
            stroke-width: 0.3;
        }
 </style>
 <g class="IfcBuildingStorey" id="storey-7b7032cc-b822-417b-9aea-6429f95f770e" ifc:guid="1xS3BCk291UvhgP2dvNtSE" ifc:matrix3="[[10.000000,0.000000,104.500000],[0.000000,10.000000,121.000000],[0.000000,0.000000,1.000000]]" ifc:name="Roof" ifc:plane="[[1.000000,0.000000,0.000000,0.000000],[0.000000,1.000000,0.000000,0.000000],[0.000000,0.000000,1.000000,7.200000],[0.000000,0.000000,0.000000,1.000000]]">
  <g class="IfcSpace" id="product-335fc1b3-63ca-474d-9c21-6d5abbd83da0-body" ifc:guid="0pNy6pOyf7JPmXRLgxs3sW" ifc:name="R301">
   <path d="M188.33,125.17 L108.67,125.17 L108.67,294.83 L188.33,294.83 L188.33,125.17"/>
  </g>
  <g class="projection">
   <path d="M192.5,275.77 L192.75,275.77"/>
   <path d="M192.5,289.79 L192.75,289.79"/>
   <path d="M192.75,275.77 L192.75,289.79"/>
   <path d="M104.5,144.23 L104.25,144.23"/>
   <path d="M104.5,130.21 L104.25,130.21"/>
   <path d="M104.25,144.23 L104.25,130.21"/>
   <path d="M130.09,120.75 L130.09,121"/>
   <path d="M139.74,120.75 L139.74,121"/>
   <path d="M130.09,120.75 L139.74,120.75"/>
   <path d="M166.91,299.25 L166.91,299"/>
   <path d="M157.26,299.25 L157.26,299"/>
   <path d="M166.91,299.25 L157.26,299.25"/>
   <path d="M192.5,121 L104.5,121"/>
   <path d="M104.5,121 L104.5,125.17"/>
   <path d="M104.5,125.17 L192.5,125.17"/>
   <path d="M192.5,125.17 L192.5,121"/>
   <path d="M192.5,299 L192.5,125.17"/>
   <path d="M192.5,125.17 L188.33,125.17"/>
   <path d="M188.33,125.17 L188.33,299"/>
   <path d="M188.33,299 L192.5,299"/>
   <path d="M104.5,299 L188.33,299"/>
   <path d="M188.33,299 L188.33,294.83"/>
   <path d="M188.33,294.83 L104.5,294.83"/>
   <path d="M104.5,294.83 L104.5,299"/>
   <path d="M104.5,125.17 L104.5,294.83"/>
   <path d="M104.5,294.83 L108.67,294.83"/>
   <path d="M108.67,294.83 L108.67,125.17"/>
   <path d="M108.67,125.17 L104.5,125.17"/>
   <path d="M123.596,222.054 L123.596,233.246"/>
   <path d="M123.977,221.673 L123.977,233.627"/>
   <path d="M123.977,233.627 L112.543,233.627"/>
   <path d="M112.543,233.627 L112.543,221.673"/>
   <path d="M123.977,221.673 L112.543,221.673"/>
   <path d="M123.596,222.054 L112.924,222.054"/>
   <path d="M112.924,233.246 L112.924,222.054"/>
   <path d="M123.596,233.246 L112.924,233.246"/>
   <path d="M123.977,221.673 L124.123,221.527"/>
   <path d="M124.123,221.527 L124.123,233.773"/>
   <path d="M123.977,233.627 L124.123,233.773"/>
   <path d="M124.123,233.773 L112.397,233.773"/>
   <path d="M112.543,233.627 L112.397,233.773"/>
   <path d="M112.397,233.773 L112.397,221.527"/>
   <path d="M112.543,221.673 L112.397,221.527"/>
   <path d="M124.123,221.527 L112.397,221.527"/>
   <path d="M123.596,233.246 L123.596,222.054"/>
   <path d="M123.596,233.246 L112.924,233.246"/>
   <path d="M112.924,233.246 L112.924,222.054"/>
   <path d="M112.924,222.054 L123.596,222.054"/>
   <path d="M183.926,186.754 L183.926,197.946"/>
   <path d="M184.307,186.373 L184.307,198.327"/>
   <path d="M184.307,198.327 L172.873,198.327"/>
   <path d="M172.873,198.327 L172.873,186.373"/>
   <path d="M184.307,186.373 L172.873,186.373"/>
   <path d="M183.926,186.754 L173.254,186.754"/>
   <path d="M173.254,197.946 L173.254,186.754"/>
   <path d="M183.926,197.946 L173.254,197.946"/>
   <path d="M184.307,186.373 L184.453,186.227"/>
   <path d="M184.453,186.227 L184.453,198.473"/>
   <path d="M184.307,198.327 L184.453,198.473"/>
   <path d="M184.453,198.473 L172.727,198.473"/>
   <path d="M172.873,198.327 L172.727,198.473"/>
   <path d="M172.727,198.473 L172.727,186.227"/>
   <path d="M172.873,186.373 L172.727,186.227"/>
   <path d="M184.453,186.227 L172.727,186.227"/>
   <path d="M183.926,197.946 L183.926,186.754"/>
   <path d="M183.926,197.946 L173.254,197.946"/>
   <path d="M173.254,197.946 L173.254,186.754"/>
   <path d="M173.254,186.754 L183.926,186.754"/>
   <path d="M185.915,299 L185.915,301.415"/>
   <path d="M185.915,301.415 L194.915,301.415"/>
   <path d="M194.915,301.415 L194.915,118.585"/>
   <path d="M194.915,118.585 L188.5,118.585"/>
   <path d="M102.085,301.415 L108.5,301.415"/>
   <path d="M166.5,301.415 L185.915,301.415"/>
   <path d="M185.915,301.415 L185.915,299"/>
   <path d="M104.5,292.415 L102.085,292.415"/>
   <path d="M102.085,292.415 L102.085,301.415"/>
   <path d="M102.085,118.585 L102.085,292.415"/>
   <path d="M102.085,292.415 L104.5,292.415"/>
   <path d="M111.085,121 L111.085,118.585"/>
   <path d="M111.085,118.585 L102.085,118.585"/>
   <path d="M130.5,118.585 L111.085,118.585"/>
   <path d="M111.085,118.585 L111.085,121"/>
   <path d="M130.5,77.1727 L188.5,77.1727"/>
   <path d="M188.5,77.1727 L188.5,121"/>
   <path d="M130.5,120.75 L130.5,77.1727"/>
   <path d="M166.5,342.827 L108.5,342.827"/>
   <path d="M108.5,342.827 L108.5,299"/>
   <path d="M166.5,299.25 L166.5,342.827"/>
  </g>
 </g>
</svg>
