<?xml version="1.0" encoding="utf-8"?>
<svg height="420mm" viewBox="0 0 297 420" width="297mm" xmlns="http://www.w3.org/2000/svg" xmlns:ifc="http://www.ifcopenshell.org/ns" xmlns:xlink="http://www.w3.org/1999/xlink">
 <defs>
  <marker id="arrowend" markerHeight="7" markerWidth="10" orient="auto" refX="10" refY="3.5">
   <polygon points="0 0, 10 3.5, 0 7"/>
  </marker>
  <marker id="arrowstart" markerHeight="7" markerWidth="10" orient="auto" refX="0" refY="3.5">
   <polygon points="10 0, 0 3.5, 10 7"/>
  </marker>
 </defs>
 <style type="text/css">
  .cut path {
            stroke: #222222;
            fill: #444444;
            fill-rule: evenodd;
        }
        .projection path {
            stroke: #222222;
            fill: none;
            stroke-opacity: 0.6;
        }
        .IfcDoor path,
        .Symbol path {
            fill: none;
        }
        .Symbol path {
            stroke-width: 0.5px;
        }
        .IfcSpace path {
            fill-opacity: .2;
        }
        .Dimension path {
            marker-end: url(#arrowend);
            marker-start: url(#arrowstart);
        }
        text {
            font-size: 2;
        }
        path {
            stroke-width: 0.3;
        }
 </style>
 <g class="IfcBuildingStorey" id="storey-7b7032cc-b822-417b-9aea-6429f95d6512" ifc:guid="1xS3BCk291UvhgP2dvNMKI" ifc:matrix3="[[10.000000,0.000000,104.500000],[0.000000,10.000000,121.000000],[0.000000,0.000000,1.000000]]" ifc:name="Level 1" ifc:plane="[[1.000000,0.000000,0.000000,0.000000],[0.000000,1.000000,0.000000,0.000000],[0.000000,0.000000,1.000000,1.200000],[0.000000,0.000000,0.000000,1.000000]]">
  <g class="IfcSpace" id="product-0b74b3fa-1a92-405e-9ac9-d59067be1d42-body" ifc:guid="0BTBFw6f90Nfh9rP1dlXr2" ifc:name="A102">
   <path d="M166.5,294.83 L166.5,247 L108.67,247 L108.67,294.83 L166.5,294.83"/>
  </g>
  <g class="IfcSpace" id="product-0b74b3fa-1a92-405e-9ac9-d59067be1d7f-body" ifc:guid="0BTBFw6f90Nfh9rP1dlXr$" ifc:name="A103">
   <path d="M108.67,247 L166.76,247 L166.76,224.7 L108.67,224.7 L108.67,247"/>
  </g>
  <g class="IfcSpace" id="product-0b74b3fa-1a92-405e-9ac9-d59067be1d78-body" ifc:guid="0BTBFw6f90Nfh9rP1dlXru" ifc:name="A104">
   <path d="M152.2,201.75 L152.2,223.46 L166.76,223.46 L166.76,201.75 L152.2,201.75"/>
  </g>
  <g class="IfcSpace" id="product-0b74b3fa-1a92-405e-9ac9-d59067be1d75-body" ifc:guid="0BTBFw6f90Nfh9rP1dlXrr" ifc:name="A101">
   <path d="M188.33,239.25 L188.33,294.83 L167.74,294.83 L167.74,259 L166.5,259 L166.5,247 L166.76,247 L166.76,230.95 L168,230.95 L168,201.75 L178.186,201.75 L178.186,239.25 L188.33,239.25"/>
  </g>
  <g class="IfcSpace" id="product-0b74b3fa-1a92-405e-9ac9-d59067bfe323-body" ifc:guid="0BTBFw6f90Nfh9rP1dl_CZ" ifc:name="B102">
   <path d="M130.5,125.17 L130.5,173 L188.33,173 L188.33,125.17 L130.5,125.17"/>
  </g>
  <g class="IfcSpace" id="product-0b74b3fa-1a92-405e-9ac9-d59067bfe0dc-body" ifc:guid="0BTBFw6f90Nfh9rP1dl_3S" ifc:name="B103">
   <path d="M188.33,173 L130.24,173 L130.24,195.3 L188.33,195.3 L188.33,173"/>
  </g>
  <g class="IfcSpace" id="product-0b74b3fa-1a92-405e-9ac9-d59067bfe0d9-body" ifc:guid="0BTBFw6f90Nfh9rP1dl_3P" ifc:name="B104">
   <path d="M144.8,218.25 L144.8,196.54 L130.24,196.54 L130.24,218.25 L144.8,218.25"/>
  </g>
  <g class="IfcSpace" id="product-0b74b3fa-1a92-405e-9ac9-d59067bfe0da-body" ifc:guid="0BTBFw6f90Nfh9rP1dl_3Q" ifc:name="B101">
   <path d="M108.67,125.17 L108.67,180.75 L118.814,180.75 L118.814,218.25 L129,218.25 L129,189.05 L130.24,189.05 L130.24,173 L130.5,173 L130.5,161 L129.26,161 L129.26,125.17 L108.67,125.17"/>
  </g>
  <g class="IfcSpace" id="product-40c2d70d-8d3b-49a9-9702-6756a4ee40fd-body" ifc:guid="10mjSDZJj9gPS2PrQaxa3z" ifc:name="A105">
   <path d="M178.186,239.25 L188.33,239.25 L188.33,201.75 L178.186,201.75 L178.186,239.25"/>
  </g>
  <g class="IfcSpace" id="product-40c2d70d-8d3b-49a9-9702-6756a4ee4132-body" ifc:guid="10mjSDZJj9gPS2PrQaxa4o" ifc:name="B105">
   <path d="M108.67,218.25 L118.814,218.25 L118.814,180.75 L108.67,180.75 L108.67,218.25"/>
  </g>
  <g class="cut IfcWallStandardCase" id="product-9808fd7f-dc48-478e-9217-628e833d7df1-body" ifc:guid="2O2Fr$t4X7Zf8NOew3FNtn" ifc:name="Basic Wall:Exterior - Brick on Block:138062">
   <path d="M130.85,121 L130.85,125.17 L104.5,125.17 L104.5,121 L130.85,121 M138.98,125.17 L138.98,121 L139.98,121 L139.98,125.17 L138.98,125.17 M192.5,121 L192.5,125.17 L188.33,125.17 L188.33,121 L192.5,121"/>
  </g>
  <g class="cut IfcWallStandardCase" id="product-9808fd7f-dc48-478e-9217-628e833d7d12-body" ifc:guid="2O2Fr$t4X7Zf8NOew3FNqI" ifc:name="Basic Wall:Exterior - Brick on Block:138157">
   <path d="M192.5,276.53 L188.33,276.53 L188.33,180.45 L192.5,180.45 L192.5,276.53 M188.33,289.03 L192.5,289.03 L192.5,299 L188.33,299 L188.33,289.03 M192.5,125.17 L188.33,125.17 L188.33,172.95 L192.5,172.95 L192.5,125.17"/>
  </g>
  <g class="cut IfcWallStandardCase" id="product-9808fd7f-dc48-478e-9217-628e833d7d42-body" ifc:guid="2O2Fr$t4X7Zf8NOew3FNr2" ifc:name="Basic Wall:Exterior - Brick on Block:138237">
   <path d="M166.15,299 L166.15,294.83 L188.33,294.83 L188.33,299 L166.15,299 M158.02,294.83 L158.02,299 L157.02,299 L157.02,294.83 L158.02,294.83 M104.5,299 L104.5,294.83 L108.67,294.83 L108.67,299 L104.5,299"/>
  </g>
  <g class="cut IfcWallStandardCase" id="product-9808fd7f-dc48-478e-9217-628e833d7af9-body" ifc:guid="2O2Fr$t4X7Zf8NOew3FNhv" ifc:name="Basic Wall:Exterior - Brick on Block:138310">
   <path d="M104.5,143.47 L108.67,143.47 L108.67,239.55 L104.5,239.55 L104.5,143.47 M108.67,130.97 L104.5,130.97 L104.5,125.17 L108.67,125.17 L108.67,130.97 M104.5,294.83 L108.67,294.83 L108.67,247.05 L104.5,247.05 L104.5,294.83"/>
  </g>
  <g class="cut IfcWallStandardCase" id="product-9808fd7f-dc48-478e-9217-628e833d7be7-body" ifc:guid="2O2Fr$t4X7Zf8NOew3FNld" ifc:name="Basic Wall:Interior - Partition (92mm Stud):138584">
   <path d="M130.5,161 L130.5,125.17 L129.26,125.17 L129.26,161 L130.5,161"/>
  </g>
  <g class="cut IfcWallStandardCase" id="product-9808fd7f-dc48-478e-9217-628e833d7938-body" ifc:guid="2O2Fr$t4X7Zf8NOew3FNau" ifc:name="Basic Wall:Interior - Partition (92mm Stud):139143">
   <path d="M130.24,198.49 L129,198.49 L129,189.05 L130.24,189.05 L130.24,198.49 M129,206.11 L130.24,206.11 L130.24,218.25 L129,218.25 L129,206.11"/>
  </g>
  <g class="cut IfcWallStandardCase" id="product-9808fd7f-dc48-478e-9217-628e833d795d-body" ifc:guid="2O2Fr$t4X7Zf8NOew3FNbT" ifc:name="Basic Wall:Party Wall - CMU Residential Unit Dimising Wall:139234">
   <path d="M146.32,201.75 L188.33,201.75 L188.33,196.82 L146.32,196.82 L146.32,201.75"/>
  </g>
  <g class="cut IfcWallStandardCase" id="product-9808fd7f-dc48-478e-9217-628e833d46ec-body" ifc:guid="2O2Fr$t4X7Zf8NOew3FKRi" ifc:name="Basic Wall:Party Wall - CMU Residential Unit Dimising Wall:139347">
   <path d="M150.68,218.25 L108.67,218.25 L108.67,223.18 L150.68,223.18 L150.68,218.25"/>
  </g>
  <g class="cut IfcWallStandardCase" id="product-9808fd7f-dc48-478e-9217-628e833d46d1-body" ifc:guid="2O2Fr$t4X7Zf8NOew3FKRH" ifc:name="Basic Wall:Party Wall - CMU Residential Unit Dimising Wall:139374">
   <path d="M145.75,199 L145.75,201.75 L146.32,201.75 L146.32,218.25 L145.75,218.25 L145.75,221 L151.25,221 L151.25,218.25 L150.68,218.25 L150.68,201.75 L151.25,201.75 L151.25,199 L145.75,199"/>
  </g>
  <g class="cut IfcWallStandardCase" id="product-9808fd7f-dc48-478e-9217-628e833d471d-body" ifc:guid="2O2Fr$t4X7Zf8NOew3FKST" ifc:name="Basic Wall:Interior - Partition (92mm Stud):139682">
   <path d="M166.76,221.53 L168,221.53 L168,230.95 L166.76,230.95 L166.76,221.53 M168,213.91 L166.76,213.91 L166.76,201.75 L168,201.75 L168,213.91"/>
  </g>
  <g class="cut IfcWallStandardCase" id="product-9808fd7f-dc48-478e-9217-628e833d44b8-body" ifc:guid="2O2Fr$t4X7Zf8NOew3FKIu" ifc:name="Basic Wall:Interior - Partition (92mm Stud):139783">
   <path d="M166.76,223.46 L152.2,223.46 L152.2,224.7 L166.76,224.7 L166.76,223.46"/>
  </g>
  <g class="cut IfcWallStandardCase" id="product-9808fd7f-dc48-478e-9217-628e833d441c-body" ifc:guid="2O2Fr$t4X7Zf8NOew3FKGS" ifc:name="Basic Wall:Interior - Partition (92mm Stud):139939">
   <path d="M167.74,294.83 L167.74,259 L166.5,259 L166.5,294.83 L167.74,294.83"/>
  </g>
  <g class="cut IfcWindow" id="product-6b61ce71-1a7a-473c-8f87-4262e0bdb1c2-body" ifc:guid="1hOSvn6df7F8_7GcBWlR72" ifc:name="M_Fixed:4835mm x 2420mm:4835mm x 2420mm:145788">
   <path d="M140.61,121.35 L140.61,121.47 L187.7,121.47 L187.7,121.35 L140.61,121.35"/>
   <path d="M188.14,121.63 L188.14,121.19 L187.7,121.19 L187.7,121.63 L188.14,121.63 M140.17,121.19 L140.17,121.63 L140.61,121.63 L140.61,121.19 L140.17,121.19"/>
   <path d="M188.33,121.63 L188.33,121 L188.14,121 L188.14,121.63 L188.33,121.63 M139.98,121 L139.98,121.63 L140.17,121.63 L140.17,121 L139.98,121"/>
   <path d="M188.33,125.17 L188.33,121.63 L188.01,121.63 L188.01,125.17 L188.33,125.17 M139.98,121.63 L139.98,125.17 L140.3,125.17 L140.3,121.63 L139.98,121.63"/>
  </g>
  <g class="cut IfcWindow" id="product-6b61ce71-1a7a-473c-8f87-4262e0bdb2de-body" ifc:guid="1hOSvn6df7F8_7GcBWlRBU" ifc:name="M_Fixed:4835mm x 2420mm:4835mm x 2420mm:146016">
   <path d="M156.39,298.65 L156.39,298.53 L109.3,298.53 L109.3,298.65 L156.39,298.65"/>
   <path d="M108.86,298.37 L108.86,298.81 L109.3,298.81 L109.3,298.37 L108.86,298.37 M156.83,298.81 L156.83,298.37 L156.39,298.37 L156.39,298.81 L156.83,298.81"/>
   <path d="M108.67,298.37 L108.67,299 L108.86,299 L108.86,298.37 L108.67,298.37 M157.02,299 L157.02,298.37 L156.83,298.37 L156.83,299 L157.02,299"/>
   <path d="M108.67,294.83 L108.67,298.37 L108.99,298.37 L108.99,294.83 L108.67,294.83 M157.02,298.37 L157.02,294.83 L156.7,294.83 L156.7,298.37 L157.02,298.37"/>
  </g>
  <g class="cut IfcDoor" id="product-6b61ce71-1a7a-473c-8f87-4262e0bdb41a-body" ifc:guid="1hOSvn6df7F8_7GcBWlRGQ" ifc:name="M_Single-Flush:1250mm x 2010mm:1250mm x 2010mm:146596">
   <path d="M192.5,289.79 L192.75,289.79 L192.75,289.03 L192.5,289.03 L192.5,289.79 M192.5,276.53 L192.75,276.53 L192.75,275.77 L192.5,275.77 L192.5,276.53"/>
   <path d="M188.08,289.79 L188.33,289.79 L188.33,289.03 L188.08,289.03 L188.08,289.79 M188.08,276.53 L188.33,276.53 L188.33,275.77 L188.08,275.77 L188.08,276.53"/>
   <path d="M191.99,289.03 L192.5,289.03 L192.5,276.53 L191.99,276.53 L191.99,289.03"/>
  </g>
  <g class="cut IfcDoor" id="product-6b61ce71-1a7a-473c-8f87-4262e0bdb448-body" ifc:guid="1hOSvn6df7F8_7GcBWlRH8" ifc:name="M_Single-Flush:1250mm x 2010mm:1250mm x 2010mm:146678">
   <path d="M104.5,130.21 L104.25,130.21 L104.25,130.97 L104.5,130.97 L104.5,130.21 M104.5,143.47 L104.25,143.47 L104.25,144.23 L104.5,144.23 L104.5,143.47"/>
   <path d="M108.92,130.21 L108.67,130.21 L108.67,130.97 L108.92,130.97 L108.92,130.21 M108.92,143.47 L108.67,143.47 L108.67,144.23 L108.92,144.23 L108.92,143.47"/>
   <path d="M105.01,130.97 L104.5,130.97 L104.5,143.47 L105.01,143.47 L105.01,130.97"/>
  </g>
  <g class="cut IfcWindow" id="product-6b61ce71-1a7a-473c-8f87-4262e0bdb57b-body" ifc:guid="1hOSvn6df7F8_7GcBWlRLx" ifc:name="M_Fixed:750mm x 2200mm:750mm x 2200mm:146885">
   <path d="M192.15,173.58 L192.03,173.58 L192.03,179.82 L192.15,179.82 L192.15,173.58"/>
   <path d="M191.87,180.26 L192.31,180.26 L192.31,179.82 L191.87,179.82 L191.87,180.26 M192.31,173.14 L191.87,173.14 L191.87,173.58 L192.31,173.58 L192.31,173.14"/>
   <path d="M191.87,180.45 L192.5,180.45 L192.5,180.26 L191.87,180.26 L191.87,180.45 M192.5,172.95 L191.87,172.95 L191.87,173.14 L192.5,173.14 L192.5,172.95"/>
   <path d="M188.33,180.45 L191.87,180.45 L191.87,180.13 L188.33,180.13 L188.33,180.45 M191.87,172.95 L188.33,172.95 L188.33,173.27 L191.87,173.27 L191.87,172.95"/>
  </g>
  <g class="cut IfcWindow" id="product-6b61ce71-1a7a-473c-8f87-4262e0bdb6d5-body" ifc:guid="1hOSvn6df7F8_7GcBWlRRL" ifc:name="M_Fixed:750mm x 2200mm:750mm x 2200mm:147051">
   <path d="M104.85,246.42 L104.97,246.42 L104.97,240.18 L104.85,240.18 L104.85,246.42"/>
   <path d="M105.13,239.74 L104.69,239.74 L104.69,240.18 L105.13,240.18 L105.13,239.74 M104.69,246.86 L105.13,246.86 L105.13,246.42 L104.69,246.42 L104.69,246.86"/>
   <path d="M105.13,239.55 L104.5,239.55 L104.5,239.74 L105.13,239.74 L105.13,239.55 M104.5,247.05 L105.13,247.05 L105.13,246.86 L104.5,246.86 L104.5,247.05"/>
   <path d="M108.67,239.55 L105.13,239.55 L105.13,239.87 L108.67,239.87 L108.67,239.55 M105.13,247.05 L108.67,247.05 L108.67,246.73 L105.13,246.73 L105.13,247.05"/>
  </g>
  <g class="cut IfcDoor" id="product-6b61ce71-1a7a-473c-8f87-4262e0bdc223-body" ifc:guid="1hOSvn6df7F8_7GcBWlS8Z" ifc:name="M_Single-Flush:0762 x 2032mm:0762 x 2032mm:150173">
   <path d="M166.51,222.29 L166.76,222.29 L166.76,221.53 L166.51,221.53 L166.51,222.29 M166.51,213.91 L166.76,213.91 L166.76,213.15 L166.51,213.15 L166.51,213.91"/>
   <path d="M168,222.29 L168.25,222.29 L168.25,221.53 L168,221.53 L168,222.29 M168,213.91 L168.25,213.91 L168.25,213.15 L168,213.15 L168,213.91"/>
   <path d="M167.27,221.53 L167.27,213.91 L166.76,213.91 L166.76,221.53 L167.27,221.53"/>
  </g>
  <g class="cut IfcDoor" id="product-6b61ce71-1a7a-473c-8f87-4262e0bdc24f-body" ifc:guid="1hOSvn6df7F8_7GcBWlS9F" ifc:name="M_Single-Flush:0762 x 2032mm:0762 x 2032mm:150257">
   <path d="M130.49,197.73 L130.24,197.73 L130.24,198.49 L130.49,198.49 L130.49,197.73 M130.49,206.11 L130.24,206.11 L130.24,206.87 L130.49,206.87 L130.49,206.11"/>
   <path d="M129,197.73 L128.75,197.73 L128.75,198.49 L129,198.49 L129,197.73 M129,206.11 L128.75,206.11 L128.75,206.87 L129,206.87 L129,206.11"/>
   <path d="M129.73,198.49 L129.73,206.11 L130.24,206.11 L130.24,198.49 L129.73,198.49"/>
  </g>
  <g class="cut IfcStairFlight" id="product-7252d52a-2593-43a5-906c-4ba855ac3bd4-body" ifc:guid="1oKjKg9PD3fP1iIwXLh3lK" ifc:name="Stair:Residential - 200mm Max Riser 250mm Tread:151086:1">
   <path d="M187.83,224.025 L178.686,224.025 L178.686,224.15 L187.83,224.15 L187.83,224.025"/>
  </g>
  <g class="cut IfcMember" id="product-6adf5714-15ac-4de3-b37a-f2a9c038d418-body" ifc:guid="1gtrSK5QnDuxDwygd0EDGO" ifc:name="Stair:Residential - 200mm Max Riser 250mm Tread:151086:1">
   <path d="M188.33,220.415 L187.83,220.415 L187.83,226.944 L188.33,226.944 L188.33,220.415"/>
  </g>
  <g class="cut IfcMember" id="product-c4d1e3d0-b53f-4f53-a7e0-ce1a029dd677-body" ifc:guid="34qUFGjJzFKwVWpXe2dTPt" ifc:name="Stair:Residential - 200mm Max Riser 250mm Tread:151086:2">
   <path d="M178.686,220.415 L178.186,220.415 L178.186,226.944 L178.686,226.944 L178.686,220.415"/>
  </g>
  <g class="cut IfcRailing" id="product-3ab8ee1d-07ad-41b9-8f24-a55884e7e655-body" ifc:guid="0wkEuT1wr1kOyafLY4v_PL" ifc:name="Railing:900mm Handrail Only:151162">
   <path d="M187.887,237.468 L187.907,237.389 L187.939,237.322 L187.98,237.27 L188.028,237.237 L188.08,237.226 L188.132,237.237 L188.18,237.27 L188.221,237.322 L188.253,237.389 L188.273,237.468 L188.28,237.553 L188.273,237.637 L188.253,237.716 L188.221,237.783 L188.18,237.835 L188.132,237.868 L188.08,237.879 L188.028,237.868 L187.98,237.835 L187.939,237.783 L187.907,237.716 L187.887,237.637 L187.88,237.553 L187.887,237.468"/>
  </g>
  <g class="cut IfcRailing" id="product-3ab8ee1d-07ad-41b9-8f24-a55884e7e651-body" ifc:guid="0wkEuT1wr1kOyafLY4v_PH" ifc:name="Railing:1100mm Guard Rail:151166">
   <path d="M178.311,227.5 L178.561,227.5 L178.561,227.25 L178.311,227.25 L178.311,227.5"/>
   <path d="M178.311,228.75 L178.561,228.75 L178.561,228.5 L178.311,228.5 L178.311,228.75"/>
   <path d="M178.311,230 L178.561,230 L178.561,229.75 L178.311,229.75 L178.311,230"/>
   <path d="M178.311,231.25 L178.561,231.25 L178.561,231 L178.311,231 L178.311,231.25"/>
   <path d="M178.311,232.5 L178.561,232.5 L178.561,232.25 L178.311,232.25 L178.311,232.5"/>
   <path d="M178.311,233.75 L178.561,233.75 L178.561,233.5 L178.311,233.5 L178.311,233.75"/>
   <path d="M178.311,235 L178.561,235 L178.561,234.75 L178.311,234.75 L178.311,235"/>
   <path d="M178.311,236.25 L178.561,236.25 L178.561,236 L178.311,236 L178.311,236.25"/>
   <path d="M178.311,237.5 L178.561,237.5 L178.561,237.25 L178.311,237.25 L178.311,237.5"/>
   <path d="M178.311,238.75 L178.561,238.75 L178.561,238.5 L178.311,238.5 L178.311,238.75"/>
   <path d="M178.336,239.125 L178.346,239.082 L178.374,239.047 L178.414,239.028 L178.458,239.028 L178.498,239.047 L178.526,239.082 L178.536,239.125 L178.526,239.168 L178.498,239.203 L178.458,239.222 L178.414,239.222 L178.374,239.203 L178.346,239.168 L178.336,239.125"/>
  </g>
  <g class="cut IfcDoor" id="product-7606d7eb-508f-40ce-a522-9b526ddc7201-body" ifc:guid="1s1jVhK8z0pgKYcr9jt781" ifc:name="M_Single-Glass 1:0813 x 2420mm:0813 x 2420mm:171853">
   <path d="M130.85,125.17 L130.85,125.42 L130.09,125.42 L130.09,125.17 L130.85,125.17 M139.74,125.17 L139.74,125.42 L138.98,125.42 L138.98,125.17 L139.74,125.17"/>
   <path d="M130.85,120.75 L130.85,121 L130.09,121 L130.09,120.75 L130.85,120.75 M139.74,120.75 L139.74,121 L138.98,121 L138.98,120.75 L139.74,120.75"/>
   <path d="M131.87,121.286 L137.96,121.286 L137.96,121.222 L131.87,121.222 L131.87,121.286"/>
   <path d="M130.85,121 L130.85,121.51 L131.87,121.51 L131.87,121 L130.85,121 M138.98,121.51 L138.98,121 L137.96,121 L137.96,121.51 L138.98,121.51"/>
  </g>
  <g class="cut IfcDoor" id="product-7606d7eb-508f-40ce-a522-9b526ddc728b-body" ifc:guid="1s1jVhK8z0pgKYcr9jt7AB" ifc:name="M_Single-Glass 1:0813 x 2420mm:0813 x 2420mm:171975">
   <path d="M166.15,294.83 L166.15,294.58 L166.91,294.58 L166.91,294.83 L166.15,294.83 M157.26,294.83 L157.26,294.58 L158.02,294.58 L158.02,294.83 L157.26,294.83"/>
   <path d="M166.15,299.25 L166.15,299 L166.91,299 L166.91,299.25 L166.15,299.25 M157.26,299.25 L157.26,299 L158.02,299 L158.02,299.25 L157.26,299.25"/>
   <path d="M165.13,298.714 L159.04,298.714 L159.04,298.778 L165.13,298.778 L165.13,298.714"/>
   <path d="M166.15,299 L166.15,298.49 L165.13,298.49 L165.13,299 L166.15,299 M158.02,298.49 L158.02,299 L159.04,299 L159.04,298.49 L158.02,298.49"/>
  </g>
  <g class="cut IfcWallStandardCase" id="product-2c391822-07f8-4a22-86a8-a1e57412d8c1-body" ifc:guid="0iEHWY1$XA8eQeeULq4jZ1" ifc:name="Basic Wall:Interior - Furring (152 mm Stud):189074">
   <path d="M144.8,196.82 L188.33,196.82 L188.33,195.3 L144.8,195.3 L144.8,196.82"/>
  </g>
  <g class="cut IfcWallStandardCase" id="product-2c391822-07f8-4a22-86a8-a1e57412df9e-body" ifc:guid="0iEHWY1$XA8eQeeULq4j_U" ifc:name="Basic Wall:Interior - Furring (152 mm Stud):189901">
   <path d="M144.8,196.82 L144.8,218.25 L146.32,218.25 L146.32,196.82 L144.8,196.82"/>
  </g>
  <g class="cut IfcWallStandardCase" id="product-2c391822-07f8-4a22-86a8-a1e57412dcef-body" ifc:guid="0iEHWY1$XA8eQeeULq4jpl" ifc:name="Basic Wall:Interior - Partition (92mm Stud):190140">
   <path d="M130.24,196.54 L144.8,196.54 L144.8,195.3 L130.24,195.3 L130.24,196.54"/>
  </g>
  <g class="cut IfcWallStandardCase" id="product-2c391822-07f8-4a22-86a8-a1e57412d365-body" ifc:guid="0iEHWY1$XA8eQeeULq4jDb" ifc:name="Basic Wall:Interior - Furring (152 mm Stud):190774">
   <path d="M152.2,224.7 L152.2,201.75 L150.68,201.75 L150.68,224.7 L152.2,224.7"/>
  </g>
  <g class="cut IfcWallStandardCase" id="product-2c391822-07f8-4a22-86a8-a1e57412d386-body" ifc:guid="0iEHWY1$XA8eQeeULq4jE6" ifc:name="Basic Wall:Interior - Furring (152 mm Stud):190933">
   <path d="M150.68,223.18 L108.67,223.18 L108.67,224.7 L150.68,224.7 L150.68,223.18"/>
  </g>
  <g class="cut IfcStairFlight" id="product-d45937bc-7a82-4da5-a08f-60c9c58f2b17-body" ifc:guid="3KMJUyUe9DfQ2FOCd5ZoiN" ifc:name="Stair:Residential - 200mm Max Riser 250mm Tread:198878:1">
   <path d="M109.17,195.975 L118.314,195.975 L118.314,195.85 L109.17,195.85 L109.17,195.975"/>
  </g>
  <g class="cut IfcMember" id="product-0153d284-719c-4549-860d-e953a515b5e2-body" ifc:guid="01KzA4SPn5IOODwLEb5RNY" ifc:name="Stair:Residential - 200mm Max Riser 250mm Tread:198878:1">
   <path d="M118.814,193.056 L118.314,193.056 L118.314,199.585 L118.814,199.585 L118.814,193.056"/>
  </g>
  <g class="cut IfcMember" id="product-c73fc240-b9c3-4267-9e6c-b3df161ce52f-body" ifc:guid="37Fy90kSD2PvviizyM7EKl" ifc:name="Stair:Residential - 200mm Max Riser 250mm Tread:198878:2">
   <path d="M109.17,193.056 L108.67,193.056 L108.67,199.585 L109.17,199.585 L109.17,193.056"/>
  </g>
  <g class="cut IfcRailing" id="product-81be7c96-ce56-447e-9d93-021422f83119-body" ifc:guid="21ldoMpbP4VfsJ0XGY_34P" ifc:name="Railing:900mm Handrail Only:198880">
   <path d="M109.113,182.532 L109.093,182.611 L109.061,182.678 L109.02,182.73 L108.972,182.763 L108.92,182.774 L108.868,182.763 L108.82,182.73 L108.779,182.678 L108.747,182.611 L108.727,182.532 L108.72,182.447 L108.727,182.363 L108.747,182.284 L108.779,182.217 L108.82,182.165 L108.868,182.132 L108.92,182.121 L108.972,182.132 L109.02,182.165 L109.061,182.217 L109.093,182.284 L109.113,182.363 L109.12,182.447 L109.113,182.532"/>
  </g>
  <g class="cut IfcRailing" id="product-81be7c96-ce56-447e-9d93-021422f830c5-body" ifc:guid="21ldoMpbP4VfsJ0XGY_335" ifc:name="Railing:1100mm Guard Rail:198972">
   <path d="M118.439,192.5 L118.689,192.5 L118.689,192.75 L118.439,192.75 L118.439,192.5"/>
   <path d="M118.439,191.25 L118.689,191.25 L118.689,191.5 L118.439,191.5 L118.439,191.25"/>
   <path d="M118.439,190 L118.689,190 L118.689,190.25 L118.439,190.25 L118.439,190"/>
   <path d="M118.439,188.75 L118.689,188.75 L118.689,189 L118.439,189 L118.439,188.75"/>
   <path d="M118.439,187.5 L118.689,187.5 L118.689,187.75 L118.439,187.75 L118.439,187.5"/>
   <path d="M118.439,186.25 L118.689,186.25 L118.689,186.5 L118.439,186.5 L118.439,186.25"/>
   <path d="M118.439,185 L118.689,185 L118.689,185.25 L118.439,185.25 L118.439,185"/>
   <path d="M118.439,183.75 L118.689,183.75 L118.689,184 L118.439,184 L118.439,183.75"/>
   <path d="M118.439,182.5 L118.689,182.5 L118.689,182.75 L118.439,182.75 L118.439,182.5"/>
   <path d="M118.439,181.25 L118.689,181.25 L118.689,181.5 L118.439,181.5 L118.439,181.25"/>
   <path d="M118.664,180.875 L118.654,180.918 L118.626,180.953 L118.586,180.972 L118.542,180.972 L118.502,180.953 L118.474,180.918 L118.464,180.875 L118.474,180.832 L118.502,180.797 L118.542,180.778 L118.586,180.778 L118.626,180.797 L118.654,180.832 L118.664,180.875"/>
  </g>
  <g class="projection">
   <path d="M187.83,239.25 L178.686,239.25"/>
   <path d="M187.83,236.75 L178.686,236.75"/>
   <path d="M187.83,234.25 L178.686,234.25"/>
   <path d="M187.83,231.75 L178.686,231.75"/>
   <path d="M187.83,229.25 L178.686,229.25"/>
   <path d="M187.83,226.75 L178.686,226.75"/>
   <path d="M187.83,224.25 L178.686,224.25"/>
   <path d="M187.83,221.75 L178.686,221.75"/>
   <path d="M187.83,219.25 L178.686,219.25"/>
   <path d="M187.83,216.75 L178.686,216.75"/>
   <path d="M187.83,214.25 L178.686,214.25"/>
   <path d="M187.83,211.75 L178.686,211.75"/>
   <path d="M187.83,209.25 L178.686,209.25"/>
   <path d="M187.83,206.75 L178.686,206.75"/>
   <path d="M187.83,204.25 L178.686,204.25"/>
   <path d="M118.314,180.75 L109.17,180.75"/>
   <path d="M118.314,183.25 L109.17,183.25"/>
   <path d="M118.314,185.75 L109.17,185.75"/>
   <path d="M118.314,188.25 L109.17,188.25"/>
   <path d="M118.314,190.75 L109.17,190.75"/>
   <path d="M118.314,193.25 L109.17,193.25"/>
   <path d="M118.314,195.75 L109.17,195.75"/>
   <path d="M118.314,198.25 L109.17,198.25"/>
   <path d="M118.314,200.75 L109.17,200.75"/>
   <path d="M118.314,203.25 L109.17,203.25"/>
   <path d="M118.314,205.75 L109.17,205.75"/>
   <path d="M118.314,208.25 L109.17,208.25"/>
   <path d="M118.314,210.75 L109.17,210.75"/>
   <path d="M118.314,213.25 L109.17,213.25"/>
   <path d="M118.314,215.75 L109.17,215.75"/>
   <path d="M104.5,125.17 L104.5,121"/>
   <path d="M192.5,125.17 L192.5,121"/>
   <path d="M104.5,125.17 L192.5,125.17"/>
   <path d="M104.5,121 L192.5,121"/>
   <path d="M188.33,125.17 L192.5,125.17"/>
   <path d="M188.33,299 L192.5,299"/>
   <path d="M188.33,125.17 L188.33,299"/>
   <path d="M192.5,125.17 L192.5,299"/>
   <path d="M188.33,294.83 L188.33,299"/>
   <path d="M104.5,294.83 L104.5,299"/>
   <path d="M188.33,294.83 L104.5,294.83"/>
   <path d="M188.33,299 L104.5,299"/>
   <path d="M108.67,294.83 L104.5,294.83"/>
   <path d="M108.67,125.17 L104.5,125.17"/>
   <path d="M108.67,294.83 L108.67,125.17"/>
   <path d="M104.5,294.83 L104.5,125.17"/>
   <path d="M130.5,161 L130.5,125.17"/>
   <path d="M129.26,125.17 L129.26,161"/>
   <path d="M129.26,161 L130.5,161"/>
   <path d="M129,189.05 L130.24,189.05"/>
   <path d="M129,218.25 L130.24,218.25"/>
   <path d="M129,189.05 L129,218.25"/>
   <path d="M130.24,189.05 L130.24,218.25"/>
   <path d="M146.32,196.82 L188.33,196.82"/>
   <path d="M146.32,201.75 L177.736,201.75"/>
   <path d="M178.136,201.75 L178.186,201.75"/>
   <path d="M150.68,223.18 L150.68,218.25"/>
   <path d="M150.68,223.18 L108.67,223.18"/>
   <path d="M150.68,218.25 L146.32,218.25"/>
   <path d="M144.8,218.25 L119.264,218.25"/>
   <path d="M118.864,218.25 L118.814,218.25"/>
   <path d="M151.25,199 L146.32,199"/>
   <path d="M151.25,201.75 L151.25,199"/>
   <path d="M151.25,201.75 L150.68,201.75"/>
   <path d="M150.68,201.75 L150.68,218.25"/>
   <path d="M151.25,218.25 L150.68,218.25"/>
   <path d="M151.25,221 L151.25,218.25"/>
   <path d="M145.75,221 L151.25,221"/>
   <path d="M145.75,218.25 L145.75,221"/>
   <path d="M168,230.95 L166.76,230.95"/>
   <path d="M168,201.75 L166.76,201.75"/>
   <path d="M168,230.95 L168,201.75"/>
   <path d="M166.76,230.95 L166.76,201.75"/>
   <path d="M166.76,223.46 L152.2,223.46"/>
   <path d="M152.2,223.46 L152.2,224.7"/>
   <path d="M152.2,224.7 L166.76,224.7"/>
   <path d="M166.76,224.7 L166.76,223.46"/>
   <path d="M167.74,294.83 L167.74,259"/>
   <path d="M167.74,259 L166.5,259"/>
   <path d="M166.5,259 L166.5,294.83"/>
   <path d="M192.5,275.77 L192.75,275.77"/>
   <path d="M192.5,289.79 L192.75,289.79"/>
   <path d="M192.75,275.77 L192.75,289.79"/>
   <path d="M188.08,275.77 L188.33,275.77"/>
   <path d="M188.08,289.79 L188.33,289.79"/>
   <path d="M188.08,275.77 L188.08,289.79"/>
   <path d="M104.5,144.23 L104.25,144.23"/>
   <path d="M104.5,130.21 L104.25,130.21"/>
   <path d="M104.25,144.23 L104.25,130.21"/>
   <path d="M108.92,144.23 L108.67,144.23"/>
   <path d="M108.92,130.21 L108.67,130.21"/>
   <path d="M108.92,144.23 L108.92,130.21"/>
   <path d="M166.51,213.15 L166.76,213.15"/>
   <path d="M166.51,222.29 L166.76,222.29"/>
   <path d="M166.51,213.15 L166.51,222.29"/>
   <path d="M168,213.15 L168.25,213.15"/>
   <path d="M168,222.29 L168.25,222.29"/>
   <path d="M168.25,213.15 L168.25,222.29"/>
   <path d="M130.49,206.87 L130.24,206.87"/>
   <path d="M130.49,197.73 L130.24,197.73"/>
   <path d="M130.49,206.87 L130.49,197.73"/>
   <path d="M129,206.87 L128.75,206.87"/>
   <path d="M129,197.73 L128.75,197.73"/>
   <path d="M128.75,206.87 L128.75,197.73"/>
   <path d="M178.686,201.65 L178.686,201.75"/>
   <path d="M187.83,201.65 L187.83,201.75"/>
   <path d="M187.83,201.525 L178.686,201.525"/>
   <path d="M178.686,201.525 L178.686,201.65"/>
   <path d="M178.686,201.65 L187.83,201.65"/>
   <path d="M187.83,201.65 L187.83,201.525"/>
   <path d="M187.83,201.75 L187.88,201.75"/>
   <path d="M187.887,201.75 L188.273,201.75"/>
   <path d="M188.28,201.75 L188.33,201.75"/>
   <path d="M187.83,202.428 L187.88,202.428"/>
   <path d="M188.28,202.428 L188.33,202.428"/>
   <path d="M187.83,201.75 L187.83,202.428"/>
   <path d="M188.33,201.75 L188.33,202.428"/>
   <path d="M187.83,239.25 L187.88,239.25"/>
   <path d="M188.28,239.25 L188.33,239.25"/>
   <path d="M187.83,202.428 L187.83,239.25"/>
   <path d="M178.186,201.75 L178.236,201.75"/>
   <path d="M178.636,201.75 L178.686,201.75"/>
   <path d="M178.186,202.428 L178.236,202.428"/>
   <path d="M178.636,202.428 L178.686,202.428"/>
   <path d="M178.186,201.75 L178.186,202.428"/>
   <path d="M178.686,201.75 L178.686,202.428"/>
   <path d="M178.186,239.25 L178.236,239.25"/>
   <path d="M178.629,239.25 L178.686,239.25"/>
   <path d="M178.186,202.428 L178.186,239.25"/>
   <path d="M178.686,202.428 L178.686,239.25"/>
   <path d="M188.28,239.25 L188.273,239.25"/>
   <path d="M187.88,239.25 L187.887,239.25"/>
   <path d="M188.28,201.75 L188.273,201.75"/>
   <path d="M188.273,201.75 L188.221,201.75"/>
   <path d="M188.221,201.75 L188.132,201.75"/>
   <path d="M188.132,201.75 L188.028,201.75"/>
   <path d="M188.028,201.75 L187.939,201.75"/>
   <path d="M187.939,201.75 L187.887,201.75"/>
   <path d="M187.88,201.75 L187.887,201.75"/>
   <path d="M187.887,201.75 L187.939,201.75"/>
   <path d="M187.939,201.75 L188.028,201.75"/>
   <path d="M188.028,201.75 L188.132,201.75"/>
   <path d="M188.132,201.75 L188.221,201.75"/>
   <path d="M188.221,201.75 L188.273,201.75"/>
   <path d="M187.88,239.25 L187.88,201.75"/>
   <path d="M188.028,201.75 L188.08,201.75"/>
   <path d="M188.08,201.75 L188.08,239.25"/>
   <path d="M188.28,239.25 L188.28,201.75"/>
   <path d="M188.132,201.75 L188.08,201.75"/>
   <path d="M188.273,239.25 L188.273,201.75"/>
   <path d="M188.273,201.75 L188.253,201.75"/>
   <path d="M188.253,201.75 L188.253,239.25"/>
   <path d="M188.273,239.25 L188.253,239.25"/>
   <path d="M188.18,239.25 L188.18,201.75"/>
   <path d="M188.221,239.25 L188.18,239.25"/>
   <path d="M188.221,239.25 L188.221,201.75"/>
   <path d="M188.221,201.75 L188.18,201.75"/>
   <path d="M188.221,201.75 L188.253,201.75"/>
   <path d="M188.221,239.25 L188.253,239.25"/>
   <path d="M188.132,201.75 L188.18,201.75"/>
   <path d="M188.132,239.25 L188.132,201.75"/>
   <path d="M188.132,239.25 L188.18,239.25"/>
   <path d="M188.132,239.25 L188.08,239.25"/>
   <path d="M188.08,239.25 L188.08,201.75"/>
   <path d="M188.132,201.75 L188.08,201.75"/>
   <path d="M188.028,239.25 L188.08,239.25"/>
   <path d="M188.028,239.25 L188.028,201.75"/>
   <path d="M188.028,201.75 L188.08,201.75"/>
   <path d="M188.028,239.25 L187.98,239.25"/>
   <path d="M188.028,201.75 L187.98,201.75"/>
   <path d="M187.98,201.75 L187.98,239.25"/>
   <path d="M187.939,239.25 L187.939,201.75"/>
   <path d="M187.939,239.25 L187.907,239.25"/>
   <path d="M187.907,201.75 L187.907,239.25"/>
   <path d="M187.939,201.75 L187.907,201.75"/>
   <path d="M187.939,201.75 L187.98,201.75"/>
   <path d="M187.939,239.25 L187.98,239.25"/>
   <path d="M187.887,239.25 L187.907,239.25"/>
   <path d="M187.887,239.25 L187.887,201.75"/>
   <path d="M187.887,201.75 L187.907,201.75"/>
   <path d="M178.236,239.25 L178.243,239.25"/>
   <path d="M178.629,239.25 L178.636,239.25"/>
   <path d="M178.636,239.25 L178.629,239.25"/>
   <path d="M178.629,201.699 L178.636,201.682"/>
   <path d="M178.629,239.25 L178.629,201.699"/>
   <path d="M178.636,239.25 L178.636,201.682"/>
   <path d="M178.629,201.699 L178.609,201.716"/>
   <path d="M178.609,201.716 L178.609,239.25"/>
   <path d="M178.629,239.25 L178.609,239.25"/>
   <path d="M178.536,239.25 L178.536,201.741"/>
   <path d="M178.577,201.73 L178.536,201.741"/>
   <path d="M178.577,239.25 L178.577,201.73"/>
   <path d="M178.577,239.25 L178.536,239.25"/>
   <path d="M178.609,201.716 L178.577,201.73"/>
   <path d="M178.577,239.25 L178.609,239.25"/>
   <path d="M178.488,239.25 L178.488,201.748"/>
   <path d="M178.536,201.741 L178.488,201.748"/>
   <path d="M178.488,239.25 L178.536,239.25"/>
   <path d="M178.488,239.25 L178.436,239.25"/>
   <path d="M178.436,239.25 L178.436,201.75"/>
   <path d="M178.488,201.748 L178.436,201.75"/>
   <path d="M178.384,239.25 L178.436,239.25"/>
   <path d="M178.436,201.75 L178.384,201.748"/>
   <path d="M178.384,239.25 L178.384,201.748"/>
   <path d="M178.384,201.748 L178.336,201.741"/>
   <path d="M178.384,239.25 L178.336,239.25"/>
   <path d="M178.336,201.741 L178.336,239.25"/>
   <path d="M178.295,239.25 L178.295,201.73"/>
   <path d="M178.295,239.25 L178.263,239.25"/>
   <path d="M178.263,201.716 L178.263,239.25"/>
   <path d="M178.295,201.73 L178.263,201.716"/>
   <path d="M178.295,239.25 L178.336,239.25"/>
   <path d="M178.336,201.741 L178.295,201.73"/>
   <path d="M178.263,201.716 L178.243,201.699"/>
   <path d="M178.243,239.25 L178.243,201.699"/>
   <path d="M178.243,239.25 L178.263,239.25"/>
   <path d="M178.236,239.25 L178.236,201.682"/>
   <path d="M178.243,201.699 L178.236,201.682"/>
   <path d="M178.384,239.25 L178.336,239.25"/>
   <path d="M178.295,239.25 L178.263,239.25"/>
   <path d="M178.488,239.25 L178.536,239.25"/>
   <path d="M177.736,201.2 L178.636,201.2"/>
   <path d="M177.736,201.2 L177.743,201.207"/>
   <path d="M177.743,201.207 L178.629,201.207"/>
   <path d="M178.629,201.207 L178.636,201.2"/>
   <path d="M177.743,201.207 L177.763,201.227"/>
   <path d="M177.763,201.227 L178.609,201.227"/>
   <path d="M178.629,201.207 L178.609,201.227"/>
   <path d="M177.795,201.259 L178.577,201.259"/>
   <path d="M177.795,201.259 L177.836,201.3"/>
   <path d="M177.836,201.3 L178.536,201.3"/>
   <path d="M178.536,201.3 L178.577,201.259"/>
   <path d="M177.763,201.227 L177.795,201.259"/>
   <path d="M178.609,201.227 L178.577,201.259"/>
   <path d="M177.836,201.3 L177.884,201.348"/>
   <path d="M177.884,201.348 L178.488,201.348"/>
   <path d="M178.536,201.3 L178.488,201.348"/>
   <path d="M178.436,201.4 L177.936,201.4"/>
   <path d="M178.488,201.348 L178.436,201.4"/>
   <path d="M177.884,201.348 L177.936,201.4"/>
   <path d="M177.988,201.452 L178.384,201.452"/>
   <path d="M177.988,201.452 L178.036,201.5"/>
   <path d="M178.036,201.5 L178.336,201.5"/>
   <path d="M178.336,201.5 L178.384,201.452"/>
   <path d="M177.936,201.4 L177.988,201.452"/>
   <path d="M178.436,201.4 L178.384,201.452"/>
   <path d="M178.263,201.573 L178.109,201.573"/>
   <path d="M178.263,201.573 L178.243,201.593"/>
   <path d="M178.243,201.593 L178.129,201.593"/>
   <path d="M178.129,201.593 L178.109,201.573"/>
   <path d="M178.295,201.541 L178.077,201.541"/>
   <path d="M178.263,201.573 L178.295,201.541"/>
   <path d="M178.109,201.573 L178.077,201.541"/>
   <path d="M178.036,201.5 L178.077,201.541"/>
   <path d="M178.336,201.5 L178.295,201.541"/>
   <path d="M178.136,201.6 L178.236,201.6"/>
   <path d="M178.129,201.593 L178.136,201.6"/>
   <path d="M178.243,201.593 L178.236,201.6"/>
   <path d="M178.136,236.45 L178.129,236.45"/>
   <path d="M177.736,236.45 L177.743,236.45"/>
   <path d="M177.743,236.45 L177.763,236.45"/>
   <path d="M177.763,236.45 L177.795,236.45"/>
   <path d="M177.795,236.45 L177.836,236.45"/>
   <path d="M177.836,236.45 L177.884,236.45"/>
   <path d="M177.884,236.45 L177.936,236.45"/>
   <path d="M177.936,236.45 L177.988,236.45"/>
   <path d="M177.988,236.45 L178.036,236.45"/>
   <path d="M178.036,236.45 L178.077,236.45"/>
   <path d="M178.077,236.45 L178.109,236.45"/>
   <path d="M178.109,236.45 L178.129,236.45"/>
   <path d="M177.736,201.2 L177.736,236.45"/>
   <path d="M177.743,201.207 L177.743,236.45"/>
   <path d="M177.763,201.227 L177.763,236.45"/>
   <path d="M177.795,201.259 L177.795,236.45"/>
   <path d="M177.836,201.3 L177.836,236.45"/>
   <path d="M177.884,201.348 L177.884,236.45"/>
   <path d="M177.936,201.4 L177.936,236.45"/>
   <path d="M177.988,201.452 L177.988,236.45"/>
   <path d="M178.036,201.5 L178.036,236.45"/>
   <path d="M178.077,201.541 L178.077,236.45"/>
   <path d="M178.109,201.573 L178.109,236.45"/>
   <path d="M178.129,201.593 L178.129,236.45"/>
   <path d="M178.136,201.6 L178.136,236.45"/>
   <path d="M178.636,201.682 L178.636,201.2"/>
   <path d="M178.629,201.699 L178.629,201.207"/>
   <path d="M178.609,201.716 L178.609,201.227"/>
   <path d="M178.577,201.73 L178.577,201.259"/>
   <path d="M178.536,201.741 L178.536,201.3"/>
   <path d="M178.488,201.748 L178.488,201.348"/>
   <path d="M178.436,201.75 L178.436,201.4"/>
   <path d="M178.384,201.748 L178.384,201.452"/>
   <path d="M178.336,201.741 L178.336,201.5"/>
   <path d="M178.263,201.716 L178.263,201.573"/>
   <path d="M178.243,201.699 L178.243,201.593"/>
   <path d="M178.295,201.73 L178.295,201.541"/>
   <path d="M178.236,201.682 L178.236,201.6"/>
   <path d="M164.737,189.046 L165.753,189.046"/>
   <path d="M159.927,189.046 L160.943,189.046"/>
   <path d="M163.189,189.046 L163.316,189.046"/>
   <path d="M162.364,189.046 L162.491,189.046"/>
   <path d="M165.753,189.046 L165.753,189.05"/>
   <path d="M164.737,189.046 L164.737,189.05"/>
   <path d="M160.943,189.046 L160.943,189.05"/>
   <path d="M159.927,189.046 L159.927,189.05"/>
   <path d="M163.316,189.046 L163.316,189.05"/>
   <path d="M163.189,189.046 L163.189,189.05"/>
   <path d="M162.491,189.046 L162.491,189.05"/>
   <path d="M162.364,189.046 L162.364,189.05"/>
   <path d="M154.737,189.046 L155.753,189.046"/>
   <path d="M149.927,189.046 L150.943,189.046"/>
   <path d="M153.189,189.046 L153.316,189.046"/>
   <path d="M152.364,189.046 L152.491,189.046"/>
   <path d="M155.753,189.046 L155.753,189.05"/>
   <path d="M154.737,189.046 L154.737,189.05"/>
   <path d="M150.943,189.046 L150.943,189.05"/>
   <path d="M149.927,189.046 L149.927,189.05"/>
   <path d="M153.316,189.046 L153.316,189.05"/>
   <path d="M153.189,189.046 L153.189,189.05"/>
   <path d="M152.491,189.046 L152.491,189.05"/>
   <path d="M152.364,189.046 L152.364,189.05"/>
   <path d="M137.137,189.046 L138.153,189.046"/>
   <path d="M132.327,189.046 L133.343,189.046"/>
   <path d="M135.589,189.046 L135.716,189.046"/>
   <path d="M134.764,189.046 L134.891,189.046"/>
   <path d="M138.153,189.046 L138.153,189.05"/>
   <path d="M137.137,189.046 L137.137,189.05"/>
   <path d="M133.343,189.046 L133.343,189.05"/>
   <path d="M132.327,189.046 L132.327,189.05"/>
   <path d="M135.716,189.046 L135.716,189.05"/>
   <path d="M135.589,189.046 L135.589,189.05"/>
   <path d="M134.891,189.046 L134.891,189.05"/>
   <path d="M134.764,189.046 L134.764,189.05"/>
   <path d="M133.343,179.254 L132.327,179.254"/>
   <path d="M138.153,179.254 L137.137,179.254"/>
   <path d="M134.891,179.254 L134.764,179.254"/>
   <path d="M135.716,179.254 L135.589,179.254"/>
   <path d="M132.327,179.254 L132.327,179.13"/>
   <path d="M133.343,179.254 L133.343,179.13"/>
   <path d="M137.137,179.254 L137.137,179.13"/>
   <path d="M138.153,179.254 L138.153,179.13"/>
   <path d="M134.764,179.254 L134.764,179.13"/>
   <path d="M134.891,179.254 L134.891,179.13"/>
   <path d="M135.589,179.254 L135.589,179.13"/>
   <path d="M135.716,179.254 L135.716,179.13"/>
   <path d="M143.343,179.254 L142.327,179.254"/>
   <path d="M148.153,179.254 L147.137,179.254"/>
   <path d="M144.891,179.254 L144.764,179.254"/>
   <path d="M145.716,179.254 L145.589,179.254"/>
   <path d="M142.327,179.254 L142.327,179.13"/>
   <path d="M143.343,179.254 L143.343,179.13"/>
   <path d="M147.137,179.254 L147.137,179.13"/>
   <path d="M148.153,179.254 L148.153,179.13"/>
   <path d="M144.764,179.254 L144.764,179.13"/>
   <path d="M144.891,179.254 L144.891,179.13"/>
   <path d="M145.589,179.254 L145.589,179.13"/>
   <path d="M145.716,179.254 L145.716,179.13"/>
   <path d="M153.343,179.254 L152.327,179.254"/>
   <path d="M158.153,179.254 L157.137,179.254"/>
   <path d="M154.891,179.254 L154.764,179.254"/>
   <path d="M155.716,179.254 L155.589,179.254"/>
   <path d="M152.327,179.254 L152.327,179.13"/>
   <path d="M153.343,179.254 L153.343,179.13"/>
   <path d="M157.137,179.254 L157.137,179.13"/>
   <path d="M158.153,179.254 L158.153,179.13"/>
   <path d="M154.764,179.254 L154.764,179.13"/>
   <path d="M154.891,179.254 L154.891,179.13"/>
   <path d="M155.589,179.254 L155.589,179.13"/>
   <path d="M155.716,179.254 L155.716,179.13"/>
   <path d="M163.343,179.254 L162.327,179.254"/>
   <path d="M168.153,179.254 L167.137,179.254"/>
   <path d="M164.891,179.254 L164.764,179.254"/>
   <path d="M165.716,179.254 L165.589,179.254"/>
   <path d="M162.327,179.254 L162.327,179.13"/>
   <path d="M163.343,179.254 L163.343,179.13"/>
   <path d="M167.137,179.254 L167.137,179.13"/>
   <path d="M168.153,179.254 L168.153,179.13"/>
   <path d="M164.764,179.254 L164.764,179.13"/>
   <path d="M164.891,179.254 L164.891,179.13"/>
   <path d="M165.589,179.254 L165.589,179.13"/>
   <path d="M165.716,179.254 L165.716,179.13"/>
   <path d="M132.263,230.954 L131.247,230.954"/>
   <path d="M137.073,230.954 L136.057,230.954"/>
   <path d="M133.811,230.954 L133.684,230.954"/>
   <path d="M134.636,230.954 L134.509,230.954"/>
   <path d="M131.247,230.954 L131.247,230.95"/>
   <path d="M132.263,230.954 L132.263,230.95"/>
   <path d="M136.057,230.954 L136.057,230.95"/>
   <path d="M137.073,230.954 L137.073,230.95"/>
   <path d="M133.684,230.954 L133.684,230.95"/>
   <path d="M133.811,230.954 L133.811,230.95"/>
   <path d="M134.509,230.954 L134.509,230.95"/>
   <path d="M134.636,230.954 L134.636,230.95"/>
   <path d="M142.263,230.954 L141.247,230.954"/>
   <path d="M147.073,230.954 L146.057,230.954"/>
   <path d="M143.811,230.954 L143.684,230.954"/>
   <path d="M144.636,230.954 L144.509,230.954"/>
   <path d="M141.247,230.954 L141.247,230.95"/>
   <path d="M142.263,230.954 L142.263,230.95"/>
   <path d="M146.057,230.954 L146.057,230.95"/>
   <path d="M147.073,230.954 L147.073,230.95"/>
   <path d="M143.684,230.954 L143.684,230.95"/>
   <path d="M143.811,230.954 L143.811,230.95"/>
   <path d="M144.509,230.954 L144.509,230.95"/>
   <path d="M144.636,230.954 L144.636,230.95"/>
   <path d="M159.863,230.954 L158.847,230.954"/>
   <path d="M164.673,230.954 L163.657,230.954"/>
   <path d="M161.411,230.954 L161.284,230.954"/>
   <path d="M162.236,230.954 L162.109,230.954"/>
   <path d="M158.847,230.954 L158.847,230.95"/>
   <path d="M159.863,230.954 L159.863,230.95"/>
   <path d="M163.657,230.954 L163.657,230.95"/>
   <path d="M164.673,230.954 L164.673,230.95"/>
   <path d="M161.284,230.954 L161.284,230.95"/>
   <path d="M161.411,230.954 L161.411,230.95"/>
   <path d="M162.109,230.954 L162.109,230.95"/>
   <path d="M162.236,230.954 L162.236,230.95"/>
   <path d="M163.657,240.746 L164.673,240.746"/>
   <path d="M158.847,240.746 L159.863,240.746"/>
   <path d="M162.109,240.746 L162.236,240.746"/>
   <path d="M161.284,240.746 L161.411,240.746"/>
   <path d="M164.673,240.746 L164.673,240.87"/>
   <path d="M163.657,240.746 L163.657,240.87"/>
   <path d="M159.863,240.746 L159.863,240.87"/>
   <path d="M158.847,240.746 L158.847,240.87"/>
   <path d="M162.236,240.746 L162.236,240.87"/>
   <path d="M162.109,240.746 L162.109,240.87"/>
   <path d="M161.411,240.746 L161.411,240.87"/>
   <path d="M161.284,240.746 L161.284,240.87"/>
   <path d="M153.657,240.746 L154.673,240.746"/>
   <path d="M148.847,240.746 L149.863,240.746"/>
   <path d="M152.109,240.746 L152.236,240.746"/>
   <path d="M151.284,240.746 L151.411,240.746"/>
   <path d="M154.673,240.746 L154.673,240.87"/>
   <path d="M153.657,240.746 L153.657,240.87"/>
   <path d="M149.863,240.746 L149.863,240.87"/>
   <path d="M148.847,240.746 L148.847,240.87"/>
   <path d="M152.236,240.746 L152.236,240.87"/>
   <path d="M152.109,240.746 L152.109,240.87"/>
   <path d="M151.411,240.746 L151.411,240.87"/>
   <path d="M151.284,240.746 L151.284,240.87"/>
   <path d="M143.657,240.746 L144.673,240.746"/>
   <path d="M138.847,240.746 L139.863,240.746"/>
   <path d="M142.109,240.746 L142.236,240.746"/>
   <path d="M141.284,240.746 L141.411,240.746"/>
   <path d="M144.673,240.746 L144.673,240.87"/>
   <path d="M143.657,240.746 L143.657,240.87"/>
   <path d="M139.863,240.746 L139.863,240.87"/>
   <path d="M138.847,240.746 L138.847,240.87"/>
   <path d="M142.236,240.746 L142.236,240.87"/>
   <path d="M142.109,240.746 L142.109,240.87"/>
   <path d="M141.411,240.746 L141.411,240.87"/>
   <path d="M141.284,240.746 L141.284,240.87"/>
   <path d="M133.657,240.746 L134.673,240.746"/>
   <path d="M128.847,240.746 L129.863,240.746"/>
   <path d="M132.109,240.746 L132.236,240.746"/>
   <path d="M131.284,240.746 L131.411,240.746"/>
   <path d="M134.673,240.746 L134.673,240.87"/>
   <path d="M133.657,240.746 L133.657,240.87"/>
   <path d="M129.863,240.746 L129.863,240.87"/>
   <path d="M128.847,240.746 L128.847,240.87"/>
   <path d="M132.236,240.746 L132.236,240.87"/>
   <path d="M132.109,240.746 L132.109,240.87"/>
   <path d="M131.411,240.746 L131.411,240.87"/>
   <path d="M131.284,240.746 L131.284,240.87"/>
   <path d="M177.839,189.304 L177.84,189.304"/>
   <path d="M177.84,189.304 L177.84,195.3"/>
   <path d="M119.161,230.7 L119.16,230.7"/>
   <path d="M119.16,230.7 L119.16,224.7"/>
   <path d="M126.057,230.954 L127.073,230.954"/>
   <path d="M121.247,230.954 L122.263,230.954"/>
   <path d="M124.509,230.954 L124.636,230.954"/>
   <path d="M123.684,230.954 L123.811,230.954"/>
   <path d="M127.073,230.954 L127.073,230.95"/>
   <path d="M126.057,230.954 L126.057,230.95"/>
   <path d="M122.263,230.954 L122.263,230.95"/>
   <path d="M121.247,230.954 L121.247,230.95"/>
   <path d="M124.636,230.954 L124.636,230.95"/>
   <path d="M124.509,230.954 L124.509,230.95"/>
   <path d="M123.811,230.954 L123.811,230.95"/>
   <path d="M123.684,230.954 L123.684,230.95"/>
   <path d="M177.839,195.11 L147.839,195.11"/>
   <path d="M177.839,195.3 L177.839,195.11"/>
   <path d="M147.839,195.3 L147.839,195.11"/>
   <path d="M177.839,189.05 L147.839,189.05"/>
   <path d="M177.839,195.11 L177.839,189.05"/>
   <path d="M147.839,195.11 L147.839,189.05"/>
   <path d="M140.24,195.3 L140.24,195.109"/>
   <path d="M140.24,195.109 L130.24,195.109"/>
   <path d="M140.24,195.109 L140.24,189.05"/>
   <path d="M140.24,189.05 L130.24,189.05"/>
   <path d="M156.76,224.7 L156.76,224.891"/>
   <path d="M156.76,224.891 L166.76,224.891"/>
   <path d="M156.76,224.891 L156.76,230.95"/>
   <path d="M156.76,230.95 L166.76,230.95"/>
   <path d="M130.12,172.88 L130.12,173.071"/>
   <path d="M130.12,173.071 L170.36,173.071"/>
   <path d="M170.36,173.071 L170.36,172.88"/>
   <path d="M170.36,172.88 L130.12,172.88"/>
   <path d="M130.12,173.071 L130.12,179.13"/>
   <path d="M130.12,179.13 L170.36,179.13"/>
   <path d="M170.36,179.13 L170.36,173.071"/>
   <path d="M166.88,247.12 L166.88,246.93"/>
   <path d="M166.88,246.93 L126.64,246.93"/>
   <path d="M126.64,246.93 L126.64,247.12"/>
   <path d="M126.64,247.12 L166.88,247.12"/>
   <path d="M166.88,246.93 L166.88,240.87"/>
   <path d="M166.88,240.87 L126.64,240.87"/>
   <path d="M126.64,240.87 L126.64,246.93"/>
   <path d="M149.161,224.7 L149.161,224.891"/>
   <path d="M119.161,224.891 L149.161,224.891"/>
   <path d="M119.161,224.7 L119.161,224.891"/>
   <path d="M132.638,225.573 L132.444,225.612 L132.279,225.722 L132.169,225.887 L132.13,226.081"/>
   <path d="M132.13,229.099 L132.169,229.293 L132.279,229.458 L132.444,229.568 L132.638,229.607"/>
   <path d="M135.684,229.607 L135.878,229.568 L136.043,229.458 L136.153,229.293 L136.192,229.099"/>
   <path d="M136.192,226.081 L136.153,225.887 L136.043,225.722 L135.878,225.612 L135.684,225.573"/>
   <path d="M119.161,224.891 L119.161,230.95"/>
   <path d="M149.161,224.891 L149.161,230.95"/>
   <path d="M119.161,230.95 L149.161,230.95"/>
   <path d="M136.192,229.099 L136.192,226.081"/>
   <path d="M132.638,229.607 L135.684,229.607"/>
   <path d="M132.13,226.081 L132.13,229.099"/>
   <path d="M135.684,225.573 L132.638,225.573"/>
   <path d="M187.632,135.358 L187.632,152.642"/>
   <path d="M185.531,135.358 L185.608,135.358"/>
   <path d="M185.608,135.358 L185.801,135.358"/>
   <path d="M185.801,135.358 L186.108,135.358"/>
   <path d="M186.108,135.358 L187.124,135.358"/>
   <path d="M187.124,152.642 L186.108,152.642"/>
   <path d="M186.108,152.642 L185.801,152.642"/>
   <path d="M185.801,152.642 L185.608,152.642"/>
   <path d="M185.608,152.642 L185.531,152.642"/>
   <path d="M185.531,135.358 L185.531,152.642"/>
   <path d="M185.608,135.358 L185.608,152.642"/>
   <path d="M185.801,135.358 L185.801,152.642"/>
   <path d="M186.108,135.358 L186.108,152.642"/>
   <path d="M187.124,135.358 L187.124,152.642"/>
   <path d="M181.548,135.358 L181.548,152.642"/>
   <path d="M181.581,135.358 L181.581,152.642"/>
   <path d="M181.554,135.358 L181.554,152.642"/>
   <path d="M181.675,135.358 L181.675,152.642"/>
   <path d="M181.623,135.358 L181.623,152.642"/>
   <path d="M187.632,135.358 L187.632,134.85"/>
   <path d="M187.632,135.358 L187.124,135.358"/>
   <path d="M185.608,135.358 L181.028,135.358"/>
   <path d="M181.028,135.358 L181.028,134.85"/>
   <path d="M181.028,134.85 L187.632,134.85"/>
   <path d="M187.632,153.15 L187.632,152.642"/>
   <path d="M187.632,153.15 L181.028,153.15"/>
   <path d="M181.028,153.15 L181.028,152.642"/>
   <path d="M181.028,152.642 L185.608,152.642"/>
   <path d="M187.124,152.642 L187.632,152.642"/>
   <path d="M175.972,160.302 L158.688,160.302"/>
   <path d="M175.972,158.201 L175.972,158.278"/>
   <path d="M175.972,158.278 L175.972,158.471"/>
   <path d="M175.972,158.471 L175.972,158.778"/>
   <path d="M175.972,158.778 L175.972,159.794"/>
   <path d="M158.688,159.794 L158.688,158.778"/>
   <path d="M158.688,158.778 L158.688,158.471"/>
   <path d="M158.688,158.471 L158.688,158.278"/>
   <path d="M158.688,158.278 L158.688,158.201"/>
   <path d="M175.972,158.201 L158.688,158.201"/>
   <path d="M175.972,158.278 L158.688,158.278"/>
   <path d="M175.972,158.471 L158.688,158.471"/>
   <path d="M175.972,158.778 L158.688,158.778"/>
   <path d="M175.972,159.794 L158.688,159.794"/>
   <path d="M175.972,154.218 L158.688,154.218"/>
   <path d="M175.972,154.251 L158.688,154.251"/>
   <path d="M175.972,154.224 L158.688,154.224"/>
   <path d="M175.972,154.345 L158.688,154.345"/>
   <path d="M175.972,154.293 L158.688,154.293"/>
   <path d="M175.972,160.302 L176.48,160.302"/>
   <path d="M175.972,160.302 L175.972,159.794"/>
   <path d="M175.972,158.278 L175.972,153.698"/>
   <path d="M175.972,153.698 L176.48,153.698"/>
   <path d="M176.48,153.698 L176.48,160.302"/>
   <path d="M158.18,160.302 L158.688,160.302"/>
   <path d="M158.18,160.302 L158.18,153.698"/>
   <path d="M158.18,153.698 L158.688,153.698"/>
   <path d="M158.688,153.698 L158.688,158.278"/>
   <path d="M158.688,159.794 L158.688,160.302"/>
   <path d="M110.207,283.196 L110.207,265.912"/>
   <path d="M112.308,283.196 L112.231,283.196"/>
   <path d="M112.231,283.196 L112.038,283.196"/>
   <path d="M112.038,283.196 L111.731,283.196"/>
   <path d="M111.731,283.196 L110.715,283.196"/>
   <path d="M110.715,265.912 L111.731,265.912"/>
   <path d="M111.731,265.912 L112.038,265.912"/>
   <path d="M112.038,265.912 L112.231,265.912"/>
   <path d="M112.231,265.912 L112.308,265.912"/>
   <path d="M112.308,283.196 L112.308,265.912"/>
   <path d="M112.231,283.196 L112.231,265.912"/>
   <path d="M112.038,283.196 L112.038,265.912"/>
   <path d="M111.731,283.196 L111.731,265.912"/>
   <path d="M110.715,283.196 L110.715,265.912"/>
   <path d="M116.291,283.196 L116.291,265.912"/>
   <path d="M116.258,283.196 L116.258,265.912"/>
   <path d="M116.285,283.196 L116.285,265.912"/>
   <path d="M116.164,283.196 L116.164,265.912"/>
   <path d="M116.216,283.196 L116.216,265.912"/>
   <path d="M110.207,283.196 L110.207,283.704"/>
   <path d="M110.207,283.196 L110.715,283.196"/>
   <path d="M112.231,283.196 L116.811,283.196"/>
   <path d="M116.811,283.196 L116.811,283.704"/>
   <path d="M116.811,283.704 L110.207,283.704"/>
   <path d="M110.207,265.404 L110.207,265.912"/>
   <path d="M110.207,265.404 L116.811,265.404"/>
   <path d="M116.811,265.404 L116.811,265.912"/>
   <path d="M116.811,265.912 L112.231,265.912"/>
   <path d="M110.715,265.912 L110.207,265.912"/>
   <path d="M121.867,258.252 L139.151,258.252"/>
   <path d="M121.867,260.353 L121.867,260.276"/>
   <path d="M121.867,260.276 L121.867,260.082"/>
   <path d="M121.867,260.082 L121.867,259.776"/>
   <path d="M121.867,259.776 L121.867,258.76"/>
   <path d="M139.151,258.76 L139.151,259.776"/>
   <path d="M139.151,259.776 L139.151,260.082"/>
   <path d="M139.151,260.082 L139.151,260.276"/>
   <path d="M139.151,260.276 L139.151,260.353"/>
   <path d="M121.867,260.353 L139.151,260.353"/>
   <path d="M121.867,260.276 L139.151,260.276"/>
   <path d="M121.867,260.082 L139.151,260.082"/>
   <path d="M121.867,259.776 L139.151,259.776"/>
   <path d="M121.867,258.76 L139.151,258.76"/>
   <path d="M121.867,264.336 L139.151,264.336"/>
   <path d="M121.867,264.303 L139.151,264.303"/>
   <path d="M121.867,264.329 L139.151,264.329"/>
   <path d="M121.867,264.209 L139.151,264.209"/>
   <path d="M121.867,264.26 L139.151,264.26"/>
   <path d="M121.867,258.252 L121.359,258.252"/>
   <path d="M121.867,258.252 L121.867,258.76"/>
   <path d="M121.867,260.276 L121.867,264.856"/>
   <path d="M121.867,264.856 L121.359,264.856"/>
   <path d="M121.359,264.856 L121.359,258.252"/>
   <path d="M139.659,258.252 L139.151,258.252"/>
   <path d="M139.659,258.252 L139.659,264.856"/>
   <path d="M139.659,264.856 L139.151,264.856"/>
   <path d="M139.151,264.856 L139.151,260.276"/>
   <path d="M139.151,258.76 L139.151,258.252"/>
   <path d="M183.364,154.966 L179.296,154.966"/>
   <path d="M179.296,154.966 L179.296,159.034"/>
   <path d="M179.296,159.034 L183.364,159.034"/>
   <path d="M183.364,159.034 L183.364,154.966"/>
   <path d="M184.38,153.95 L178.28,153.95"/>
   <path d="M178.28,153.95 L178.28,160.05"/>
   <path d="M178.28,160.05 L184.38,160.05"/>
   <path d="M184.38,160.05 L184.38,153.95"/>
   <path d="M183.364,154.966 L183.364,159.034"/>
   <path d="M183.364,159.034 L179.296,159.034"/>
   <path d="M179.296,159.034 L179.296,154.966"/>
   <path d="M179.296,154.966 L183.364,154.966"/>
   <path d="M186.364,128.136 L182.296,128.136"/>
   <path d="M182.296,128.136 L182.296,132.204"/>
   <path d="M182.296,132.204 L186.364,132.204"/>
   <path d="M186.364,132.204 L186.364,128.136"/>
   <path d="M187.38,127.12 L181.28,127.12"/>
   <path d="M181.28,127.12 L181.28,133.22"/>
   <path d="M181.28,133.22 L187.38,133.22"/>
   <path d="M187.38,133.22 L187.38,127.12"/>
   <path d="M186.364,128.136 L186.364,132.204"/>
   <path d="M186.364,132.204 L182.296,132.204"/>
   <path d="M182.296,132.204 L182.296,128.136"/>
   <path d="M182.296,128.136 L186.364,128.136"/>
   <path d="M114.475,263.588 L118.543,263.588"/>
   <path d="M118.543,263.588 L118.543,259.52"/>
   <path d="M118.543,259.52 L114.475,259.52"/>
   <path d="M114.475,259.52 L114.475,263.588"/>
   <path d="M113.459,264.604 L119.559,264.604"/>
   <path d="M119.559,264.604 L119.559,258.504"/>
   <path d="M119.559,258.504 L113.459,258.504"/>
   <path d="M113.459,258.504 L113.459,264.604"/>
   <path d="M114.475,263.588 L114.475,259.52"/>
   <path d="M114.475,259.52 L118.543,259.52"/>
   <path d="M118.543,259.52 L118.543,263.588"/>
   <path d="M118.543,263.588 L114.475,263.588"/>
   <path d="M111.475,290.418 L115.543,290.418"/>
   <path d="M115.543,290.418 L115.543,286.35"/>
   <path d="M115.543,286.35 L111.475,286.35"/>
   <path d="M111.475,286.35 L111.475,290.418"/>
   <path d="M110.459,291.434 L116.559,291.434"/>
   <path d="M116.559,291.434 L116.559,285.334"/>
   <path d="M116.559,285.334 L110.459,285.334"/>
   <path d="M110.459,285.334 L110.459,291.434"/>
   <path d="M111.475,290.418 L111.475,286.35"/>
   <path d="M111.475,286.35 L115.543,286.35"/>
   <path d="M115.543,286.35 L115.543,290.418"/>
   <path d="M115.543,290.418 L111.475,290.418"/>
   <path d="M175.464,139.611 L159.196,139.611"/>
   <path d="M159.196,139.611 L159.196,146.729"/>
   <path d="M159.196,146.729 L175.464,146.729"/>
   <path d="M175.464,146.729 L175.464,139.611"/>
   <path d="M176.48,138.595 L158.18,138.595"/>
   <path d="M158.18,138.595 L158.18,147.745"/>
   <path d="M158.18,147.745 L176.48,147.745"/>
   <path d="M176.48,147.745 L176.48,138.595"/>
   <path d="M175.464,139.611 L175.464,146.729"/>
   <path d="M175.464,146.729 L159.196,146.729"/>
   <path d="M159.196,146.729 L159.196,139.611"/>
   <path d="M159.196,139.611 L175.464,139.611"/>
   <path d="M122.375,278.943 L138.643,278.943"/>
   <path d="M138.643,278.943 L138.643,271.825"/>
   <path d="M138.643,271.825 L122.375,271.825"/>
   <path d="M122.375,271.825 L122.375,278.943"/>
   <path d="M121.359,279.959 L139.659,279.959"/>
   <path d="M139.659,279.959 L139.659,270.809"/>
   <path d="M139.659,270.809 L121.359,270.809"/>
   <path d="M121.359,270.809 L121.359,279.959"/>
   <path d="M122.375,278.943 L122.375,271.825"/>
   <path d="M122.375,271.825 L138.643,271.825"/>
   <path d="M138.643,271.825 L138.643,278.943"/>
   <path d="M138.643,278.943 L122.375,278.943"/>
   <path d="M108.67,247 L126.64,247"/>
   <path d="M166.76,240.87 L166.76,230.95"/>
   <path d="M188.33,173 L170.36,173"/>
   <path d="M130.24,179.13 L130.24,189.05"/>
   <path d="M139.74,125.17 L139.74,125.42"/>
   <path d="M130.5,125.42 L139.74,125.42"/>
   <path d="M130.09,120.75 L130.09,121"/>
   <path d="M139.74,120.75 L139.74,121"/>
   <path d="M130.09,120.75 L139.74,120.75"/>
   <path d="M157.26,294.83 L157.26,294.58"/>
   <path d="M166.5,294.58 L157.26,294.58"/>
   <path d="M166.91,299.25 L166.91,299"/>
   <path d="M157.26,299.25 L157.26,299"/>
   <path d="M166.91,299.25 L157.26,299.25"/>
   <path d="M185.915,299 L185.915,301.415"/>
   <path d="M185.915,301.415 L194.915,301.415"/>
   <path d="M194.915,301.415 L194.915,118.585"/>
   <path d="M194.915,118.585 L188.5,118.585"/>
   <path d="M102.085,301.415 L108.5,301.415"/>
   <path d="M166.5,301.415 L185.915,301.415"/>
   <path d="M185.915,301.415 L185.915,299"/>
   <path d="M104.5,292.415 L102.085,292.415"/>
   <path d="M102.085,292.415 L102.085,301.415"/>
   <path d="M102.085,118.585 L102.085,292.415"/>
   <path d="M102.085,292.415 L104.5,292.415"/>
   <path d="M111.085,121 L111.085,118.585"/>
   <path d="M111.085,118.585 L102.085,118.585"/>
   <path d="M130.5,118.585 L111.085,118.585"/>
   <path d="M111.085,118.585 L111.085,121"/>
   <path d="M146.32,196.82 L188.33,196.82"/>
   <path d="M188.33,195.3 L144.8,195.3"/>
   <path d="M144.8,195.3 L144.8,196.82"/>
   <path d="M144.8,196.82 L144.8,218.25"/>
   <path d="M144.8,218.25 L146.32,218.25"/>
   <path d="M146.32,218.25 L146.32,196.82"/>
   <path d="M146.32,196.82 L144.8,196.82"/>
   <path d="M130.24,196.54 L144.8,196.54"/>
   <path d="M144.8,196.54 L144.8,195.3"/>
   <path d="M144.8,195.3 L130.24,195.3"/>
   <path d="M130.24,195.3 L130.24,196.54"/>
   <path d="M152.2,224.7 L152.2,201.75"/>
   <path d="M152.2,201.75 L150.68,201.75"/>
   <path d="M150.68,201.75 L150.68,224.7"/>
   <path d="M150.68,224.7 L152.2,224.7"/>
   <path d="M150.68,223.18 L108.67,223.18"/>
   <path d="M108.67,224.7 L150.68,224.7"/>
   <path d="M150.68,224.7 L150.68,223.18"/>
   <path d="M109.17,218.25 L109.17,218.35"/>
   <path d="M118.314,218.25 L118.314,218.35"/>
   <path d="M109.17,218.475 L118.314,218.475"/>
   <path d="M118.314,218.475 L118.314,218.35"/>
   <path d="M118.314,218.35 L109.17,218.35"/>
   <path d="M109.17,218.35 L109.17,218.475"/>
   <path d="M118.314,180.75 L118.364,180.75"/>
   <path d="M118.764,180.75 L118.814,180.75"/>
   <path d="M118.314,217.572 L118.364,217.572"/>
   <path d="M118.764,217.572 L118.814,217.572"/>
   <path d="M118.314,180.75 L118.314,217.572"/>
   <path d="M118.814,180.75 L118.814,217.572"/>
   <path d="M118.314,218.25 L118.364,218.25"/>
   <path d="M118.764,218.25 L118.814,218.25"/>
   <path d="M118.314,217.572 L118.314,218.25"/>
   <path d="M118.814,217.572 L118.814,218.25"/>
   <path d="M108.67,180.75 L108.72,180.75"/>
   <path d="M109.12,180.75 L109.17,180.75"/>
   <path d="M108.67,217.572 L108.72,217.572"/>
   <path d="M109.12,217.572 L109.17,217.572"/>
   <path d="M109.17,180.75 L109.17,217.572"/>
   <path d="M108.67,218.25 L108.72,218.25"/>
   <path d="M109.12,218.25 L109.17,218.25"/>
   <path d="M108.67,217.572 L108.67,218.25"/>
   <path d="M109.17,217.572 L109.17,218.25"/>
   <path d="M108.72,180.75 L108.727,180.75"/>
   <path d="M109.113,180.75 L109.12,180.75"/>
   <path d="M108.72,218.25 L108.727,218.25"/>
   <path d="M108.868,218.25 L108.972,218.25"/>
   <path d="M109.113,218.25 L109.12,218.25"/>
   <path d="M108.972,218.25 L108.868,218.25"/>
   <path d="M109.12,180.75 L109.12,218.25"/>
   <path d="M109.061,180.75 L109.093,180.75"/>
   <path d="M108.972,218.25 L108.92,218.25"/>
   <path d="M108.92,218.25 L108.92,180.75"/>
   <path d="M108.72,180.75 L108.72,218.25"/>
   <path d="M108.779,180.75 L108.747,180.75"/>
   <path d="M108.868,218.25 L108.92,218.25"/>
   <path d="M108.727,180.75 L108.727,218.25"/>
   <path d="M108.727,218.25 L108.747,218.25"/>
   <path d="M108.747,218.25 L108.747,180.75"/>
   <path d="M108.727,180.75 L108.747,180.75"/>
   <path d="M108.82,180.75 L108.82,218.25"/>
   <path d="M108.779,180.75 L108.82,180.75"/>
   <path d="M108.779,180.75 L108.779,218.25"/>
   <path d="M108.779,218.25 L108.82,218.25"/>
   <path d="M108.779,218.25 L108.747,218.25"/>
   <path d="M108.779,180.75 L108.747,180.75"/>
   <path d="M108.868,218.25 L108.82,218.25"/>
   <path d="M108.868,180.75 L108.868,218.25"/>
   <path d="M108.868,180.75 L108.82,180.75"/>
   <path d="M108.868,180.75 L108.92,180.75"/>
   <path d="M108.92,180.75 L108.92,218.25"/>
   <path d="M108.868,218.25 L108.92,218.25"/>
   <path d="M108.972,180.75 L108.92,180.75"/>
   <path d="M108.972,180.75 L108.972,218.25"/>
   <path d="M108.972,218.25 L108.92,218.25"/>
   <path d="M108.972,180.75 L109.02,180.75"/>
   <path d="M108.972,218.25 L109.02,218.25"/>
   <path d="M109.02,218.25 L109.02,180.75"/>
   <path d="M109.061,180.75 L109.061,218.25"/>
   <path d="M109.061,180.75 L109.093,180.75"/>
   <path d="M109.093,218.25 L109.093,180.75"/>
   <path d="M109.061,218.25 L109.093,218.25"/>
   <path d="M109.061,218.25 L109.02,218.25"/>
   <path d="M109.061,180.75 L109.02,180.75"/>
   <path d="M109.113,180.75 L109.093,180.75"/>
   <path d="M109.113,180.75 L109.113,218.25"/>
   <path d="M109.113,218.25 L109.093,218.25"/>
   <path d="M118.764,180.75 L118.757,180.75"/>
   <path d="M118.364,180.75 L118.371,180.75"/>
   <path d="M118.371,218.301 L118.364,218.318"/>
   <path d="M118.371,180.75 L118.371,218.301"/>
   <path d="M118.364,180.75 L118.364,218.318"/>
   <path d="M118.371,218.301 L118.391,218.284"/>
   <path d="M118.391,218.284 L118.391,180.75"/>
   <path d="M118.371,180.75 L118.391,180.75"/>
   <path d="M118.464,180.75 L118.464,218.259"/>
   <path d="M118.423,218.27 L118.464,218.259"/>
   <path d="M118.423,180.75 L118.423,218.27"/>
   <path d="M118.423,180.75 L118.464,180.75"/>
   <path d="M118.391,218.284 L118.423,218.27"/>
   <path d="M118.423,180.75 L118.391,180.75"/>
   <path d="M118.512,180.75 L118.512,218.252"/>
   <path d="M118.464,218.259 L118.512,218.252"/>
   <path d="M118.512,180.75 L118.464,180.75"/>
   <path d="M118.512,180.75 L118.564,180.75"/>
   <path d="M118.564,180.75 L118.564,218.25"/>
   <path d="M118.512,218.252 L118.564,218.25"/>
   <path d="M118.616,180.75 L118.564,180.75"/>
   <path d="M118.564,218.25 L118.616,218.252"/>
   <path d="M118.616,180.75 L118.616,218.252"/>
   <path d="M118.616,218.252 L118.664,218.259"/>
   <path d="M118.616,180.75 L118.664,180.75"/>
   <path d="M118.664,218.259 L118.664,180.75"/>
   <path d="M118.705,180.75 L118.705,218.27"/>
   <path d="M118.705,180.75 L118.737,180.75"/>
   <path d="M118.737,218.284 L118.737,180.75"/>
   <path d="M118.705,218.27 L118.737,218.284"/>
   <path d="M118.705,180.75 L118.664,180.75"/>
   <path d="M118.664,218.259 L118.705,218.27"/>
   <path d="M118.737,218.284 L118.757,218.301"/>
   <path d="M118.757,180.75 L118.757,218.301"/>
   <path d="M118.757,180.75 L118.737,180.75"/>
   <path d="M118.764,180.75 L118.764,218.318"/>
   <path d="M118.757,218.301 L118.764,218.318"/>
   <path d="M118.705,180.75 L118.737,180.75"/>
   <path d="M118.423,180.75 L118.391,180.75"/>
   <path d="M119.264,218.8 L118.364,218.8"/>
   <path d="M119.264,218.8 L119.257,218.793"/>
   <path d="M119.257,218.793 L118.371,218.793"/>
   <path d="M118.371,218.793 L118.364,218.8"/>
   <path d="M119.257,218.793 L119.237,218.773"/>
   <path d="M119.237,218.773 L118.391,218.773"/>
   <path d="M118.371,218.793 L118.391,218.773"/>
   <path d="M119.205,218.741 L118.423,218.741"/>
   <path d="M119.205,218.741 L119.164,218.7"/>
   <path d="M119.164,218.7 L118.464,218.7"/>
   <path d="M118.464,218.7 L118.423,218.741"/>
   <path d="M119.237,218.773 L119.205,218.741"/>
   <path d="M118.391,218.773 L118.423,218.741"/>
   <path d="M119.164,218.7 L119.116,218.652"/>
   <path d="M119.116,218.652 L118.512,218.652"/>
   <path d="M118.464,218.7 L118.512,218.652"/>
   <path d="M118.564,218.6 L119.064,218.6"/>
   <path d="M118.512,218.652 L118.564,218.6"/>
   <path d="M119.116,218.652 L119.064,218.6"/>
   <path d="M119.012,218.548 L118.616,218.548"/>
   <path d="M119.012,218.548 L118.964,218.5"/>
   <path d="M118.964,218.5 L118.664,218.5"/>
   <path d="M118.664,218.5 L118.616,218.548"/>
   <path d="M119.064,218.6 L119.012,218.548"/>
   <path d="M118.564,218.6 L118.616,218.548"/>
   <path d="M118.737,218.427 L118.891,218.427"/>
   <path d="M118.737,218.427 L118.757,218.407"/>
   <path d="M118.757,218.407 L118.871,218.407"/>
   <path d="M118.871,218.407 L118.891,218.427"/>
   <path d="M118.705,218.459 L118.923,218.459"/>
   <path d="M118.737,218.427 L118.705,218.459"/>
   <path d="M118.891,218.427 L118.923,218.459"/>
   <path d="M118.964,218.5 L118.923,218.459"/>
   <path d="M118.664,218.5 L118.705,218.459"/>
   <path d="M118.864,218.4 L118.764,218.4"/>
   <path d="M118.871,218.407 L118.864,218.4"/>
   <path d="M118.757,218.407 L118.764,218.4"/>
   <path d="M118.864,183.55 L118.871,183.55"/>
   <path d="M118.871,183.55 L118.891,183.55"/>
   <path d="M118.891,183.55 L118.923,183.55"/>
   <path d="M118.923,183.55 L118.964,183.55"/>
   <path d="M118.964,183.55 L119.012,183.55"/>
   <path d="M119.012,183.55 L119.064,183.55"/>
   <path d="M119.064,183.55 L119.116,183.55"/>
   <path d="M119.116,183.55 L119.164,183.55"/>
   <path d="M119.164,183.55 L119.205,183.55"/>
   <path d="M119.205,183.55 L119.237,183.55"/>
   <path d="M119.237,183.55 L119.257,183.55"/>
   <path d="M119.257,183.55 L119.264,183.55"/>
   <path d="M119.264,218.8 L119.264,183.55"/>
   <path d="M119.257,218.793 L119.257,183.55"/>
   <path d="M119.237,218.773 L119.237,183.55"/>
   <path d="M119.205,218.741 L119.205,183.55"/>
   <path d="M119.164,218.7 L119.164,183.55"/>
   <path d="M119.116,218.652 L119.116,183.55"/>
   <path d="M119.064,218.6 L119.064,183.55"/>
   <path d="M119.012,218.548 L119.012,183.55"/>
   <path d="M118.964,218.5 L118.964,183.55"/>
   <path d="M118.923,218.459 L118.923,183.55"/>
   <path d="M118.891,218.427 L118.891,183.55"/>
   <path d="M118.871,218.407 L118.871,183.55"/>
   <path d="M118.864,218.4 L118.864,183.55"/>
   <path d="M118.364,218.318 L118.364,218.8"/>
   <path d="M118.371,218.301 L118.371,218.793"/>
   <path d="M118.391,218.284 L118.391,218.773"/>
   <path d="M118.423,218.27 L118.423,218.741"/>
   <path d="M118.464,218.259 L118.464,218.7"/>
   <path d="M118.512,218.252 L118.512,218.652"/>
   <path d="M118.564,218.25 L118.564,218.6"/>
   <path d="M118.616,218.252 L118.616,218.548"/>
   <path d="M118.664,218.259 L118.664,218.5"/>
   <path d="M118.737,218.284 L118.737,218.427"/>
   <path d="M118.757,218.301 L118.757,218.407"/>
   <path d="M118.705,218.27 L118.705,218.459"/>
   <path d="M118.764,218.318 L118.764,218.4"/>
   <path d="M156.51,210.516 L156.51,214.635"/>
   <path d="M156.51,210.516 L152.391,210.516"/>
   <path d="M152.391,214.635 L152.391,210.516"/>
   <path d="M156.51,214.635 L152.391,214.635"/>
   <path d="M156.7,210.325 L156.7,214.825"/>
   <path d="M156.7,214.825 L152.2,214.825"/>
   <path d="M156.7,210.325 L152.2,210.325"/>
   <path d="M156.954,212.924 L156.954,213.051"/>
   <path d="M156.954,212.099 L156.954,212.226"/>
   <path d="M156.954,213.051 L156.827,213.051"/>
   <path d="M156.954,212.924 L156.827,212.924"/>
   <path d="M156.954,212.226 L156.827,212.226"/>
   <path d="M156.954,212.099 L156.827,212.099"/>
   <path d="M156.827,210.515 L156.827,214.634"/>
   <path d="M156.827,214.634 L156.7,214.634"/>
   <path d="M156.827,210.515 L156.7,210.515"/>
   <path d="M152.391,210.516 L152.391,214.635"/>
   <path d="M152.391,210.516 L156.51,210.516"/>
   <path d="M156.51,210.516 L156.51,214.635"/>
   <path d="M156.51,214.635 L152.391,214.635"/>
   <path d="M130.5,77.1727 L188.5,77.1727"/>
   <path d="M188.5,77.1727 L188.5,121"/>
   <path d="M130.5,120.75 L130.5,77.1727"/>
   <path d="M166.5,342.827 L108.5,342.827"/>
   <path d="M108.5,342.827 L108.5,299"/>
   <path d="M166.5,299.25 L166.5,342.827"/>
  </g>
 </g>
</svg>
