<?xml version="1.0" encoding="UTF-8" standalone="no"?>
<svg
   height="265.95432mm"
   viewBox="0 0 93.129997 265.95432"
   width="93.129997mm"
   version="1.1"
   id="svg88"
   sodipodi:docname="T_FDN.svg"
   xmlns:inkscape="http://www.inkscape.org/namespaces/inkscape"
   xmlns:sodipodi="http://sodipodi.sourceforge.net/DTD/sodipodi-0.dtd"
   xmlns="http://www.w3.org/2000/svg"
   xmlns:svg="http://www.w3.org/2000/svg"
   xmlns:ifc="http://www.ifcopenshell.org/ns">
  <sodipodi:namedview
     id="namedview88"
     pagecolor="#ffffff"
     bordercolor="#000000"
     borderopacity="0.25"
     inkscape:showpageshadow="2"
     inkscape:pageopacity="0.0"
     inkscape:pagecheckerboard="0"
     inkscape:deskcolor="#d1d1d1"
     inkscape:document-units="mm" />
  <defs
     id="defs2">
    <marker
       id="arrowend"
       markerHeight="7"
       markerWidth="10"
       orient="auto"
       refX="10"
       refY="3.5">
      <polygon
         points="10,3.5 0,7 0,0 "
         id="polygon1" />
    </marker>
    <marker
       id="arrowstart"
       markerHeight="7"
       markerWidth="10"
       orient="auto"
       refX="0"
       refY="3.5">
      <polygon
         points="0,3.5 10,7 10,0 "
         id="polygon2" />
    </marker>
  </defs>
  <style
     type="text/css"
     id="style2">&#10;  .cut path {&#10;            stroke: #222222;&#10;            fill: #444444;&#10;            fill-rule: evenodd;&#10;        }&#10;        .projection path {&#10;            stroke: #222222;&#10;            fill: none;&#10;            stroke-opacity: 0.6;&#10;        }&#10;        .IfcDoor path,&#10;        .Symbol path {&#10;            fill: none;&#10;        }&#10;        .Symbol path {&#10;            stroke-width: 0.5px;&#10;        }&#10;        .IfcSpace path {&#10;            fill-opacity: .2;&#10;        }&#10;        .Dimension path {&#10;            marker-end: url(#arrowend);&#10;            marker-start: url(#arrowstart);&#10;        }&#10;        text {&#10;            font-size: 2;&#10;        }&#10;        path {&#10;            stroke-width: 0.3;&#10;        }&#10; </style>
  <g
     class="IfcBuildingStorey"
     id="storey-7b7032cc-b822-417b-9aea-6429f95f6ab3"
     ifc:guid="1xS3BCk291UvhgP2dvNsgp"
     ifc:matrix3="[[10.000000,0.000000,104.500000],[0.000000,10.000000,121.000000],[0.000000,0.000000,1.000000]]"
     ifc:name="T_FDN"
     ifc:plane="[[1.000000,0.000000,0.000000,0.000000],[0.000000,1.000000,0.000000,0.000000],[0.000000,0.000000,1.000000,-0.050000],[0.000000,0.000000,0.000000,1.000000]]"
     transform="translate(-101.935,-77.0227)">
    <g
       class="cut IfcWallStandardCase"
       id="product-9808fd7f-dc48-478e-9217-628e833d4200-body"
       ifc:guid="2O2Fr$t4X7Zf8NOew3FK80"
       ifc:name="Basic Wall:Foundation - Concrete (417mm):140479">
      <path
         d="m 192.5,121 h -88 v 4.17 h 88 V 121"
         id="path2" />
    </g>
    <g
       class="cut IfcWallStandardCase"
       id="product-9808fd7f-dc48-478e-9217-628e833d4257-body"
       ifc:guid="2O2Fr$t4X7Zf8NOew3FK9N"
       ifc:name="Basic Wall:Foundation - Concrete (417mm):140520">
      <path
         d="M 192.5,299 V 125.17 h -4.17 V 299 h 4.17"
         id="path3" />
    </g>
    <g
       class="cut IfcWallStandardCase"
       id="product-9808fd7f-dc48-478e-9217-628e833d43b5-body"
       ifc:guid="2O2Fr$t4X7Zf8NOew3FKEr"
       ifc:name="Basic Wall:Foundation - Concrete (417mm):140554">
      <path
         d="m 104.5,299 h 83.83 v -4.17 H 104.5 V 299"
         id="path4" />
    </g>
    <g
       class="cut IfcWallStandardCase"
       id="product-9808fd7f-dc48-478e-9217-628e833d4385-body"
       ifc:guid="2O2Fr$t4X7Zf8NOew3FKE5"
       ifc:name="Basic Wall:Foundation - Concrete (417mm):140602">
      <path
         d="m 104.5,125.17 v 169.66 h 4.17 V 125.17 h -4.17"
         id="path5" />
    </g>
    <g
       class="cut IfcWallStandardCase"
       id="product-9808fd7f-dc48-478e-9217-628e833d40ce-body"
       ifc:guid="2O2Fr$t4X7Zf8NOew3FK3E"
       ifc:name="Basic Wall:Foundation - Concrete (435mm):140913">
      <path
         d="m 146.325,201.175 h 42.005 v -4.35 h -42.005 v 4.35"
         id="path6" />
    </g>
    <g
       class="cut IfcWallStandardCase"
       id="product-9808fd7f-dc48-478e-9217-628e833d4004-body"
       ifc:guid="2O2Fr$t4X7Zf8NOew3FK04"
       ifc:name="Basic Wall:Foundation - Concrete (435mm):140987">
      <path
         d="M 150.675,218.825 H 108.67 v 4.35 h 42.005 v -4.35"
         id="path7" />
    </g>
    <g
       class="cut IfcSlab"
       id="product-9808fd7f-dc48-478e-9217-628e833d410f-body"
       ifc:guid="2O2Fr$t4X7Zf8NOew3FK4F"
       ifc:name="Floor:127mm Slab on Grade:141232">
      <path
         d="m 188.33,196.25 v -71.08 h -79.66 v 93.08 h 37.08 v -22 h 42.58"
         id="path8" />
    </g>
    <g
       class="cut IfcSlab"
       id="product-9808fd7f-dc48-478e-9217-628e833d49bd-body"
       ifc:guid="2O2Fr$t4X7Zf8NOew3FKcz"
       ifc:name="Floor:127mm Slab on Grade:143106">
      <path
         d="m 188.33,294.83 v -93.08 h -37.655 v 22 H 108.67 v 71.08 h 79.66"
         id="path9" />
    </g>
    <g
       class="cut IfcSlab"
       id="product-4c8d2570-3244-4e75-8237-a4372a40e82b-body"
       ifc:guid="1CZILmCaHETO8tf3SgGEWh"
       ifc:name="Floor:150mm Exterior Slab on Grade:216507">
      <path
         d="m 188.5,77.1727 h -58 V 121 h 58 V 77.1727"
         id="path10" />
    </g>
    <g
       class="cut IfcSlab"
       id="product-4c8d2570-3244-4e75-8237-a4372a40e878-body"
       ifc:guid="1CZILmCaHETO8tf3SgGEXu"
       ifc:name="Floor:150mm Exterior Slab on Grade:216552">
      <path
         d="m 108.5,342.827 h 58 V 299 h -58 v 43.827"
         id="path11" />
    </g>
    <g
       class="projection"
       id="g88">
      <path
         d="m 192.5,121 h -4"
         id="path12" />
      <path
         d="m 130.5,121 h -26"
         id="path13" />
      <path
         d="m 104.5,121 v 4.17"
         id="path14" />
      <path
         d="m 104.5,125.17 h 88"
         id="path15" />
      <path
         d="M 192.5,125.17 V 121"
         id="path16" />
      <path
         d="M 192.5,299 V 125.17"
         id="path17" />
      <path
         d="m 192.5,125.17 h -4.17"
         id="path18" />
      <path
         d="M 188.33,125.17 V 299"
         id="path19" />
      <path
         d="m 188.33,299 h 4.17"
         id="path20" />
      <path
         d="m 104.5,299 h 4"
         id="path21" />
      <path
         d="m 166.5,299 h 21.83"
         id="path22" />
      <path
         d="m 188.33,299 v -4.17"
         id="path23" />
      <path
         d="M 188.33,294.83 H 104.5"
         id="path24" />
      <path
         d="M 104.5,294.83 V 299"
         id="path25" />
      <path
         d="M 104.5,125.17 V 294.83"
         id="path26" />
      <path
         d="m 104.5,294.83 h 4.17"
         id="path27" />
      <path
         d="M 108.67,294.83 V 125.17"
         id="path28" />
      <path
         d="M 108.67,125.17 H 104.5"
         id="path29" />
      <path
         d="M 146.325,201.175 H 188.33"
         id="path30" />
      <path
         d="m 188.33,201.175 v -4.35"
         id="path31" />
      <path
         d="M 188.33,196.825 H 146.325"
         id="path32" />
      <path
         d="m 146.325,196.825 v 4.35"
         id="path33" />
      <path
         d="M 150.675,218.825 H 108.67"
         id="path34" />
      <path
         d="m 108.67,218.825 v 4.35"
         id="path35" />
      <path
         d="m 108.67,223.175 h 42.005"
         id="path36" />
      <path
         d="m 150.675,223.175 v -4.35"
         id="path37" />
      <path
         d="m 146.325,201.175 v 17.65"
         id="path38" />
      <path
         d="m 150.675,201.75 v -0.575"
         id="path39" />
      <path
         d="m 188.33,125.17 v 71.08"
         id="path40" />
      <path
         d="M 188.33,196.25 H 145.75"
         id="path41" />
      <path
         d="m 145.75,196.25 v 22"
         id="path42" />
      <path
         d="M 145.75,218.25 H 108.67"
         id="path43" />
      <path
         d="M 108.67,218.25 V 125.17"
         id="path44" />
      <path
         d="m 108.67,125.17 h 79.66"
         id="path45" />
      <path
         d="m 188.33,201.75 v 93.08"
         id="path46" />
      <path
         d="M 188.33,294.83 H 108.67"
         id="path47" />
      <path
         d="M 108.67,294.83 V 223.75"
         id="path48" />
      <path
         d="m 108.67,223.75 h 42.005"
         id="path49" />
      <path
         d="m 150.675,223.75 v -22"
         id="path50" />
      <path
         d="M 150.675,201.75 H 188.33"
         id="path51" />
      <path
         d="m 185.915,196.25 v 0.575"
         id="path52" />
      <path
         d="m 185.915,201.175 v 0.575"
         id="path53" />
      <path
         d="m 185.915,299 v 2.415"
         id="path54" />
      <path
         d="m 185.915,301.415 h 9"
         id="path55" />
      <path
         d="M 194.915,301.415 V 118.585"
         id="path56" />
      <path
         d="M 194.915,118.585 H 188.5"
         id="path57" />
      <path
         d="M 102.085,301.415 H 108.5"
         id="path58" />
      <path
         d="m 166.5,301.415 h 19.415"
         id="path59" />
      <path
         d="M 185.915,301.415 V 299"
         id="path60" />
      <path
         d="m 104.5,292.415 h -2.415"
         id="path61" />
      <path
         d="m 102.085,292.415 v 9"
         id="path62" />
      <path
         d="m 102.085,118.585 v 173.83"
         id="path63" />
      <path
         d="M 102.085,292.415 H 104.5"
         id="path64" />
      <path
         d="m 111.085,223.75 v -0.575"
         id="path65" />
      <path
         d="M 111.085,218.825 V 218.25"
         id="path66" />
      <path
         d="m 111.085,121 v -2.415"
         id="path67" />
      <path
         d="m 111.085,118.585 h -9"
         id="path68" />
      <path
         d="M 130.5,118.585 H 111.085"
         id="path69" />
      <path
         d="M 111.085,118.585 V 121"
         id="path70" />
      <path
         d="m 145.75,203.5 h 0.575"
         id="path71" />
      <path
         d="m 185.915,201.75 v -0.575"
         id="path72" />
      <path
         d="M 185.915,196.825 V 196.25"
         id="path73" />
      <path
         d="M 146.325,203.5 H 145.75"
         id="path74" />
      <path
         d="m 144,218.25 v 0.575"
         id="path75" />
      <path
         d="m 144,223.175 v 0.575"
         id="path76" />
      <path
         d="m 144,223.75 v -0.575"
         id="path77" />
      <path
         d="M 144,218.825 V 218.25"
         id="path78" />
      <path
         d="m 111.085,218.25 v 0.575"
         id="path79" />
      <path
         d="m 111.085,223.175 v 0.575"
         id="path80" />
      <path
         d="m 130.5,77.1727 h 58"
         id="path81" />
      <path
         d="M 188.5,77.1727 V 121"
         id="path82" />
      <path
         d="m 188.5,121 h -58"
         id="path83" />
      <path
         d="M 130.5,121 V 77.1727"
         id="path84" />
      <path
         d="m 166.5,342.827 h -58"
         id="path85" />
      <path
         d="M 108.5,342.827 V 299"
         id="path86" />
      <path
         d="m 108.5,299 h 58"
         id="path87" />
      <path
         d="m 166.5,299 v 43.827"
         id="path88" />
    </g>
  </g>
</svg>
