<?xml version="1.0" encoding="utf-8"?>
<svg height="420mm" viewBox="0 0 297 420" width="297mm" xmlns="http://www.w3.org/2000/svg" xmlns:ifc="http://www.ifcopenshell.org/ns" xmlns:xlink="http://www.w3.org/1999/xlink">
 <defs>
  <marker id="arrowend" markerHeight="7" markerWidth="10" orient="auto" refX="10" refY="3.5">
   <polygon points="0 0, 10 3.5, 0 7"/>
  </marker>
  <marker id="arrowstart" markerHeight="7" markerWidth="10" orient="auto" refX="0" refY="3.5">
   <polygon points="10 0, 0 3.5, 10 7"/>
  </marker>
 </defs>
 <style type="text/css">
  .cut path {
            stroke: #222222;
            fill: #444444;
            fill-rule: evenodd;
        }
        .projection path {
            stroke: #222222;
            fill: none;
            stroke-opacity: 0.6;
        }
        .IfcDoor path,
        .Symbol path {
            fill: none;
        }
        .Symbol path {
            stroke-width: 0.5px;
        }
        .IfcSpace path {
            fill-opacity: .2;
        }
        .Dimension path {
            marker-end: url(#arrowend);
            marker-start: url(#arrowstart);
        }
        text {
            font-size: 2;
        }
        path {
            stroke-width: 0.3;
        }
 </style>
 <g class="IfcBuildingStorey" id="storey-7b7032cc-b822-417b-9aea-6429f95f6ab3" ifc:guid="1xS3BCk291UvhgP2dvNsgp" ifc:matrix3="[[10.000000,0.000000,104.500000],[0.000000,10.000000,121.000000],[0.000000,0.000000,1.000000]]" ifc:name="T/FDN" ifc:plane="[[1.000000,0.000000,0.000000,0.000000],[0.000000,1.000000,0.000000,0.000000],[0.000000,0.000000,1.000000,-0.050000],[0.000000,0.000000,0.000000,1.000000]]">
  <g class="cut IfcWallStandardCase" id="product-9808fd7f-dc48-478e-9217-628e833d4200-body" ifc:guid="2O2Fr$t4X7Zf8NOew3FK80" ifc:name="Basic Wall:Foundation - Concrete (417mm):140479">
   <path d="M192.5,121 L104.5,121 L104.5,125.17 L192.5,125.17 L192.5,121"/>
  </g>
  <g class="cut IfcWallStandardCase" id="product-9808fd7f-dc48-478e-9217-628e833d4257-body" ifc:guid="2O2Fr$t4X7Zf8NOew3FK9N" ifc:name="Basic Wall:Foundation - Concrete (417mm):140520">
   <path d="M192.5,299 L192.5,125.17 L188.33,125.17 L188.33,299 L192.5,299"/>
  </g>
  <g class="cut IfcWallStandardCase" id="product-9808fd7f-dc48-478e-9217-628e833d43b5-body" ifc:guid="2O2Fr$t4X7Zf8NOew3FKEr" ifc:name="Basic Wall:Foundation - Concrete (417mm):140554">
   <path d="M104.5,299 L188.33,299 L188.33,294.83 L104.5,294.83 L104.5,299"/>
  </g>
  <g class="cut IfcWallStandardCase" id="product-9808fd7f-dc48-478e-9217-628e833d4385-body" ifc:guid="2O2Fr$t4X7Zf8NOew3FKE5" ifc:name="Basic Wall:Foundation - Concrete (417mm):140602">
   <path d="M104.5,125.17 L104.5,294.83 L108.67,294.83 L108.67,125.17 L104.5,125.17"/>
  </g>
  <g class="cut IfcWallStandardCase" id="product-9808fd7f-dc48-478e-9217-628e833d40ce-body" ifc:guid="2O2Fr$t4X7Zf8NOew3FK3E" ifc:name="Basic Wall:Foundation - Concrete (435mm):140913">
   <path d="M146.325,201.175 L188.33,201.175 L188.33,196.825 L146.325,196.825 L146.325,201.175"/>
  </g>
  <g class="cut IfcWallStandardCase" id="product-9808fd7f-dc48-478e-9217-628e833d4004-body" ifc:guid="2O2Fr$t4X7Zf8NOew3FK04" ifc:name="Basic Wall:Foundation - Concrete (435mm):140987">
   <path d="M150.675,218.825 L108.67,218.825 L108.67,223.175 L150.675,223.175 L150.675,218.825"/>
  </g>
  <g class="cut IfcSlab" id="product-9808fd7f-dc48-478e-9217-628e833d410f-body" ifc:guid="2O2Fr$t4X7Zf8NOew3FK4F" ifc:name="Floor:127mm Slab on Grade:141232">
   <path d="M188.33,196.25 L188.33,125.17 L108.67,125.17 L108.67,218.25 L145.75,218.25 L145.75,196.25 L188.33,196.25"/>
  </g>
  <g class="cut IfcSlab" id="product-9808fd7f-dc48-478e-9217-628e833d49bd-body" ifc:guid="2O2Fr$t4X7Zf8NOew3FKcz" ifc:name="Floor:127mm Slab on Grade:143106">
   <path d="M188.33,294.83 L188.33,201.75 L150.675,201.75 L150.675,223.75 L108.67,223.75 L108.67,294.83 L188.33,294.83"/>
  </g>
  <g class="cut IfcSlab" id="product-4c8d2570-3244-4e75-8237-a4372a40e82b-body" ifc:guid="1CZILmCaHETO8tf3SgGEWh" ifc:name="Floor:150mm Exterior Slab on Grade:216507">
   <path d="M188.5,77.1727 L130.5,77.1727 L130.5,121 L188.5,121 L188.5,77.1727"/>
  </g>
  <g class="cut IfcSlab" id="product-4c8d2570-3244-4e75-8237-a4372a40e878-body" ifc:guid="1CZILmCaHETO8tf3SgGEXu" ifc:name="Floor:150mm Exterior Slab on Grade:216552">
   <path d="M108.5,342.827 L166.5,342.827 L166.5,299 L108.5,299 L108.5,342.827"/>
  </g>
  <g class="projection">
   <path d="M192.5,121 L188.5,121"/>
   <path d="M130.5,121 L104.5,121"/>
   <path d="M104.5,121 L104.5,125.17"/>
   <path d="M104.5,125.17 L192.5,125.17"/>
   <path d="M192.5,125.17 L192.5,121"/>
   <path d="M192.5,299 L192.5,125.17"/>
   <path d="M192.5,125.17 L188.33,125.17"/>
   <path d="M188.33,125.17 L188.33,299"/>
   <path d="M188.33,299 L192.5,299"/>
   <path d="M104.5,299 L108.5,299"/>
   <path d="M166.5,299 L188.33,299"/>
   <path d="M188.33,299 L188.33,294.83"/>
   <path d="M188.33,294.83 L104.5,294.83"/>
   <path d="M104.5,294.83 L104.5,299"/>
   <path d="M104.5,125.17 L104.5,294.83"/>
   <path d="M104.5,294.83 L108.67,294.83"/>
   <path d="M108.67,294.83 L108.67,125.17"/>
   <path d="M108.67,125.17 L104.5,125.17"/>
   <path d="M146.325,201.175 L188.33,201.175"/>
   <path d="M188.33,201.175 L188.33,196.825"/>
   <path d="M188.33,196.825 L146.325,196.825"/>
   <path d="M146.325,196.825 L146.325,201.175"/>
   <path d="M150.675,218.825 L108.67,218.825"/>
   <path d="M108.67,218.825 L108.67,223.175"/>
   <path d="M108.67,223.175 L150.675,223.175"/>
   <path d="M150.675,223.175 L150.675,218.825"/>
   <path d="M146.325,201.175 L146.325,218.825"/>
   <path d="M150.675,201.75 L150.675,201.175"/>
   <path d="M188.33,125.17 L188.33,196.25"/>
   <path d="M188.33,196.25 L145.75,196.25"/>
   <path d="M145.75,196.25 L145.75,218.25"/>
   <path d="M145.75,218.25 L108.67,218.25"/>
   <path d="M108.67,218.25 L108.67,125.17"/>
   <path d="M108.67,125.17 L188.33,125.17"/>
   <path d="M188.33,201.75 L188.33,294.83"/>
   <path d="M188.33,294.83 L108.67,294.83"/>
   <path d="M108.67,294.83 L108.67,223.75"/>
   <path d="M108.67,223.75 L150.675,223.75"/>
   <path d="M150.675,223.75 L150.675,201.75"/>
   <path d="M150.675,201.75 L188.33,201.75"/>
   <path d="M185.915,196.25 L185.915,196.825"/>
   <path d="M185.915,201.175 L185.915,201.75"/>
   <path d="M185.915,299 L185.915,301.415"/>
   <path d="M185.915,301.415 L194.915,301.415"/>
   <path d="M194.915,301.415 L194.915,118.585"/>
   <path d="M194.915,118.585 L188.5,118.585"/>
   <path d="M102.085,301.415 L108.5,301.415"/>
   <path d="M166.5,301.415 L185.915,301.415"/>
   <path d="M185.915,301.415 L185.915,299"/>
   <path d="M104.5,292.415 L102.085,292.415"/>
   <path d="M102.085,292.415 L102.085,301.415"/>
   <path d="M102.085,118.585 L102.085,292.415"/>
   <path d="M102.085,292.415 L104.5,292.415"/>
   <path d="M111.085,223.75 L111.085,223.175"/>
   <path d="M111.085,218.825 L111.085,218.25"/>
   <path d="M111.085,121 L111.085,118.585"/>
   <path d="M111.085,118.585 L102.085,118.585"/>
   <path d="M130.5,118.585 L111.085,118.585"/>
   <path d="M111.085,118.585 L111.085,121"/>
   <path d="M145.75,203.5 L146.325,203.5"/>
   <path d="M185.915,201.75 L185.915,201.175"/>
   <path d="M185.915,196.825 L185.915,196.25"/>
   <path d="M146.325,203.5 L145.75,203.5"/>
   <path d="M144,218.25 L144,218.825"/>
   <path d="M144,223.175 L144,223.75"/>
   <path d="M144,223.75 L144,223.175"/>
   <path d="M144,218.825 L144,218.25"/>
   <path d="M111.085,218.25 L111.085,218.825"/>
   <path d="M111.085,223.175 L111.085,223.75"/>
   <path d="M130.5,77.1727 L188.5,77.1727"/>
   <path d="M188.5,77.1727 L188.5,121"/>
   <path d="M188.5,121 L130.5,121"/>
   <path d="M130.5,121 L130.5,77.1727"/>
   <path d="M166.5,342.827 L108.5,342.827"/>
   <path d="M108.5,342.827 L108.5,299"/>
   <path d="M108.5,299 L166.5,299"/>
   <path d="M166.5,299 L166.5,342.827"/>
  </g>
 </g>
</svg>
