<?xml version="1.0" encoding="UTF-8" standalone="no"?>
<!-- Uploaded to: SVG Repo, www.svgrepo.com, Transformed by: SVG Repo Mixer Tools -->

<svg
   height="256px"
   width="256px"
   version="1.1"
   id="Layer_1"
   viewBox="-51.2 -51.2 614.40 614.40"
   xml:space="preserve"
   fill="#000000"
   stroke="#000000"
   stroke-width="0.00512"
   sodipodi:docname="helmet.svg"
   inkscape:version="1.3.2 (091e20ef0f, 2023-11-25, custom)"
   xmlns:inkscape="http://www.inkscape.org/namespaces/inkscape"
   xmlns:sodipodi="http://sodipodi.sourceforge.net/DTD/sodipodi-0.dtd"
   xmlns="http://www.w3.org/2000/svg"
   xmlns:svg="http://www.w3.org/2000/svg"><defs
   id="defs7" /><sodipodi:namedview
   id="namedview7"
   pagecolor="#ffffff"
   bordercolor="#000000"
   borderopacity="0.25"
   inkscape:showpageshadow="2"
   inkscape:pageopacity="0.0"
   inkscape:pagecheckerboard="0"
   inkscape:deskcolor="#d1d1d1"
   inkscape:zoom="0.9453125"
   inkscape:cx="128"
   inkscape:cy="128"
   inkscape:window-width="1253"
   inkscape:window-height="1368"
   inkscape:window-x="20"
   inkscape:window-y="50"
   inkscape:window-maximized="1"
   inkscape:current-layer="g8" />

<g
   id="SVGRepo_bgCarrier"
   stroke-width="0" />

<g
   id="SVGRepo_tracerCarrier"
   stroke-linecap="round"
   stroke-linejoin="round"
   stroke="#c01c28"
   stroke-width="3.072" />

<g
   id="SVGRepo_iconCarrier"> <path
   style="fill:#F4BA48;"
   d="M493.714,374.857c-10.057,0-18.286-8.229-18.286-18.286v-32c0-98.743-65.829-186.514-155.429-214.857 V99.657c0-9.143-8.229-17.371-17.371-17.371h-93.257c-9.143,0-17.371,8.229-17.371,17.371v10.057 C102.4,137.143,36.571,221.257,36.571,320v36.571c0,10.057-8.229,18.286-18.286,18.286H0v54.857h512v-54.857H493.714z"
   id="path1" /> <g
   id="g7"> <path
   style="fill:#B58024;"
   d="M411.429,384H100.571c-5.486,0-9.143-3.657-9.143-9.143s3.657-9.143,9.143-9.143h310.857 c5.486,0,9.143,3.657,9.143,9.143S416.914,384,411.429,384"
   id="path2" /> <path
   style="fill:#B58024;"
   d="M320,164.571c-5.486,0-9.143-3.657-9.143-9.143v-36.571c0-5.486,3.657-9.143,9.143-9.143 c5.486,0,9.143,3.657,9.143,9.143v36.571C329.143,160.914,325.486,164.571,320,164.571"
   id="path3" /> <path
   style="fill:#B58024;"
   d="M192,164.571c-5.486,0-9.143-3.657-9.143-9.143v-36.571c0-5.486,3.657-9.143,9.143-9.143 s9.143,3.657,9.143,9.143v36.571C201.143,160.914,197.486,164.571,192,164.571"
   id="path4" /> <path
   style="fill:#B58024;"
   d="M256,210.286c-5.486,0-9.143-3.657-9.143-9.143V91.429c0-5.486,3.657-9.143,9.143-9.143 c5.486,0,9.143,3.657,9.143,9.143v109.714C265.143,205.714,261.486,210.286,256,210.286"
   id="path5" /> <path
   style="fill:#B58024;"
   d="M372.114,135.314l-33.829,102.4l101.486-33.829l0,0C422.4,176.457,399.543,152.686,372.114,135.314 L372.114,135.314z"
   id="path6" /> <path
   style="fill:#B58024;"
   d="M139.886,135.314l33.829,102.4L72.229,203.886l0,0C89.6,176.457,112.457,152.686,139.886,135.314 L139.886,135.314z"
   id="path7" /> </g> </g>

<g
   style="fill:none"
   id="g8"
   transform="matrix(16.47283,0,0,14.985949,55.837948,76.402886)"><g
     id="SVGRepo_bgCarrier-3"
     stroke-width="0"
     style="display:inline" /><g
     id="SVGRepo_tracerCarrier-6"
     stroke-linecap="round"
     stroke-linejoin="round"
     stroke="#cccccc"
     stroke-width="0.4"
     inkscape:label="SVGRepo_tracerCarrier-6"
     style="display:inline;opacity:1;mix-blend-mode:normal" /><g
     id="SVGRepo_iconCarrier-7"
     inkscape:label="SVGRepo_iconCarrier-7"
     style="display:inline;mix-blend-mode:normal"><path
       d="M 18.2202,21.25 H 5.78015 C 5.14217,21.2775 4.50834,21.1347 3.94373,20.8364 3.37911,20.5381 2.90402,20.095 2.56714,19.5526 2.23026,19.0101 2.04372,18.3877 2.02667,17.7494 2.00963,17.111 2.1627,16.4797 2.47015,15.92 L 8.69013,5.10999 C 9.03495,4.54078 9.52077,4.07013 10.1006,3.74347 c 0.5798,-0.32666 1.234,-0.49829 1.8995,-0.49829 0.6655,0 1.3198,0.17163 1.8996,0.49829 0.5798,0.32666 1.0657,0.79731 1.4105,1.36652 l 6.22,10.81001 c 0.3074,0.5597 0.4605,1.191 0.4434,1.8294 -0.017,0.6383 -0.2035,1.2607 -0.5404,1.8032 -0.3369,0.5424 -0.8121,0.9855 -1.3767,1.2838 -0.5646,0.2983 -1.1984,0.4411 -1.8363,0.4136 z"
       stroke="#ff0000"
       stroke-width="0.925"
       stroke-linecap="round"
       stroke-linejoin="round"
       id="path1-5" /><path
       d="m 10.8809,17.15 c 0,-0.1479 0.0293,-0.2944 0.0862,-0.4309 0.0569,-0.1366 0.1403,-0.2605 0.2454,-0.3646 0.105,-0.1041 0.2297,-0.1864 0.3667,-0.2421 0.1371,-0.0557 0.2837,-0.0837 0.4317,-0.0824 0.2182,0.004 0.4304,0.0721 0.6101,0.196 0.1796,0.1239 0.3188,0.2981 0.4001,0.5006 0.0812,0.2026 0.1009,0.4246 0.0567,0.6383 -0.0443,0.2137 -0.1506,0.4096 -0.3056,0.5633 -0.155,0.1536 -0.3519,0.2581 -0.566,0.3005 -0.2141,0.0424 -0.4359,0.0207 -0.6377,-0.0624 -0.2019,-0.083 -0.3747,-0.2237 -0.497,-0.4045 -0.1223,-0.1807 -0.1886,-0.3935 -0.1906,-0.6118 z m 0.36,-2.73 -0.14,-5.21999 C 11.0876,9.07453 11.1008,8.94766 11.1398,8.82764 11.1787,8.70761 11.2424,8.5971 11.3268,8.5033 11.4112,8.40949 11.5144,8.33449 11.6296,8.28314 11.7449,8.2318 11.8697,8.20526 11.9959,8.20526 c 0.1262,0 0.251,0.02654 0.3662,0.07788 0.1153,0.05135 0.2184,0.12635 0.3028,0.22016 0.0844,0.0938 0.1482,0.20431 0.1871,0.32434 0.0389,0.12002 0.0522,0.24689 0.0389,0.37237 l -0.13,5.21999 c 0,0.2015 -0.0801,0.3949 -0.2226,0.5374 -0.1426,0.1425 -0.3359,0.2226 -0.5374,0.2226 -0.2016,0 -0.3949,-0.0801 -0.5374,-0.2226 C 11.321,14.8149 11.2409,14.6215 11.2409,14.42 Z"
       fill="#ff0000"
       id="path2-3" /></g></g><path
   style="fill:#000000;stroke-width:0.0054162"
   d=""
   id="path10"
   transform="matrix(2.4,0,0,2.4,-51.2,-51.2)" /></svg>
