<?xml version="1.0" encoding="UTF-8" standalone="no"?>
<!-- Uploaded to: SVG Repo, www.svgrepo.com, Transformed by: SVG Repo Mixer Tools -->

<svg
   height="179.34038"
   width="258.46155"
   version="1.1"
   id="Layer_1"
   viewBox="-10.24 -10.24 537.60002 373.02799"
   xml:space="preserve"
   fill="#ff0000"
   stroke="#ff0000"
   stroke-width="7.68"
   sodipodi:docname="helmet2_selected.svg"
   inkscape:version="1.3.2 (091e20ef0f, 2023-11-25, custom)"
   xmlns:inkscape="http://www.inkscape.org/namespaces/inkscape"
   xmlns:sodipodi="http://sodipodi.sourceforge.net/DTD/sodipodi-0.dtd"
   xmlns="http://www.w3.org/2000/svg"
   xmlns:svg="http://www.w3.org/2000/svg"><defs
   id="defs14" /><sodipodi:namedview
   id="namedview14"
   pagecolor="#ffffff"
   bordercolor="#000000"
   borderopacity="0.25"
   inkscape:showpageshadow="2"
   inkscape:pageopacity="0.0"
   inkscape:pagecheckerboard="0"
   inkscape:deskcolor="#d1d1d1"
   inkscape:zoom="1.1054688"
   inkscape:cx="128.90459"
   inkscape:cy="89.55477"
   inkscape:window-width="830"
   inkscape:window-height="1368"
   inkscape:window-x="1708"
   inkscape:window-y="50"
   inkscape:window-maximized="1"
   inkscape:current-layer="Layer_1" />

<g
   id="SVGRepo_bgCarrier"
   stroke-width="0"
   transform="translate(2.5600002,-79.726)" />

<g
   id="SVGRepo_tracerCarrier"
   stroke-linecap="round"
   stroke-linejoin="round"
   stroke="#ff0000"
   stroke-width="25.6"
   transform="translate(2.5600002,-79.726)"> <path
   style="fill:#f4ba48"
   d="m 493.714,374.857 c -10.057,0 -18.286,-8.229 -18.286,-18.286 v -32 c 0,-98.743 -65.829,-186.514 -155.429,-214.857 V 99.657 c 0,-9.143 -8.229,-17.371 -17.371,-17.371 H 209.371 C 200.228,82.286 192,90.515 192,99.657 v 10.057 C 102.4,137.143 36.571,221.257 36.571,320 v 36.571 c 0,10.057 -8.229,18.286 -18.286,18.286 H 0 v 54.857 h 512 v -54.857 z"
   id="path1" /> <g
   id="g7"> <path
   style="fill:#b58024"
   d="M 411.429,384 H 100.571 c -5.486,0 -9.143,-3.657 -9.143,-9.143 0,-5.486 3.657,-9.143 9.143,-9.143 h 310.857 c 5.486,0 9.143,3.657 9.143,9.143 0,5.486 -3.657,9.143 -9.142,9.143"
   id="path2" /> <path
   style="fill:#b58024"
   d="m 320,164.571 c -5.486,0 -9.143,-3.657 -9.143,-9.143 v -36.571 c 0,-5.486 3.657,-9.143 9.143,-9.143 5.486,0 9.143,3.657 9.143,9.143 v 36.571 c 0,5.486 -3.657,9.143 -9.143,9.143"
   id="path3" /> <path
   style="fill:#b58024"
   d="m 192,164.571 c -5.486,0 -9.143,-3.657 -9.143,-9.143 v -36.571 c 0,-5.486 3.657,-9.143 9.143,-9.143 5.486,0 9.143,3.657 9.143,9.143 v 36.571 c 0,5.486 -3.657,9.143 -9.143,9.143"
   id="path4" /> <path
   style="fill:#b58024"
   d="m 256,210.286 c -5.486,0 -9.143,-3.657 -9.143,-9.143 V 91.429 c 0,-5.486 3.657,-9.143 9.143,-9.143 5.486,0 9.143,3.657 9.143,9.143 v 109.714 c 0,4.571 -3.657,9.143 -9.143,9.143"
   id="path5" /> <path
   style="fill:#b58024"
   d="m 372.114,135.314 -33.829,102.4 101.486,-33.829 v 0 C 422.4,176.457 399.543,152.686 372.114,135.314 Z"
   id="path6" /> <path
   style="fill:#b58024"
   d="m 139.886,135.314 33.829,102.4 -101.486,-33.828 v 0 c 17.371,-27.429 40.228,-51.2 67.657,-68.572 z"
   id="path7" /> </g> </g>

<g
   id="SVGRepo_iconCarrier"
   transform="translate(2.5600002,-79.726)"> <path
   style="fill:#f4ba48"
   d="m 493.714,374.857 c -10.057,0 -18.286,-8.229 -18.286,-18.286 v -32 c 0,-98.743 -65.829,-186.514 -155.429,-214.857 V 99.657 c 0,-9.143 -8.229,-17.371 -17.371,-17.371 H 209.371 C 200.228,82.286 192,90.515 192,99.657 v 10.057 C 102.4,137.143 36.571,221.257 36.571,320 v 36.571 c 0,10.057 -8.229,18.286 -18.286,18.286 H 0 v 54.857 h 512 v -54.857 z"
   id="path8" /> <g
   id="g14"> <path
   style="fill:#b58024"
   d="M 411.429,384 H 100.571 c -5.486,0 -9.143,-3.657 -9.143,-9.143 0,-5.486 3.657,-9.143 9.143,-9.143 h 310.857 c 5.486,0 9.143,3.657 9.143,9.143 0,5.486 -3.657,9.143 -9.142,9.143"
   id="path9" /> <path
   style="fill:#b58024"
   d="m 320,164.571 c -5.486,0 -9.143,-3.657 -9.143,-9.143 v -36.571 c 0,-5.486 3.657,-9.143 9.143,-9.143 5.486,0 9.143,3.657 9.143,9.143 v 36.571 c 0,5.486 -3.657,9.143 -9.143,9.143"
   id="path10" /> <path
   style="fill:#b58024"
   d="m 192,164.571 c -5.486,0 -9.143,-3.657 -9.143,-9.143 v -36.571 c 0,-5.486 3.657,-9.143 9.143,-9.143 5.486,0 9.143,3.657 9.143,9.143 v 36.571 c 0,5.486 -3.657,9.143 -9.143,9.143"
   id="path11" /> <path
   style="fill:#b58024"
   d="m 256,210.286 c -5.486,0 -9.143,-3.657 -9.143,-9.143 V 91.429 c 0,-5.486 3.657,-9.143 9.143,-9.143 5.486,0 9.143,3.657 9.143,9.143 v 109.714 c 0,4.571 -3.657,9.143 -9.143,9.143"
   id="path12" /> <path
   style="fill:#b58024"
   d="m 372.114,135.314 -33.829,102.4 101.486,-33.829 v 0 C 422.4,176.457 399.543,152.686 372.114,135.314 Z"
   id="path13" /> <path
   style="fill:#b58024"
   d="m 139.886,135.314 33.829,102.4 -101.486,-33.828 v 0 c 17.371,-27.429 40.228,-51.2 67.657,-68.572 z"
   id="path14" /> </g> </g>

</svg>
